<svg xmlns="http://www.w3.org/2000/svg" id="stpa_0_root" class="sprotty-graph" style="border-block-end-color:rgb(59, 59, 59);border-block-start-color:rgb(59, 59, 59);border-bottom-color:rgb(59, 59, 59);border-inline-end-color:rgb(59, 59, 59);border-inline-start-color:rgb(59, 59, 59);border-left-color:rgb(59, 59, 59);border-right-color:rgb(59, 59, 59);border-top-color:rgb(59, 59, 59);caret-color:rgb(59, 59, 59);color:rgb(59, 59, 59);column-rule-color:rgb(59, 59, 59);flex-basis:0%;flex-grow:1;font-family:&quot;Helvetica Neue&quot;, Helvetica, Arial, sans-serif;font-size:13px;inline-size:0px;outline-color:rgb(59, 59, 59);perspective-origin:0px 75px;scrollbar-color:rgba(100, 100, 100, 0.4) rgb(255, 255, 255);text-decoration:none solid rgb(59, 59, 59);text-decoration-color:rgb(59, 59, 59);text-emphasis-color:rgb(59, 59, 59);transform-origin:0px 75px;-webkit-locale:&quot;en&quot;;-webkit-text-fill-color:rgb(59, 59, 59);-webkit-text-stroke-color:rgb(59, 59, 59);" version="1.1" viewBox="12 12 1019.6961822509766 395.22222328186035"><g transform="scale(1) translate(0,0)"><g id="stpa_0_relationships" class="parent" transform="translate(12, 12)"><rect x="0" y="0" width="1019.6961822509766" height="395.22222328186035" class="print-node" style="fill:rgb(255, 255, 255);stroke:rgb(0, 0, 0);"> </rect><g aspect="0" id="stpa_0_L1" class="stpa-node stpa" transform="translate(33, 12)" style="fill:rgb(255, 255, 255);stroke:rgb(255, 40, 40);stroke-width:2px;"><g><rect x="0" y="0" width="150" height="24.44444465637207"/></g><text class="label sprotty-label" id="stpa_0_L1_label" transform="translate(67.76909685134888, 5) translate(0, 11.666666984558105)" style="cursor:default;fill:rgb(0, 0, 0);font-family:Arial, sans-serif;stroke-width:0px;">L1</text><g id="stpa_0_H1_L1_newTransition1" class="pasta" transform="translate(10, 24.44444465637207)"/><g id="stpa_0_H2_L1_newTransition1" class="pasta" transform="translate(60, 24.44444465637207)"/><g id="stpa_0_H3_L1_newTransition1" class="pasta" transform="translate(100, 24.44444465637207)"/><g id="stpa_0_H4_L1_newTransition1" class="pasta" transform="translate(110, 24.44444465637207)"/><g id="stpa_0_H5_L1_newTransition1" class="pasta" transform="translate(120, 24.44444465637207)"/><g id="stpa_0_H6_L1_newTransition1" class="pasta" transform="translate(130, 24.44444465637207)"/><g id="stpa_0_H7_L1_newTransition1" class="pasta" transform="translate(140, 24.44444465637207)"/></g><g aspect="0" id="stpa_0_L2" class="stpa-node stpa" transform="translate(203, 12)" style="fill:rgb(255, 255, 255);stroke:rgb(255, 40, 40);stroke-width:2px;"><g><rect x="0" y="0" width="224" height="24.44444465637207"/></g><text class="label sprotty-label" id="stpa_0_L2_label" transform="translate(104.76909685134888, 5) translate(0, 11.666666984558105)" style="cursor:default;fill:rgb(0, 0, 0);font-family:Arial, sans-serif;stroke-width:0px;">L2</text><g id="stpa_0_H1_L2_newTransition1" class="pasta" transform="translate(10, 24.44444465637207)"/><g id="stpa_0_H2_L2_newTransition1" class="pasta" transform="translate(20, 24.44444465637207)"/><g id="stpa_0_H3_L2_newTransition1" class="pasta" transform="translate(30, 24.44444465637207)"/><g id="stpa_0_H4_L2_newTransition1" class="pasta" transform="translate(40, 24.44444465637207)"/><g id="stpa_0_H5_L2_newTransition1" class="pasta" transform="translate(50, 24.44444465637207)"/><g id="stpa_0_H6_L2_newTransition1" class="pasta" transform="translate(152, 24.44444465637207)"/><g id="stpa_0_H7_L2_newTransition1" class="pasta" transform="translate(214, 24.44444465637207)"/></g><g id="stpa_0_H1_L1" class="sprotty-edge stpa" style="fill:none;stroke:rgb(0, 0, 0);stroke-width:2px;"><path aspect="0" d="M 43,158.1666669845581 L 43,36.44444465637207" class="stpa-edge" style="stroke:rgb(255, 40, 40);"/><path aspect="0" d="M 6,-3 L 0,0 L 6,3 Z" transform="rotate(90 43 36.44444465637207) translate(43 36.44444465637207)" class="stpa-edge-arrow" style="fill:rgb(255, 40, 40);stroke:rgb(255, 40, 40);"/></g><g id="stpa_0_H1_L2" class="sprotty-edge stpa" style="fill:none;stroke:rgb(0, 0, 0);stroke-width:2px;"><path aspect="0" d="M 53,158.1666669845581 L 53,46.44444465637207 L 213,46.44444465637207 L 213,36.44444465637207" class="stpa-edge" style="stroke:rgb(255, 40, 40);"/><path aspect="0" d="M 6,-3 L 0,0 L 6,3 Z" transform="rotate(90 213 36.44444465637207) translate(213 36.44444465637207)" class="stpa-edge-arrow" style="fill:rgb(255, 40, 40);stroke:rgb(255, 40, 40);"/></g><g aspect="0" id="stpa_0_H1" class="stpa-node stpa" transform="translate(33, 158.1666669845581)" style="fill:rgb(255, 255, 255);stroke:rgb(255, 40, 40);stroke-width:2px;"><g><rect x="0" y="0" rx="5" ry="5" width="30" height="24.44444465637207"/></g><text class="label sprotty-label" id="stpa_0_H1_label" transform="translate(6.68836784362793, 5) translate(0, 11.666666984558105)" style="cursor:default;fill:rgb(0, 0, 0);font-family:Arial, sans-serif;stroke-width:0px;">H1</text><g id="stpa_0_H1_L1_newTransition" class="pasta" transform="translate(10, 0)"/><g id="stpa_0_H1_L2_newTransition" class="pasta" transform="translate(20, 0)"/></g><g id="stpa_0_H2_L1" class="sprotty-edge stpa" style="fill:none;stroke:rgb(0, 0, 0);stroke-width:2px;"><path aspect="0" d="M 93,158.1666669845581 L 93,36.44444465637207" class="stpa-edge" style="stroke:rgb(255, 40, 40);"/><path aspect="0" d="M 6,-3 L 0,0 L 6,3 Z" transform="rotate(90 93 36.44444465637207) translate(93 36.44444465637207)" class="stpa-edge-arrow" style="fill:rgb(255, 40, 40);stroke:rgb(255, 40, 40);"/></g><g id="stpa_0_H2_L2" class="sprotty-edge stpa" style="fill:none;stroke:rgb(0, 0, 0);stroke-width:2px;"><path aspect="0" d="M 103,158.1666669845581 L 103,66.44444465637207 L 223,66.44444465637207 L 223,36.44444465637207" class="stpa-edge" style="stroke:rgb(255, 40, 40);"/><path aspect="0" d="M 6,-3 L 0,0 L 6,3 Z" transform="rotate(90 223 36.44444465637207) translate(223 36.44444465637207)" class="stpa-edge-arrow" style="fill:rgb(255, 40, 40);stroke:rgb(255, 40, 40);"/></g><g aspect="0" id="stpa_0_H2" class="stpa-node stpa" transform="translate(83, 158.1666669845581)" style="fill:rgb(255, 255, 255);stroke:rgb(255, 40, 40);stroke-width:2px;"><g><rect x="0" y="0" rx="5" ry="5" width="30" height="24.44444465637207"/></g><text class="label sprotty-label" id="stpa_0_H2_label" transform="translate(6.68836784362793, 5) translate(0, 11.666666984558105)" style="cursor:default;fill:rgb(0, 0, 0);font-family:Arial, sans-serif;stroke-width:0px;">H2</text><g id="stpa_0_H2_L1_newTransition" class="pasta" transform="translate(10, 0)"/><g id="stpa_0_H2_L2_newTransition" class="pasta" transform="translate(20, 0)"/><g id="stpa_0_UCA3_H2_newTransition1" class="pasta" transform="translate(10, 24.44444465637207)"/><g id="stpa_0_UCA14_H2_newTransition1" class="pasta" transform="translate(20, 24.44444465637207)"/></g><g id="stpa_0_H3_L1" class="sprotty-edge stpa" style="fill:none;stroke:rgb(0, 0, 0);stroke-width:2px;"><path aspect="0" d="M 143,158.1666669845581 L 143,126.44444465637207 L 133,126.44444465637207 L 133,36.44444465637207" class="stpa-edge" style="stroke:rgb(255, 40, 40);"/><path aspect="0" d="M 6,-3 L 0,0 L 6,3 Z" transform="rotate(90 133 36.44444465637207) translate(133 36.44444465637207)" class="stpa-edge-arrow" style="fill:rgb(255, 40, 40);stroke:rgb(255, 40, 40);"/></g><g id="stpa_0_H3_L2" class="sprotty-edge stpa" style="fill:none;stroke:rgb(0, 0, 0);stroke-width:2px;"><path aspect="0" d="M 153,158.1666669845581 L 153,106.44444465637207 L 233,106.44444465637207 L 233,36.44444465637207" class="stpa-edge" style="stroke:rgb(255, 40, 40);"/><path aspect="0" d="M 6,-3 L 0,0 L 6,3 Z" transform="rotate(90 233 36.44444465637207) translate(233 36.44444465637207)" class="stpa-edge-arrow" style="fill:rgb(255, 40, 40);stroke:rgb(255, 40, 40);"/></g><g aspect="0" id="stpa_0_H3" class="stpa-node stpa" transform="translate(133, 158.1666669845581)" style="fill:rgb(255, 255, 255);stroke:rgb(255, 40, 40);stroke-width:2px;"><g><rect x="0" y="0" rx="5" ry="5" width="30" height="24.44444465637207"/></g><text class="label sprotty-label" id="stpa_0_H3_label" transform="translate(6.68836784362793, 5) translate(0, 11.666666984558105)" style="cursor:default;fill:rgb(0, 0, 0);font-family:Arial, sans-serif;stroke-width:0px;">H3</text><g id="stpa_0_H3_L1_newTransition" class="pasta" transform="translate(10, 0)"/><g id="stpa_0_H3_L2_newTransition" class="pasta" transform="translate(20, 0)"/><g id="stpa_0_UCA3_H3_newTransition1" class="pasta" transform="translate(10, 24.44444465637207)"/><g id="stpa_0_UCA13_H3_newTransition1" class="pasta" transform="translate(20, 24.44444465637207)"/></g><g id="stpa_0_H4_L1" class="sprotty-edge stpa" style="fill:none;stroke:rgb(0, 0, 0);stroke-width:2px;"><path aspect="0" d="M 193,158.1666669845581 L 193,116.44444465637207 L 143,116.44444465637207 L 143,36.44444465637207" class="stpa-edge" style="stroke:rgb(255, 40, 40);"/><path aspect="0" d="M 6,-3 L 0,0 L 6,3 Z" transform="rotate(90 143 36.44444465637207) translate(143 36.44444465637207)" class="stpa-edge-arrow" style="fill:rgb(255, 40, 40);stroke:rgb(255, 40, 40);"/></g><g id="stpa_0_H4_L2" class="sprotty-edge stpa" style="fill:none;stroke:rgb(0, 0, 0);stroke-width:2px;"><path aspect="0" d="M 203,158.1666669845581 L 203,86.44444465637207 L 243,86.44444465637207 L 243,36.44444465637207" class="stpa-edge" style="stroke:rgb(255, 40, 40);"/><path aspect="0" d="M 6,-3 L 0,0 L 6,3 Z" transform="rotate(90 243 36.44444465637207) translate(243 36.44444465637207)" class="stpa-edge-arrow" style="fill:rgb(255, 40, 40);stroke:rgb(255, 40, 40);"/></g><g aspect="0" id="stpa_0_H4" class="stpa-node stpa" transform="translate(183, 158.1666669845581)" style="fill:rgb(255, 255, 255);stroke:rgb(255, 40, 40);stroke-width:2px;"><g><rect x="0" y="0" rx="5" ry="5" width="30" height="24.44444465637207"/></g><text class="label sprotty-label" id="stpa_0_H4_label" transform="translate(6.68836784362793, 5) translate(0, 11.666666984558105)" style="cursor:default;fill:rgb(0, 0, 0);font-family:Arial, sans-serif;stroke-width:0px;">H4</text><g id="stpa_0_H4_L1_newTransition" class="pasta" transform="translate(10, 0)"/><g id="stpa_0_H4_L2_newTransition" class="pasta" transform="translate(20, 0)"/></g><g id="stpa_0_H5_L1" class="sprotty-edge stpa" style="fill:none;stroke:rgb(0, 0, 0);stroke-width:2px;"><path aspect="0" d="M 243,158.1666669845581 L 243,96.44444465637207 L 153,96.44444465637207 L 153,36.44444465637207" class="stpa-edge" style="stroke:rgb(255, 40, 40);"/><path aspect="0" d="M 6,-3 L 0,0 L 6,3 Z" transform="rotate(90 153 36.44444465637207) translate(153 36.44444465637207)" class="stpa-edge-arrow" style="fill:rgb(255, 40, 40);stroke:rgb(255, 40, 40);"/></g><g id="stpa_0_H5_L2" class="sprotty-edge stpa" style="fill:none;stroke:rgb(0, 0, 0);stroke-width:2px;"><path aspect="0" d="M 253,158.1666669845581 L 253,36.44444465637207" class="stpa-edge" style="stroke:rgb(255, 40, 40);"/><path aspect="0" d="M 6,-3 L 0,0 L 6,3 Z" transform="rotate(90 253 36.44444465637207) translate(253 36.44444465637207)" class="stpa-edge-arrow" style="fill:rgb(255, 40, 40);stroke:rgb(255, 40, 40);"/></g><g aspect="0" id="stpa_0_H5" class="stpa-node stpa" transform="translate(233, 158.1666669845581)" style="fill:rgb(255, 255, 255);stroke:rgb(255, 40, 40);stroke-width:2px;"><g><rect x="0" y="0" rx="5" ry="5" width="30" height="24.44444465637207"/></g><text class="label sprotty-label" id="stpa_0_H5_label" transform="translate(6.68836784362793, 5) translate(0, 11.666666984558105)" style="cursor:default;fill:rgb(0, 0, 0);font-family:Arial, sans-serif;stroke-width:0px;">H5</text><g id="stpa_0_H5_L1_newTransition" class="pasta" transform="translate(10, 0)"/><g id="stpa_0_H5_L2_newTransition" class="pasta" transform="translate(20, 0)"/></g><g id="stpa_0_H6_L1" class="sprotty-edge stpa" style="fill:none;stroke:rgb(0, 0, 0);stroke-width:2px;"><path aspect="0" d="M 293,158.1666669845581 L 293,76.44444465637207 L 163,76.44444465637207 L 163,36.44444465637207" class="stpa-edge" style="stroke:rgb(255, 40, 40);"/><path aspect="0" d="M 6,-3 L 0,0 L 6,3 Z" transform="rotate(90 163 36.44444465637207) translate(163 36.44444465637207)" class="stpa-edge-arrow" style="fill:rgb(255, 40, 40);stroke:rgb(255, 40, 40);"/></g><g id="stpa_0_H6_L2" class="sprotty-edge stpa" style="fill:none;stroke:rgb(0, 0, 0);stroke-width:2px;"><path aspect="0" d="M 355,158.1666669845581 L 355,36.44444465637207" class="stpa-edge" style="stroke:rgb(255, 40, 40);"/><path aspect="0" d="M 6,-3 L 0,0 L 6,3 Z" transform="rotate(90 355 36.44444465637207) translate(355 36.44444465637207)" class="stpa-edge-arrow" style="fill:rgb(255, 40, 40);stroke:rgb(255, 40, 40);"/></g><g aspect="0" id="stpa_0_H6" class="stpa-node stpa" transform="translate(283, 158.1666669845581)" style="fill:rgb(255, 255, 255);stroke:rgb(255, 40, 40);stroke-width:2px;"><g><rect x="0" y="0" rx="5" ry="5" width="82" height="24.44444465637207"/></g><text class="label sprotty-label" id="stpa_0_H6_label" transform="translate(32.68836784362793, 5) translate(0, 11.666666984558105)" style="cursor:default;fill:rgb(0, 0, 0);font-family:Arial, sans-serif;stroke-width:0px;">H6</text><g id="stpa_0_H6_L1_newTransition" class="pasta" transform="translate(10, 0)"/><g id="stpa_0_H6_L2_newTransition" class="pasta" transform="translate(72, 0)"/><g id="stpa_0_UCA1_H6_newTransition1" class="pasta" transform="translate(10, 24.44444465637207)"/><g id="stpa_0_UCA7_H6_newTransition1" class="pasta" transform="translate(20, 24.44444465637207)"/><g id="stpa_0_UCA11_H6_newTransition1" class="pasta" transform="translate(72, 24.44444465637207)"/></g><g id="stpa_0_H7_L1" class="sprotty-edge stpa" style="fill:none;stroke:rgb(0, 0, 0);stroke-width:2px;"><path aspect="0" d="M 407,136.44444465637207 L 407,56.44444465637207 L 173,56.44444465637207 L 173,36.44444465637207" class="stpa-edge" style="stroke:rgb(255, 40, 40);"/><path aspect="0" d="M 6,-3 L 0,0 L 6,3 Z" transform="rotate(90 173 36.44444465637207) translate(173 36.44444465637207)" class="stpa-edge-arrow" style="fill:rgb(255, 40, 40);stroke:rgb(255, 40, 40);"/></g><g id="stpa_0_H7_L2" class="sprotty-edge stpa" style="fill:none;stroke:rgb(0, 0, 0);stroke-width:2px;"><path aspect="0" d="M 417,136.44444465637207 L 417,36.44444465637207" class="stpa-edge" style="stroke:rgb(255, 40, 40);"/><path aspect="0" d="M 6,-3 L 0,0 L 6,3 Z" transform="rotate(90 417 36.44444465637207) translate(417 36.44444465637207)" class="stpa-edge-arrow" style="fill:rgb(255, 40, 40);stroke:rgb(255, 40, 40);"/></g><g aspect="0" id="stpa_0_H7" class="stpa-node stpa" transform="translate(385, 136.44444465637207)" style="fill:rgb(255, 255, 255);stroke:rgb(255, 40, 40);stroke-width:2px;"><g><rect x="0" y="0" rx="5" ry="5" width="622.6961822509766" height="67.88888931274414"/></g><text class="label sprotty-label" id="stpa_0_H7_label" transform="translate(303.0364589691162, 5) translate(0, 11.666666984558105)" style="cursor:default;fill:rgb(0, 0, 0);font-family:Arial, sans-serif;stroke-width:0px;">H7</text><g aspect="0" id="stpa_0_H7_1" class="stpa-node stpa" transform="translate(12, 31.44444465637207)"><g><rect x="0" y="0" rx="5" ry="5" width="70" height="24.44444465637207"/></g><text class="label sprotty-label" id="stpa_0_H7_1_label" transform="translate(21.26736068725586, 5) translate(0, 11.666666984558105)" style="cursor:default;fill:rgb(0, 0, 0);font-family:Arial, sans-serif;stroke-width:0px;">H7.1</text><g id="stpa_0_UCA2_H7_1_newTransition" class="pasta" transform="translate(10, 24.44444465637207)"/><g id="stpa_0_UCA6_H7_1_newTransition" class="pasta" transform="translate(20, 24.44444465637207)"/><g id="stpa_0_UCA7_H7_1_newTransition" class="pasta" transform="translate(30, 24.44444465637207)"/><g id="stpa_0_UCA9_H7_1_newTransition" class="pasta" transform="translate(40, 24.44444465637207)"/><g id="stpa_0_UCA10_H7_1_newTransition" class="pasta" transform="translate(50, 24.44444465637207)"/><g id="stpa_0_UCA11_H7_1_newTransition" class="pasta" transform="translate(60, 24.44444465637207)"/></g><g aspect="0" id="stpa_0_H7_2" class="stpa-node stpa" transform="translate(102, 31.44444465637207)"><g><rect x="0" y="0" rx="5" ry="5" width="37.46527862548828" height="24.44444465637207"/></g><text class="label sprotty-label" id="stpa_0_H7_2_label" transform="translate(5, 5) translate(0, 11.666666984558105)" style="cursor:default;fill:rgb(0, 0, 0);font-family:Arial, sans-serif;stroke-width:0px;">H7.2</text></g><g aspect="0" id="stpa_0_H7_3" class="stpa-node stpa" transform="translate(160, 31.44444465637207)"><g><rect x="0" y="0" rx="5" ry="5" width="38" height="24.44444465637207"/></g><text class="label sprotty-label" id="stpa_0_H7_3_label" transform="translate(5.267360687255859, 5) translate(0, 11.666666984558105)" style="cursor:default;fill:rgb(0, 0, 0);font-family:Arial, sans-serif;stroke-width:0px;">H7.3</text><g id="stpa_0_UCA8_H7_3_newTransition" class="pasta" transform="translate(10, 24.44444465637207)"/><g id="stpa_0_UCA12_H7_3_newTransition" class="pasta" transform="translate(20, 24.44444465637207)"/></g><g aspect="0" id="stpa_0_H7_4" class="stpa-node stpa" transform="translate(218, 31.44444465637207)"><g><rect x="0" y="0" rx="5" ry="5" width="37.46527862548828" height="24.44444465637207"/></g><text class="label sprotty-label" id="stpa_0_H7_4_label" transform="translate(5, 5) translate(0, 11.666666984558105)" style="cursor:default;fill:rgb(0, 0, 0);font-family:Arial, sans-serif;stroke-width:0px;">H7.4</text></g><g aspect="0" id="stpa_0_H7_5" class="stpa-node stpa" transform="translate(276, 31.44444465637207)"><g><rect x="0" y="0" rx="5" ry="5" width="37.46527862548828" height="24.44444465637207"/></g><text class="label sprotty-label" id="stpa_0_H7_5_label" transform="translate(5, 5) translate(0, 11.666666984558105)" style="cursor:default;fill:rgb(0, 0, 0);font-family:Arial, sans-serif;stroke-width:0px;">H7.5</text></g><g aspect="0" id="stpa_0_H7_6" class="stpa-node stpa" transform="translate(334, 31.44444465637207)"><g><rect x="0" y="0" rx="5" ry="5" width="37.46527862548828" height="24.44444465637207"/></g><text class="label sprotty-label" id="stpa_0_H7_6_label" transform="translate(5, 5) translate(0, 11.666666984558105)" style="cursor:default;fill:rgb(0, 0, 0);font-family:Arial, sans-serif;stroke-width:0px;">H7.6</text><g id="stpa_0_UCA2_H7_6_newTransition" class="pasta" transform="translate(19, 24.44444465637207)"/></g><g aspect="0" id="stpa_0_H7_7" class="stpa-node stpa" transform="translate(392, 31.44444465637207)"><g><rect x="0" y="0" rx="5" ry="5" width="37.46527862548828" height="24.44444465637207"/></g><text class="label sprotty-label" id="stpa_0_H7_7_label" transform="translate(5, 5) translate(0, 11.666666984558105)" style="cursor:default;fill:rgb(0, 0, 0);font-family:Arial, sans-serif;stroke-width:0px;">H7.7</text><g id="stpa_0_UCA6_H7_7_newTransition" class="pasta" transform="translate(19, 24.44444465637207)"/></g><g aspect="0" id="stpa_0_H7_8" class="stpa-node stpa" transform="translate(450, 31.44444465637207)"><g><rect x="0" y="0" rx="5" ry="5" width="37.46527862548828" height="24.44444465637207"/></g><text class="label sprotty-label" id="stpa_0_H7_8_label" transform="translate(5, 5) translate(0, 11.666666984558105)" style="cursor:default;fill:rgb(0, 0, 0);font-family:Arial, sans-serif;stroke-width:0px;">H7.8</text><g id="stpa_0_UCA5_H7_8_newTransition" class="pasta" transform="translate(19, 24.44444465637207)"/></g><g aspect="0" id="stpa_0_H7_9" class="stpa-node stpa" transform="translate(508, 31.44444465637207)"><g><rect x="0" y="0" rx="5" ry="5" width="38" height="24.44444465637207"/></g><text class="label sprotty-label" id="stpa_0_H7_9_label" transform="translate(5.267360687255859, 5) translate(0, 11.666666984558105)" style="cursor:default;fill:rgb(0, 0, 0);font-family:Arial, sans-serif;stroke-width:0px;">H7.9</text><g id="stpa_0_UCA1_H7_9_newTransition" class="pasta" transform="translate(10, 24.44444465637207)"/><g id="stpa_0_UCA4_H7_9_newTransition" class="pasta" transform="translate(20, 24.44444465637207)"/></g><g aspect="0" id="stpa_0_H7_10" class="stpa-node stpa" transform="translate(566, 31.44444465637207)"><g><rect x="0" y="0" rx="5" ry="5" width="44.69618225097656" height="24.44444465637207"/></g><text class="label sprotty-label" id="stpa_0_H7_10_label" transform="translate(5, 5) translate(0, 11.666666984558105)" style="cursor:default;fill:rgb(0, 0, 0);font-family:Arial, sans-serif;stroke-width:0px;">H7.10</text></g><g id="stpa_0_H7_L1_newTransition" class="pasta" transform="translate(22, 0)"/><g id="stpa_0_H7_L2_newTransition" class="pasta" transform="translate(32, 0)"/><g id="stpa_0_UCA1_H7_9_newTransition1" class="pasta" transform="translate(518, 67.88888931274414)"/><g id="stpa_0_UCA1_H7_91" class="sprotty-edge stpa" style="fill:none;stroke:rgb(0, 0, 0);"><path aspect="4" d="M 518,67.88888931274414 L 518,55.88888931274414" class="stpa-edge" style="stroke:rgb(102, 179, 255);"/><path aspect="4" d="M 6,-3 L 0,0 L 6,3 Z" transform="rotate(90 518 55.88888931274414) translate(518 55.88888931274414)" class="stpa-edge-arrow" style="fill:rgb(102, 179, 255);stroke:rgb(102, 179, 255);"/></g><g id="stpa_0_UCA2_H7_1_newTransition1" class="pasta" transform="translate(22, 67.88888931274414)"/><g id="stpa_0_UCA2_H7_11" class="sprotty-edge stpa" style="fill:none;stroke:rgb(0, 0, 0);"><path aspect="4" d="M 22,67.88888931274414 L 22,55.88888931274414" class="stpa-edge" style="stroke:rgb(102, 179, 255);"/><path aspect="4" d="M 6,-3 L 0,0 L 6,3 Z" transform="rotate(90 22 55.88888931274414) translate(22 55.88888931274414)" class="stpa-edge-arrow" style="fill:rgb(102, 179, 255);stroke:rgb(102, 179, 255);"/></g><g id="stpa_0_UCA2_H7_6_newTransition1" class="pasta" transform="translate(353, 67.88888931274414)"/><g id="stpa_0_UCA2_H7_61" class="sprotty-edge stpa" style="fill:none;stroke:rgb(0, 0, 0);"><path aspect="4" d="M 353,67.88888931274414 L 353,55.88888931274414" class="stpa-edge" style="stroke:rgb(102, 179, 255);"/><path aspect="4" d="M 6,-3 L 0,0 L 6,3 Z" transform="rotate(90 353 55.88888931274414) translate(353 55.88888931274414)" class="stpa-edge-arrow" style="fill:rgb(102, 179, 255);stroke:rgb(102, 179, 255);"/></g><g id="stpa_0_UCA4_H7_9_newTransition1" class="pasta" transform="translate(528, 67.88888931274414)"/><g id="stpa_0_UCA4_H7_91" class="sprotty-edge stpa" style="fill:none;stroke:rgb(0, 0, 0);"><path aspect="4" d="M 528,67.88888931274414 L 528,55.88888931274414" class="stpa-edge" style="stroke:rgb(102, 179, 255);"/><path aspect="4" d="M 6,-3 L 0,0 L 6,3 Z" transform="rotate(90 528 55.88888931274414) translate(528 55.88888931274414)" class="stpa-edge-arrow" style="fill:rgb(102, 179, 255);stroke:rgb(102, 179, 255);"/></g><g id="stpa_0_UCA5_H7_8_newTransition1" class="pasta" transform="translate(469, 67.88888931274414)"/><g id="stpa_0_UCA5_H7_81" class="sprotty-edge stpa" style="fill:none;stroke:rgb(0, 0, 0);"><path aspect="4" d="M 469,67.88888931274414 L 469,55.88888931274414" class="stpa-edge" style="stroke:rgb(102, 179, 255);"/><path aspect="4" d="M 6,-3 L 0,0 L 6,3 Z" transform="rotate(90 469 55.88888931274414) translate(469 55.88888931274414)" class="stpa-edge-arrow" style="fill:rgb(102, 179, 255);stroke:rgb(102, 179, 255);"/></g><g id="stpa_0_UCA6_H7_1_newTransition1" class="pasta" transform="translate(32, 67.88888931274414)"/><g id="stpa_0_UCA6_H7_11" class="sprotty-edge stpa" style="fill:none;stroke:rgb(0, 0, 0);"><path aspect="4" d="M 32,67.88888931274414 L 32,55.88888931274414" class="stpa-edge" style="stroke:rgb(102, 179, 255);"/><path aspect="4" d="M 6,-3 L 0,0 L 6,3 Z" transform="rotate(90 32 55.88888931274414) translate(32 55.88888931274414)" class="stpa-edge-arrow" style="fill:rgb(102, 179, 255);stroke:rgb(102, 179, 255);"/></g><g id="stpa_0_UCA6_H7_7_newTransition1" class="pasta" transform="translate(411, 67.88888931274414)"/><g id="stpa_0_UCA6_H7_71" class="sprotty-edge stpa" style="fill:none;stroke:rgb(0, 0, 0);"><path aspect="4" d="M 411,67.88888931274414 L 411,55.88888931274414" class="stpa-edge" style="stroke:rgb(102, 179, 255);"/><path aspect="4" d="M 6,-3 L 0,0 L 6,3 Z" transform="rotate(90 411 55.88888931274414) translate(411 55.88888931274414)" class="stpa-edge-arrow" style="fill:rgb(102, 179, 255);stroke:rgb(102, 179, 255);"/></g><g id="stpa_0_UCA7_H7_1_newTransition1" class="pasta" transform="translate(42, 67.88888931274414)"/><g id="stpa_0_UCA7_H7_11" class="sprotty-edge stpa" style="fill:none;stroke:rgb(0, 0, 0);"><path aspect="4" d="M 42,67.88888931274414 L 42,55.88888931274414" class="stpa-edge" style="stroke:rgb(102, 179, 255);"/><path aspect="4" d="M 6,-3 L 0,0 L 6,3 Z" transform="rotate(90 42 55.88888931274414) translate(42 55.88888931274414)" class="stpa-edge-arrow" style="fill:rgb(102, 179, 255);stroke:rgb(102, 179, 255);"/></g><g id="stpa_0_UCA8_H7_3_newTransition1" class="pasta" transform="translate(170, 67.88888931274414)"/><g id="stpa_0_UCA8_H7_31" class="sprotty-edge stpa" style="fill:none;stroke:rgb(0, 0, 0);"><path aspect="4" d="M 170,67.88888931274414 L 170,55.88888931274414" class="stpa-edge" style="stroke:rgb(102, 179, 255);"/><path aspect="4" d="M 6,-3 L 0,0 L 6,3 Z" transform="rotate(90 170 55.88888931274414) translate(170 55.88888931274414)" class="stpa-edge-arrow" style="fill:rgb(102, 179, 255);stroke:rgb(102, 179, 255);"/></g><g id="stpa_0_UCA9_H7_1_newTransition1" class="pasta" transform="translate(52, 67.88888931274414)"/><g id="stpa_0_UCA9_H7_11" class="sprotty-edge stpa" style="fill:none;stroke:rgb(0, 0, 0);"><path aspect="4" d="M 52,67.88888931274414 L 52,55.88888931274414" class="stpa-edge" style="stroke:rgb(102, 179, 255);"/><path aspect="4" d="M 6,-3 L 0,0 L 6,3 Z" transform="rotate(90 52 55.88888931274414) translate(52 55.88888931274414)" class="stpa-edge-arrow" style="fill:rgb(102, 179, 255);stroke:rgb(102, 179, 255);"/></g><g id="stpa_0_UCA10_H7_1_newTransition1" class="pasta" transform="translate(62, 67.88888931274414)"/><g id="stpa_0_UCA10_H7_11" class="sprotty-edge stpa" style="fill:none;stroke:rgb(0, 0, 0);"><path aspect="4" d="M 62,67.88888931274414 L 62,55.88888931274414" class="stpa-edge" style="stroke:rgb(102, 179, 255);"/><path aspect="4" d="M 6,-3 L 0,0 L 6,3 Z" transform="rotate(90 62 55.88888931274414) translate(62 55.88888931274414)" class="stpa-edge-arrow" style="fill:rgb(102, 179, 255);stroke:rgb(102, 179, 255);"/></g><g id="stpa_0_UCA11_H7_1_newTransition1" class="pasta" transform="translate(72, 67.88888931274414)"/><g id="stpa_0_UCA11_H7_11" class="sprotty-edge stpa" style="fill:none;stroke:rgb(0, 0, 0);"><path aspect="4" d="M 72,67.88888931274414 L 72,55.88888931274414" class="stpa-edge" style="stroke:rgb(102, 179, 255);"/><path aspect="4" d="M 6,-3 L 0,0 L 6,3 Z" transform="rotate(90 72 55.88888931274414) translate(72 55.88888931274414)" class="stpa-edge-arrow" style="fill:rgb(102, 179, 255);stroke:rgb(102, 179, 255);"/></g><g id="stpa_0_UCA12_H7_3_newTransition1" class="pasta" transform="translate(180, 67.88888931274414)"/><g id="stpa_0_UCA12_H7_31" class="sprotty-edge stpa" style="fill:none;stroke:rgb(0, 0, 0);"><path aspect="4" d="M 180,67.88888931274414 L 180,55.88888931274414" class="stpa-edge" style="stroke:rgb(102, 179, 255);"/><path aspect="4" d="M 6,-3 L 0,0 L 6,3 Z" transform="rotate(90 180 55.88888931274414) translate(180 55.88888931274414)" class="stpa-edge-arrow" style="fill:rgb(102, 179, 255);stroke:rgb(102, 179, 255);"/></g></g><g id="stpa_0_UCA1_H6" class="sprotty-edge stpa" style="fill:none;stroke:rgb(0, 0, 0);stroke-width:2px;"><path aspect="4" d="M 246,314.3333339691162 L 246,294.3333339691162 L 293,294.3333339691162 L 293,182.61111164093018" class="stpa-edge" style="stroke:rgb(102, 179, 255);"/><path aspect="4" d="M 6,-3 L 0,0 L 6,3 Z" transform="rotate(90 293 182.61111164093018) translate(293 182.61111164093018)" class="stpa-edge-arrow" style="fill:rgb(102, 179, 255);stroke:rgb(102, 179, 255);"/></g><g id="stpa_0_UCA1_H7_9" class="sprotty-edge stpa-intermediate" style="fill:none;stroke:rgb(0, 0, 0);stroke-width:2px;"><path aspect="4" d="M 256,314.3333339691162 L 256,304.3333339691162 L 903,304.3333339691162 L 903,204.3333339691162" class="stpa-edge" style="stroke:rgb(102, 179, 255);"/></g><g aspect="4" id="stpa_0_UCA1" class="stpa-node stpa" transform="translate(221, 314.3333339691162)" style="fill:rgb(255, 255, 255);stroke:rgb(102, 179, 255);stroke-width:2px;"><g><rect x="0" y="0" width="45" height="24.44444465637207"/></g><text class="label sprotty-label" id="stpa_0_UCA1_label" transform="translate(5.160589218139648, 5) translate(0, 11.666666984558105)" style="cursor:default;fill:rgb(0, 0, 0);font-family:Arial, sans-serif;stroke-width:0px;">UCA1</text><g id="stpa_0_UCA1_H6_newTransition" class="pasta" transform="translate(25, 0)"/><g id="stpa_0_UCA1_H7_9_newTransition2" class="pasta" transform="translate(35, 0)"/><g id="stpa_0_C1_UCA1_newTransition1" class="pasta" transform="translate(10, 24.44444465637207)"/></g><g id="stpa_0_UCA2_H7_1" class="sprotty-edge stpa-intermediate" style="fill:none;stroke:rgb(0, 0, 0);stroke-width:2px;"><path aspect="4" d="M 376,314.3333339691162 L 376,224.3333339691162 L 407,224.3333339691162 L 407,204.3333339691162" class="stpa-edge" style="stroke:rgb(102, 179, 255);"/></g><g id="stpa_0_UCA2_H7_6" class="sprotty-edge stpa-intermediate" style="fill:none;stroke:rgb(0, 0, 0);stroke-width:2px;"><path aspect="4" d="M 386,314.3333339691162 L 386,234.3333339691162 L 738,234.3333339691162 L 738,204.3333339691162" class="stpa-edge" style="stroke:rgb(102, 179, 255);"/></g><g aspect="4" id="stpa_0_UCA2" class="stpa-node stpa" transform="translate(351, 314.3333339691162)" style="fill:rgb(255, 255, 255);stroke:rgb(102, 179, 255);stroke-width:2px;"><g><rect x="0" y="0" width="45" height="24.44444465637207"/></g><text class="label sprotty-label" id="stpa_0_UCA2_label" transform="translate(5.160589218139648, 5) translate(0, 11.666666984558105)" style="cursor:default;fill:rgb(0, 0, 0);font-family:Arial, sans-serif;stroke-width:0px;">UCA2</text><g id="stpa_0_UCA2_H7_1_newTransition2" class="pasta" transform="translate(25, 0)"/><g id="stpa_0_UCA2_H7_6_newTransition2" class="pasta" transform="translate(35, 0)"/></g><g id="stpa_0_UCA3_H2" class="sprotty-edge stpa" style="fill:none;stroke:rgb(0, 0, 0);stroke-width:2px;"><path aspect="4" d="M 37,314.3333339691162 L 37,294.3333339691162 L 93,294.3333339691162 L 93,182.61111164093018" class="stpa-edge" style="stroke:rgb(102, 179, 255);"/><path aspect="4" d="M 6,-3 L 0,0 L 6,3 Z" transform="rotate(90 93 182.61111164093018) translate(93 182.61111164093018)" class="stpa-edge-arrow" style="fill:rgb(102, 179, 255);stroke:rgb(102, 179, 255);"/></g><g id="stpa_0_UCA3_H3" class="sprotty-edge stpa" style="fill:none;stroke:rgb(0, 0, 0);stroke-width:2px;"><path aspect="4" d="M 47,314.3333339691162 L 47,304.3333339691162 L 143,304.3333339691162 L 143,182.61111164093018" class="stpa-edge" style="stroke:rgb(102, 179, 255);"/><path aspect="4" d="M 6,-3 L 0,0 L 6,3 Z" transform="rotate(90 143 182.61111164093018) translate(143 182.61111164093018)" class="stpa-edge-arrow" style="fill:rgb(102, 179, 255);stroke:rgb(102, 179, 255);"/></g><g aspect="4" id="stpa_0_UCA3" class="stpa-node stpa" transform="translate(12, 314.3333339691162)" style="fill:rgb(255, 255, 255);stroke:rgb(102, 179, 255);stroke-width:2px;"><g><rect x="0" y="0" width="45" height="24.44444465637207"/></g><text class="label sprotty-label" id="stpa_0_UCA3_label" transform="translate(5.160589218139648, 5) translate(0, 11.666666984558105)" style="cursor:default;fill:rgb(0, 0, 0);font-family:Arial, sans-serif;stroke-width:0px;">UCA3</text><g id="stpa_0_UCA3_H2_newTransition" class="pasta" transform="translate(25, 0)"/><g id="stpa_0_UCA3_H3_newTransition" class="pasta" transform="translate(35, 0)"/></g><g id="stpa_0_UCA4_H7_9" class="sprotty-edge stpa-intermediate" style="fill:none;stroke:rgb(0, 0, 0);stroke-width:2px;"><path aspect="4" d="M 913,314.3333339691162 L 913,204.3333339691162" class="stpa-edge" style="stroke:rgb(102, 179, 255);"/></g><g aspect="4" id="stpa_0_UCA4" class="stpa-node stpa" transform="translate(891, 314.3333339691162)" style="fill:rgb(255, 255, 255);stroke:rgb(102, 179, 255);stroke-width:2px;"><g><rect x="0" y="0" width="44.6788215637207" height="24.44444465637207"/></g><text class="label sprotty-label" id="stpa_0_UCA4_label" transform="translate(5, 5) translate(0, 11.666666984558105)" style="cursor:default;fill:rgb(0, 0, 0);font-family:Arial, sans-serif;stroke-width:0px;">UCA4</text><g id="stpa_0_UCA4_H7_9_newTransition2" class="pasta" transform="translate(22, 0)"/></g><g id="stpa_0_UCA5_H7_8" class="sprotty-edge stpa-intermediate" style="fill:none;stroke:rgb(0, 0, 0);stroke-width:2px;"><path aspect="4" d="M 724,314.3333339691162 L 724,294.3333339691162 L 854,294.3333339691162 L 854,204.3333339691162" class="stpa-edge" style="stroke:rgb(102, 179, 255);"/></g><g aspect="4" id="stpa_0_UCA5" class="stpa-node stpa" transform="translate(689, 314.3333339691162)" style="fill:rgb(255, 255, 255);stroke:rgb(102, 179, 255);stroke-width:2px;"><g><rect x="0" y="0" width="45" height="24.44444465637207"/></g><text class="label sprotty-label" id="stpa_0_UCA5_label" transform="translate(5.160589218139648, 5) translate(0, 11.666666984558105)" style="cursor:default;fill:rgb(0, 0, 0);font-family:Arial, sans-serif;stroke-width:0px;">UCA5</text><g id="stpa_0_UCA5_H7_8_newTransition2" class="pasta" transform="translate(35, 0)"/><g id="stpa_0_C2_UCA5_newTransition1" class="pasta" transform="translate(10, 24.44444465637207)"/></g><g id="stpa_0_UCA6_H7_1" class="sprotty-edge stpa-intermediate" style="fill:none;stroke:rgb(0, 0, 0);stroke-width:2px;"><path aspect="4" d="M 426,314.3333339691162 L 426,294.3333339691162 L 417,294.3333339691162 L 417,204.3333339691162" class="stpa-edge" style="stroke:rgb(102, 179, 255);"/></g><g id="stpa_0_UCA6_H7_7" class="sprotty-edge stpa-intermediate" style="fill:none;stroke:rgb(0, 0, 0);stroke-width:2px;"><path aspect="4" d="M 451,314.3333339691162 L 451,274.3333339691162 L 796,274.3333339691162 L 796,204.3333339691162" class="stpa-edge" style="stroke:rgb(102, 179, 255);"/></g><g aspect="4" id="stpa_0_UCA6" class="stpa-node stpa" transform="translate(416, 314.3333339691162)" style="fill:rgb(255, 255, 255);stroke:rgb(102, 179, 255);stroke-width:2px;"><g><rect x="0" y="0" width="45" height="24.44444465637207"/></g><text class="label sprotty-label" id="stpa_0_UCA6_label" transform="translate(5.160589218139648, 5) translate(0, 11.666666984558105)" style="cursor:default;fill:rgb(0, 0, 0);font-family:Arial, sans-serif;stroke-width:0px;">UCA6</text><g id="stpa_0_UCA6_H7_1_newTransition2" class="pasta" transform="translate(10, 0)"/><g id="stpa_0_UCA6_H7_7_newTransition2" class="pasta" transform="translate(35, 0)"/></g><g id="stpa_0_UCA7_H6" class="sprotty-edge stpa" style="fill:none;stroke:rgb(0, 0, 0);stroke-width:2px;"><path aspect="4" d="M 303,314.3333339691162 L 303,182.61111164093018" class="stpa-edge" style="stroke:rgb(102, 179, 255);"/><path aspect="4" d="M 6,-3 L 0,0 L 6,3 Z" transform="rotate(90 303 182.61111164093018) translate(303 182.61111164093018)" class="stpa-edge-arrow" style="fill:rgb(102, 179, 255);stroke:rgb(102, 179, 255);"/></g><g id="stpa_0_UCA7_H7_1" class="sprotty-edge stpa-intermediate" style="fill:none;stroke:rgb(0, 0, 0);stroke-width:2px;"><path aspect="4" d="M 321,314.3333339691162 L 321,214.3333339691162 L 427,214.3333339691162 L 427,204.3333339691162" class="stpa-edge" style="stroke:rgb(102, 179, 255);"/></g><g aspect="4" id="stpa_0_UCA7" class="stpa-node stpa" transform="translate(286, 314.3333339691162)" style="fill:rgb(255, 255, 255);stroke:rgb(102, 179, 255);stroke-width:2px;"><g><rect x="0" y="0" width="45" height="24.44444465637207"/></g><text class="label sprotty-label" id="stpa_0_UCA7_label" transform="translate(5.160589218139648, 5) translate(0, 11.666666984558105)" style="cursor:default;fill:rgb(0, 0, 0);font-family:Arial, sans-serif;stroke-width:0px;">UCA7</text><g id="stpa_0_UCA7_H6_newTransition" class="pasta" transform="translate(17, 0)"/><g id="stpa_0_UCA7_H7_1_newTransition2" class="pasta" transform="translate(35, 0)"/></g><g id="stpa_0_UCA8_H7_3" class="sprotty-edge stpa-intermediate" style="fill:none;stroke:rgb(0, 0, 0);stroke-width:2px;"><path aspect="4" d="M 764,314.3333339691162 L 764,244.3333339691162 L 555,244.3333339691162 L 555,204.3333339691162" class="stpa-edge" style="stroke:rgb(102, 179, 255);"/></g><g aspect="4" id="stpa_0_UCA8" class="stpa-node stpa" transform="translate(754, 314.3333339691162)" style="fill:rgb(255, 255, 255);stroke:rgb(102, 179, 255);stroke-width:2px;"><g><rect x="0" y="0" width="45" height="24.44444465637207"/></g><text class="label sprotty-label" id="stpa_0_UCA8_label" transform="translate(5.160589218139648, 5) translate(0, 11.666666984558105)" style="cursor:default;fill:rgb(0, 0, 0);font-family:Arial, sans-serif;stroke-width:0px;">UCA8</text><g id="stpa_0_UCA8_H7_3_newTransition2" class="pasta" transform="translate(10, 0)"/><g id="stpa_0_C3_UCA8_newTransition1" class="pasta" transform="translate(10, 24.44444465637207)"/></g><g id="stpa_0_UCA9_H7_1" class="sprotty-edge stpa-intermediate" style="fill:none;stroke:rgb(0, 0, 0);stroke-width:2px;"><path aspect="4" d="M 503,314.3333339691162 L 503,294.3333339691162 L 437,294.3333339691162 L 437,204.3333339691162" class="stpa-edge" style="stroke:rgb(102, 179, 255);"/></g><g aspect="4" id="stpa_0_UCA9" class="stpa-node stpa" transform="translate(481, 314.3333339691162)" style="fill:rgb(255, 255, 255);stroke:rgb(102, 179, 255);stroke-width:2px;"><g><rect x="0" y="0" width="44.6788215637207" height="24.44444465637207"/></g><text class="label sprotty-label" id="stpa_0_UCA9_label" transform="translate(5, 5) translate(0, 11.666666984558105)" style="cursor:default;fill:rgb(0, 0, 0);font-family:Arial, sans-serif;stroke-width:0px;">UCA9</text><g id="stpa_0_UCA9_H7_1_newTransition2" class="pasta" transform="translate(22, 0)"/></g><g id="stpa_0_UCA10_H7_1" class="sprotty-edge stpa-intermediate" style="fill:none;stroke:rgb(0, 0, 0);stroke-width:2px;"><path aspect="4" d="M 572,314.3333339691162 L 572,264.3333339691162 L 447,264.3333339691162 L 447,204.3333339691162" class="stpa-edge" style="stroke:rgb(102, 179, 255);"/></g><g aspect="4" id="stpa_0_UCA10" class="stpa-node stpa" transform="translate(546, 314.3333339691162)" style="fill:rgb(255, 255, 255);stroke:rgb(102, 179, 255);stroke-width:2px;"><g><rect x="0" y="0" width="51.909725189208984" height="24.44444465637207"/></g><text class="label sprotty-label" id="stpa_0_UCA10_label" transform="translate(5, 5) translate(0, 11.666666984558105)" style="cursor:default;fill:rgb(0, 0, 0);font-family:Arial, sans-serif;stroke-width:0px;">UCA10</text><g id="stpa_0_UCA10_H7_1_newTransition2" class="pasta" transform="translate(26, 0)"/></g><g id="stpa_0_UCA11_H6" class="sprotty-edge stpa" style="fill:none;stroke:rgb(0, 0, 0);stroke-width:2px;"><path aspect="4" d="M 628,314.3333339691162 L 628,284.3333339691162 L 355,284.3333339691162 L 355,182.61111164093018" class="stpa-edge" style="stroke:rgb(102, 179, 255);"/><path aspect="4" d="M 6,-3 L 0,0 L 6,3 Z" transform="rotate(90 355 182.61111164093018) translate(355 182.61111164093018)" class="stpa-edge-arrow" style="fill:rgb(102, 179, 255);stroke:rgb(102, 179, 255);"/></g><g id="stpa_0_UCA11_H7_1" class="sprotty-edge stpa-intermediate" style="fill:none;stroke:rgb(0, 0, 0);stroke-width:2px;"><path aspect="4" d="M 638,314.3333339691162 L 638,254.3333339691162 L 457,254.3333339691162 L 457,204.3333339691162" class="stpa-edge" style="stroke:rgb(102, 179, 255);"/></g><g aspect="4" id="stpa_0_UCA11" class="stpa-node stpa" transform="translate(618, 314.3333339691162)" style="fill:rgb(255, 255, 255);stroke:rgb(102, 179, 255);stroke-width:2px;"><g><rect x="0" y="0" width="51" height="24.44444465637207"/></g><text class="label sprotty-label" id="stpa_0_UCA11_label" transform="translate(5.026908874511719, 5) translate(0, 11.666666984558105)" style="cursor:default;fill:rgb(0, 0, 0);font-family:Arial, sans-serif;stroke-width:0px;">UCA11</text><g id="stpa_0_UCA11_H6_newTransition" class="pasta" transform="translate(10, 0)"/><g id="stpa_0_UCA11_H7_1_newTransition2" class="pasta" transform="translate(20, 0)"/><g id="stpa_0_C4_UCA11_newTransition1" class="pasta" transform="translate(10, 24.44444465637207)"/></g><g id="stpa_0_UCA12_H7_3" class="sprotty-edge stpa-intermediate" style="fill:none;stroke:rgb(0, 0, 0);stroke-width:2px;"><path aspect="4" d="M 829,314.3333339691162 L 829,224.3333339691162 L 565,224.3333339691162 L 565,204.3333339691162" class="stpa-edge" style="stroke:rgb(102, 179, 255);"/></g><g aspect="4" id="stpa_0_UCA12" class="stpa-node stpa" transform="translate(819, 314.3333339691162)" style="fill:rgb(255, 255, 255);stroke:rgb(102, 179, 255);stroke-width:2px;"><g><rect x="0" y="0" width="52" height="24.44444465637207"/></g><text class="label sprotty-label" id="stpa_0_UCA12_label" transform="translate(5.045137405395508, 5) translate(0, 11.666666984558105)" style="cursor:default;fill:rgb(0, 0, 0);font-family:Arial, sans-serif;stroke-width:0px;">UCA12</text><g id="stpa_0_UCA12_H7_3_newTransition2" class="pasta" transform="translate(10, 0)"/><g id="stpa_0_C5_UCA12_newTransition1" class="pasta" transform="translate(10, 24.44444465637207)"/></g><g id="stpa_0_UCA13_H3" class="sprotty-edge stpa" style="fill:none;stroke:rgb(0, 0, 0);stroke-width:2px;"><path aspect="4" d="M 175,314.3333339691162 L 175,304.3333339691162 L 153,304.3333339691162 L 153,182.61111164093018" class="stpa-edge" style="stroke:rgb(102, 179, 255);"/><path aspect="4" d="M 6,-3 L 0,0 L 6,3 Z" transform="rotate(90 153 182.61111164093018) translate(153 182.61111164093018)" class="stpa-edge-arrow" style="fill:rgb(102, 179, 255);stroke:rgb(102, 179, 255);"/></g><g aspect="4" id="stpa_0_UCA13" class="stpa-node stpa" transform="translate(149, 314.3333339691162)" style="fill:rgb(255, 255, 255);stroke:rgb(102, 179, 255);stroke-width:2px;"><g><rect x="0" y="0" width="51.909725189208984" height="24.44444465637207"/></g><text class="label sprotty-label" id="stpa_0_UCA13_label" transform="translate(5, 5) translate(0, 11.666666984558105)" style="cursor:default;fill:rgb(0, 0, 0);font-family:Arial, sans-serif;stroke-width:0px;">UCA13</text><g id="stpa_0_UCA13_H3_newTransition" class="pasta" transform="translate(26, 0)"/></g><g id="stpa_0_UCA14_H2" class="sprotty-edge stpa" style="fill:none;stroke:rgb(0, 0, 0);stroke-width:2px;"><path aspect="4" d="M 103,314.3333339691162 L 103,182.61111164093018" class="stpa-edge" style="stroke:rgb(102, 179, 255);"/><path aspect="4" d="M 6,-3 L 0,0 L 6,3 Z" transform="rotate(90 103 182.61111164093018) translate(103 182.61111164093018)" class="stpa-edge-arrow" style="fill:rgb(102, 179, 255);stroke:rgb(102, 179, 255);"/></g><g aspect="4" id="stpa_0_UCA14" class="stpa-node stpa" transform="translate(77, 314.3333339691162)" style="fill:rgb(255, 255, 255);stroke:rgb(102, 179, 255);stroke-width:2px;"><g><rect x="0" y="0" width="51.909725189208984" height="24.44444465637207"/></g><text class="label sprotty-label" id="stpa_0_UCA14_label" transform="translate(5, 5) translate(0, 11.666666984558105)" style="cursor:default;fill:rgb(0, 0, 0);font-family:Arial, sans-serif;stroke-width:0px;">UCA14</text><g id="stpa_0_UCA14_H2_newTransition" class="pasta" transform="translate(26, 0)"/></g><g id="stpa_0_C1_UCA1" class="sprotty-edge stpa" style="fill:none;stroke:rgb(0, 0, 0);stroke-width:2px;"><path aspect="4" d="M 231,358.7777786254883 L 231,338.7777786254883" class="stpa-edge" style="stroke:rgb(102, 179, 255);"/><path aspect="4" d="M 6,-3 L 0,0 L 6,3 Z" transform="rotate(90 231 338.7777786254883) translate(231 338.7777786254883)" class="stpa-edge-arrow" style="fill:rgb(102, 179, 255);stroke:rgb(102, 179, 255);"/></g><g aspect="4" id="stpa_0_C1" class="stpa-node stpa" transform="translate(218, 358.7777786254883)" style="fill:rgb(255, 255, 255);stroke:rgb(102, 179, 255);stroke-width:2px;"><g><rect x="0" y="0" rx="5" ry="5" width="26.62326431274414" height="24.44444465637207"/></g><text class="label sprotty-label" id="stpa_0_C1_label" transform="translate(5, 5) translate(0, 11.666666984558105)" style="cursor:default;fill:rgb(0, 0, 0);font-family:Arial, sans-serif;stroke-width:0px;">C1</text><g id="stpa_0_C1_UCA1_newTransition" class="pasta" transform="translate(13, 0)"/></g><g id="stpa_0_C2_UCA5" class="sprotty-edge stpa" style="fill:none;stroke:rgb(0, 0, 0);stroke-width:2px;"><path aspect="4" d="M 699,358.7777786254883 L 699,338.7777786254883" class="stpa-edge" style="stroke:rgb(102, 179, 255);"/><path aspect="4" d="M 6,-3 L 0,0 L 6,3 Z" transform="rotate(90 699 338.7777786254883) translate(699 338.7777786254883)" class="stpa-edge-arrow" style="fill:rgb(102, 179, 255);stroke:rgb(102, 179, 255);"/></g><g aspect="4" id="stpa_0_C2" class="stpa-node stpa" transform="translate(686, 358.7777786254883)" style="fill:rgb(255, 255, 255);stroke:rgb(102, 179, 255);stroke-width:2px;"><g><rect x="0" y="0" rx="5" ry="5" width="26.62326431274414" height="24.44444465637207"/></g><text class="label sprotty-label" id="stpa_0_C2_label" transform="translate(5, 5) translate(0, 11.666666984558105)" style="cursor:default;fill:rgb(0, 0, 0);font-family:Arial, sans-serif;stroke-width:0px;">C2</text><g id="stpa_0_C2_UCA5_newTransition" class="pasta" transform="translate(13, 0)"/></g><g id="stpa_0_C3_UCA8" class="sprotty-edge stpa" style="fill:none;stroke:rgb(0, 0, 0);stroke-width:2px;"><path aspect="4" d="M 764,358.7777786254883 L 764,338.7777786254883" class="stpa-edge" style="stroke:rgb(102, 179, 255);"/><path aspect="4" d="M 6,-3 L 0,0 L 6,3 Z" transform="rotate(90 764 338.7777786254883) translate(764 338.7777786254883)" class="stpa-edge-arrow" style="fill:rgb(102, 179, 255);stroke:rgb(102, 179, 255);"/></g><g aspect="4" id="stpa_0_C3" class="stpa-node stpa" transform="translate(751, 358.7777786254883)" style="fill:rgb(255, 255, 255);stroke:rgb(102, 179, 255);stroke-width:2px;"><g><rect x="0" y="0" rx="5" ry="5" width="26.62326431274414" height="24.44444465637207"/></g><text class="label sprotty-label" id="stpa_0_C3_label" transform="translate(5, 5) translate(0, 11.666666984558105)" style="cursor:default;fill:rgb(0, 0, 0);font-family:Arial, sans-serif;stroke-width:0px;">C3</text><g id="stpa_0_C3_UCA8_newTransition" class="pasta" transform="translate(13, 0)"/></g><g id="stpa_0_C4_UCA11" class="sprotty-edge stpa" style="fill:none;stroke:rgb(0, 0, 0);stroke-width:2px;"><path aspect="4" d="M 628,358.7777786254883 L 628,338.7777786254883" class="stpa-edge" style="stroke:rgb(102, 179, 255);"/><path aspect="4" d="M 6,-3 L 0,0 L 6,3 Z" transform="rotate(90 628 338.7777786254883) translate(628 338.7777786254883)" class="stpa-edge-arrow" style="fill:rgb(102, 179, 255);stroke:rgb(102, 179, 255);"/></g><g aspect="4" id="stpa_0_C4" class="stpa-node stpa" transform="translate(615, 358.7777786254883)" style="fill:rgb(255, 255, 255);stroke:rgb(102, 179, 255);stroke-width:2px;"><g><rect x="0" y="0" rx="5" ry="5" width="26.62326431274414" height="24.44444465637207"/></g><text class="label sprotty-label" id="stpa_0_C4_label" transform="translate(5, 5) translate(0, 11.666666984558105)" style="cursor:default;fill:rgb(0, 0, 0);font-family:Arial, sans-serif;stroke-width:0px;">C4</text><g id="stpa_0_C4_UCA11_newTransition" class="pasta" transform="translate(13, 0)"/></g><g id="stpa_0_C5_UCA12" class="sprotty-edge stpa" style="fill:none;stroke:rgb(0, 0, 0);stroke-width:2px;"><path aspect="4" d="M 829,358.7777786254883 L 829,338.7777786254883" class="stpa-edge" style="stroke:rgb(102, 179, 255);"/><path aspect="4" d="M 6,-3 L 0,0 L 6,3 Z" transform="rotate(90 829 338.7777786254883) translate(829 338.7777786254883)" class="stpa-edge-arrow" style="fill:rgb(102, 179, 255);stroke:rgb(102, 179, 255);"/></g><g aspect="4" id="stpa_0_C5" class="stpa-node stpa" transform="translate(816, 358.7777786254883)" style="fill:rgb(255, 255, 255);stroke:rgb(102, 179, 255);stroke-width:2px;"><g><rect x="0" y="0" rx="5" ry="5" width="26.62326431274414" height="24.44444465637207"/></g><text class="label sprotty-label" id="stpa_0_C5_label" transform="translate(5, 5) translate(0, 11.666666984558105)" style="cursor:default;fill:rgb(0, 0, 0);font-family:Arial, sans-serif;stroke-width:0px;">C5</text><g id="stpa_0_C5_UCA12_newTransition" class="pasta" transform="translate(13, 0)"/></g></g></g></svg>