<svg xmlns="http://www.w3.org/2000/svg" id="stpa_0_root" class="sprotty-graph" style="border-block-end-color:rgb(59, 59, 59);border-block-start-color:rgb(59, 59, 59);border-bottom-color:rgb(59, 59, 59);border-inline-end-color:rgb(59, 59, 59);border-inline-start-color:rgb(59, 59, 59);border-left-color:rgb(59, 59, 59);border-right-color:rgb(59, 59, 59);border-top-color:rgb(59, 59, 59);caret-color:rgb(59, 59, 59);color:rgb(59, 59, 59);column-rule-color:rgb(59, 59, 59);flex-basis:0%;flex-grow:1;font-family:&quot;Helvetica Neue&quot;, Helvetica, Arial, sans-serif;font-size:13px;inline-size:0px;outline-color:rgb(59, 59, 59);perspective-origin:0px 75px;scrollbar-color:rgba(100, 100, 100, 0.4) rgb(255, 255, 255);text-decoration:none solid rgb(59, 59, 59);text-decoration-color:rgb(59, 59, 59);text-emphasis-color:rgb(59, 59, 59);transform-origin:0px 75px;-webkit-locale:&quot;en&quot;;-webkit-text-fill-color:rgb(59, 59, 59);-webkit-text-stroke-color:rgb(59, 59, 59);" version="1.1" viewBox="12 12 914.6961822509766 290.7777786254883"><g transform="scale(1) translate(0,0)"><g id="stpa_0_relationships" class="parent" transform="translate(12, 12)"><rect x="0" y="0" width="914.6961822509766" height="290.7777786254883" class="print-node" style="fill:rgb(255, 255, 255);stroke:rgb(0, 0, 0);"> </rect><g aspect="0" id="stpa_0_L1" class="stpa-node stpa" transform="translate(12, 12)" style="fill:rgb(255, 255, 255);stroke:rgb(255, 40, 40);stroke-width:2px;"><g><rect x="0" y="0" width="150" height="24.44444465637207"/></g><text class="label sprotty-label" id="stpa_0_L1_label" transform="translate(67.76909685134888, 5) translate(0, 11.666666984558105)" style="cursor:default;fill:rgb(0, 0, 0);font-family:Arial, sans-serif;stroke-width:0px;">L1</text><g id="stpa_0_H1_L1_newTransition1" class="pasta" transform="translate(10, 24.44444465637207)"/><g id="stpa_0_H2_L1_newTransition1" class="pasta" transform="translate(60, 24.44444465637207)"/><g id="stpa_0_H3_L1_newTransition1" class="pasta" transform="translate(100, 24.44444465637207)"/><g id="stpa_0_H4_L1_newTransition1" class="pasta" transform="translate(110, 24.44444465637207)"/><g id="stpa_0_H5_L1_newTransition1" class="pasta" transform="translate(120, 24.44444465637207)"/><g id="stpa_0_H6_L1_newTransition1" class="pasta" transform="translate(130, 24.44444465637207)"/><g id="stpa_0_H7_L1_newTransition1" class="pasta" transform="translate(140, 24.44444465637207)"/></g><g aspect="0" id="stpa_0_L2" class="stpa-node stpa" transform="translate(182, 12)" style="fill:rgb(255, 255, 255);stroke:rgb(255, 40, 40);stroke-width:2px;"><g><rect x="0" y="0" width="172" height="24.44444465637207"/></g><text class="label sprotty-label" id="stpa_0_L2_label" transform="translate(78.76909685134888, 5) translate(0, 11.666666984558105)" style="cursor:default;fill:rgb(0, 0, 0);font-family:Arial, sans-serif;stroke-width:0px;">L2</text><g id="stpa_0_H1_L2_newTransition1" class="pasta" transform="translate(10, 24.44444465637207)"/><g id="stpa_0_H2_L2_newTransition1" class="pasta" transform="translate(20, 24.44444465637207)"/><g id="stpa_0_H3_L2_newTransition1" class="pasta" transform="translate(30, 24.44444465637207)"/><g id="stpa_0_H4_L2_newTransition1" class="pasta" transform="translate(40, 24.44444465637207)"/><g id="stpa_0_H5_L2_newTransition1" class="pasta" transform="translate(50, 24.44444465637207)"/><g id="stpa_0_H6_L2_newTransition1" class="pasta" transform="translate(100, 24.44444465637207)"/><g id="stpa_0_H7_L2_newTransition1" class="pasta" transform="translate(162, 24.44444465637207)"/></g><g id="stpa_0_H1_L1" class="sprotty-edge stpa" style="fill:none;stroke:rgb(0, 0, 0);stroke-width:2px;"><path aspect="0" d="M 22,158.1666669845581 L 22,36.44444465637207" class="stpa-edge" style="stroke:rgb(255, 40, 40);"/><path aspect="0" d="M 6,-3 L 0,0 L 6,3 Z" transform="rotate(90 22 36.44444465637207) translate(22 36.44444465637207)" class="stpa-edge-arrow" style="fill:rgb(255, 40, 40);stroke:rgb(255, 40, 40);"/></g><g id="stpa_0_H1_L2" class="sprotty-edge stpa" style="fill:none;stroke:rgb(0, 0, 0);stroke-width:2px;"><path aspect="0" d="M 32,158.1666669845581 L 32,46.44444465637207 L 192,46.44444465637207 L 192,36.44444465637207" class="stpa-edge" style="stroke:rgb(255, 40, 40);"/><path aspect="0" d="M 6,-3 L 0,0 L 6,3 Z" transform="rotate(90 192 36.44444465637207) translate(192 36.44444465637207)" class="stpa-edge-arrow" style="fill:rgb(255, 40, 40);stroke:rgb(255, 40, 40);"/></g><g aspect="0" id="stpa_0_H1" class="stpa-node stpa" transform="translate(12, 158.1666669845581)" style="fill:rgb(255, 255, 255);stroke:rgb(255, 40, 40);stroke-width:2px;"><g><rect x="0" y="0" rx="5" ry="5" width="30" height="24.44444465637207"/></g><text class="label sprotty-label" id="stpa_0_H1_label" transform="translate(6.68836784362793, 5) translate(0, 11.666666984558105)" style="cursor:default;fill:rgb(0, 0, 0);font-family:Arial, sans-serif;stroke-width:0px;">H1</text><g id="stpa_0_H1_L1_newTransition" class="pasta" transform="translate(10, 0)"/><g id="stpa_0_H1_L2_newTransition" class="pasta" transform="translate(20, 0)"/></g><g id="stpa_0_H2_L1" class="sprotty-edge stpa" style="fill:none;stroke:rgb(0, 0, 0);stroke-width:2px;"><path aspect="0" d="M 72,158.1666669845581 L 72,36.44444465637207" class="stpa-edge" style="stroke:rgb(255, 40, 40);"/><path aspect="0" d="M 6,-3 L 0,0 L 6,3 Z" transform="rotate(90 72 36.44444465637207) translate(72 36.44444465637207)" class="stpa-edge-arrow" style="fill:rgb(255, 40, 40);stroke:rgb(255, 40, 40);"/></g><g id="stpa_0_H2_L2" class="sprotty-edge stpa" style="fill:none;stroke:rgb(0, 0, 0);stroke-width:2px;"><path aspect="0" d="M 82,158.1666669845581 L 82,66.44444465637207 L 202,66.44444465637207 L 202,36.44444465637207" class="stpa-edge" style="stroke:rgb(255, 40, 40);"/><path aspect="0" d="M 6,-3 L 0,0 L 6,3 Z" transform="rotate(90 202 36.44444465637207) translate(202 36.44444465637207)" class="stpa-edge-arrow" style="fill:rgb(255, 40, 40);stroke:rgb(255, 40, 40);"/></g><g aspect="0" id="stpa_0_H2" class="stpa-node stpa" transform="translate(62, 158.1666669845581)" style="fill:rgb(255, 255, 255);stroke:rgb(255, 40, 40);stroke-width:2px;"><g><rect x="0" y="0" rx="5" ry="5" width="30" height="24.44444465637207"/></g><text class="label sprotty-label" id="stpa_0_H2_label" transform="translate(6.68836784362793, 5) translate(0, 11.666666984558105)" style="cursor:default;fill:rgb(0, 0, 0);font-family:Arial, sans-serif;stroke-width:0px;">H2</text><g id="stpa_0_H2_L1_newTransition" class="pasta" transform="translate(10, 0)"/><g id="stpa_0_H2_L2_newTransition" class="pasta" transform="translate(20, 0)"/><g id="stpa_0_UCA3_H2_newTransition1" class="pasta" transform="translate(20, 24.44444465637207)"/></g><g id="stpa_0_H3_L1" class="sprotty-edge stpa" style="fill:none;stroke:rgb(0, 0, 0);stroke-width:2px;"><path aspect="0" d="M 122,158.1666669845581 L 122,126.44444465637207 L 112,126.44444465637207 L 112,36.44444465637207" class="stpa-edge" style="stroke:rgb(255, 40, 40);"/><path aspect="0" d="M 6,-3 L 0,0 L 6,3 Z" transform="rotate(90 112 36.44444465637207) translate(112 36.44444465637207)" class="stpa-edge-arrow" style="fill:rgb(255, 40, 40);stroke:rgb(255, 40, 40);"/></g><g id="stpa_0_H3_L2" class="sprotty-edge stpa" style="fill:none;stroke:rgb(0, 0, 0);stroke-width:2px;"><path aspect="0" d="M 132,158.1666669845581 L 132,106.44444465637207 L 212,106.44444465637207 L 212,36.44444465637207" class="stpa-edge" style="stroke:rgb(255, 40, 40);"/><path aspect="0" d="M 6,-3 L 0,0 L 6,3 Z" transform="rotate(90 212 36.44444465637207) translate(212 36.44444465637207)" class="stpa-edge-arrow" style="fill:rgb(255, 40, 40);stroke:rgb(255, 40, 40);"/></g><g aspect="0" id="stpa_0_H3" class="stpa-node stpa" transform="translate(112, 158.1666669845581)" style="fill:rgb(255, 255, 255);stroke:rgb(255, 40, 40);stroke-width:2px;"><g><rect x="0" y="0" rx="5" ry="5" width="30" height="24.44444465637207"/></g><text class="label sprotty-label" id="stpa_0_H3_label" transform="translate(6.68836784362793, 5) translate(0, 11.666666984558105)" style="cursor:default;fill:rgb(0, 0, 0);font-family:Arial, sans-serif;stroke-width:0px;">H3</text><g id="stpa_0_H3_L1_newTransition" class="pasta" transform="translate(10, 0)"/><g id="stpa_0_H3_L2_newTransition" class="pasta" transform="translate(20, 0)"/><g id="stpa_0_UCA3_H3_newTransition1" class="pasta" transform="translate(10, 24.44444465637207)"/></g><g id="stpa_0_H4_L1" class="sprotty-edge stpa" style="fill:none;stroke:rgb(0, 0, 0);stroke-width:2px;"><path aspect="0" d="M 172,158.1666669845581 L 172,116.44444465637207 L 122,116.44444465637207 L 122,36.44444465637207" class="stpa-edge" style="stroke:rgb(255, 40, 40);"/><path aspect="0" d="M 6,-3 L 0,0 L 6,3 Z" transform="rotate(90 122 36.44444465637207) translate(122 36.44444465637207)" class="stpa-edge-arrow" style="fill:rgb(255, 40, 40);stroke:rgb(255, 40, 40);"/></g><g id="stpa_0_H4_L2" class="sprotty-edge stpa" style="fill:none;stroke:rgb(0, 0, 0);stroke-width:2px;"><path aspect="0" d="M 182,158.1666669845581 L 182,86.44444465637207 L 222,86.44444465637207 L 222,36.44444465637207" class="stpa-edge" style="stroke:rgb(255, 40, 40);"/><path aspect="0" d="M 6,-3 L 0,0 L 6,3 Z" transform="rotate(90 222 36.44444465637207) translate(222 36.44444465637207)" class="stpa-edge-arrow" style="fill:rgb(255, 40, 40);stroke:rgb(255, 40, 40);"/></g><g aspect="0" id="stpa_0_H4" class="stpa-node stpa" transform="translate(162, 158.1666669845581)" style="fill:rgb(255, 255, 255);stroke:rgb(255, 40, 40);stroke-width:2px;"><g><rect x="0" y="0" rx="5" ry="5" width="30" height="24.44444465637207"/></g><text class="label sprotty-label" id="stpa_0_H4_label" transform="translate(6.68836784362793, 5) translate(0, 11.666666984558105)" style="cursor:default;fill:rgb(0, 0, 0);font-family:Arial, sans-serif;stroke-width:0px;">H4</text><g id="stpa_0_H4_L1_newTransition" class="pasta" transform="translate(10, 0)"/><g id="stpa_0_H4_L2_newTransition" class="pasta" transform="translate(20, 0)"/></g><g id="stpa_0_H5_L1" class="sprotty-edge stpa" style="fill:none;stroke:rgb(0, 0, 0);stroke-width:2px;"><path aspect="0" d="M 222,158.1666669845581 L 222,96.44444465637207 L 132,96.44444465637207 L 132,36.44444465637207" class="stpa-edge" style="stroke:rgb(255, 40, 40);"/><path aspect="0" d="M 6,-3 L 0,0 L 6,3 Z" transform="rotate(90 132 36.44444465637207) translate(132 36.44444465637207)" class="stpa-edge-arrow" style="fill:rgb(255, 40, 40);stroke:rgb(255, 40, 40);"/></g><g id="stpa_0_H5_L2" class="sprotty-edge stpa" style="fill:none;stroke:rgb(0, 0, 0);stroke-width:2px;"><path aspect="0" d="M 232,158.1666669845581 L 232,36.44444465637207" class="stpa-edge" style="stroke:rgb(255, 40, 40);"/><path aspect="0" d="M 6,-3 L 0,0 L 6,3 Z" transform="rotate(90 232 36.44444465637207) translate(232 36.44444465637207)" class="stpa-edge-arrow" style="fill:rgb(255, 40, 40);stroke:rgb(255, 40, 40);"/></g><g aspect="0" id="stpa_0_H5" class="stpa-node stpa" transform="translate(212, 158.1666669845581)" style="fill:rgb(255, 255, 255);stroke:rgb(255, 40, 40);stroke-width:2px;"><g><rect x="0" y="0" rx="5" ry="5" width="30" height="24.44444465637207"/></g><text class="label sprotty-label" id="stpa_0_H5_label" transform="translate(6.68836784362793, 5) translate(0, 11.666666984558105)" style="cursor:default;fill:rgb(0, 0, 0);font-family:Arial, sans-serif;stroke-width:0px;">H5</text><g id="stpa_0_H5_L1_newTransition" class="pasta" transform="translate(10, 0)"/><g id="stpa_0_H5_L2_newTransition" class="pasta" transform="translate(20, 0)"/></g><g id="stpa_0_H6_L1" class="sprotty-edge stpa" style="fill:none;stroke:rgb(0, 0, 0);stroke-width:2px;"><path aspect="0" d="M 272,158.1666669845581 L 272,76.44444465637207 L 142,76.44444465637207 L 142,36.44444465637207" class="stpa-edge" style="stroke:rgb(255, 40, 40);"/><path aspect="0" d="M 6,-3 L 0,0 L 6,3 Z" transform="rotate(90 142 36.44444465637207) translate(142 36.44444465637207)" class="stpa-edge-arrow" style="fill:rgb(255, 40, 40);stroke:rgb(255, 40, 40);"/></g><g id="stpa_0_H6_L2" class="sprotty-edge stpa" style="fill:none;stroke:rgb(0, 0, 0);stroke-width:2px;"><path aspect="0" d="M 282,158.1666669845581 L 282,36.44444465637207" class="stpa-edge" style="stroke:rgb(255, 40, 40);"/><path aspect="0" d="M 6,-3 L 0,0 L 6,3 Z" transform="rotate(90 282 36.44444465637207) translate(282 36.44444465637207)" class="stpa-edge-arrow" style="fill:rgb(255, 40, 40);stroke:rgb(255, 40, 40);"/></g><g aspect="0" id="stpa_0_H6" class="stpa-node stpa" transform="translate(262, 158.1666669845581)" style="fill:rgb(255, 255, 255);stroke:rgb(255, 40, 40);stroke-width:2px;"><g><rect x="0" y="0" rx="5" ry="5" width="30" height="24.44444465637207"/></g><text class="label sprotty-label" id="stpa_0_H6_label" transform="translate(6.68836784362793, 5) translate(0, 11.666666984558105)" style="cursor:default;fill:rgb(0, 0, 0);font-family:Arial, sans-serif;stroke-width:0px;">H6</text><g id="stpa_0_H6_L1_newTransition" class="pasta" transform="translate(10, 0)"/><g id="stpa_0_H6_L2_newTransition" class="pasta" transform="translate(20, 0)"/><g id="stpa_0_UCA1_H6_newTransition1" class="pasta" transform="translate(20, 24.44444465637207)"/></g><g id="stpa_0_H7_L1" class="sprotty-edge stpa" style="fill:none;stroke:rgb(0, 0, 0);stroke-width:2px;"><path aspect="0" d="M 334,136.44444465637207 L 334,56.44444465637207 L 152,56.44444465637207 L 152,36.44444465637207" class="stpa-edge" style="stroke:rgb(255, 40, 40);"/><path aspect="0" d="M 6,-3 L 0,0 L 6,3 Z" transform="rotate(90 152 36.44444465637207) translate(152 36.44444465637207)" class="stpa-edge-arrow" style="fill:rgb(255, 40, 40);stroke:rgb(255, 40, 40);"/></g><g id="stpa_0_H7_L2" class="sprotty-edge stpa" style="fill:none;stroke:rgb(0, 0, 0);stroke-width:2px;"><path aspect="0" d="M 344,136.44444465637207 L 344,36.44444465637207" class="stpa-edge" style="stroke:rgb(255, 40, 40);"/><path aspect="0" d="M 6,-3 L 0,0 L 6,3 Z" transform="rotate(90 344 36.44444465637207) translate(344 36.44444465637207)" class="stpa-edge-arrow" style="fill:rgb(255, 40, 40);stroke:rgb(255, 40, 40);"/></g><g aspect="0" id="stpa_0_H7" class="stpa-node stpa" transform="translate(312, 136.44444465637207)" style="fill:rgb(255, 255, 255);stroke:rgb(255, 40, 40);stroke-width:2px;"><g><rect x="0" y="0" rx="5" ry="5" width="590.6961822509766" height="67.88888931274414"/></g><text class="label sprotty-label" id="stpa_0_H7_label" transform="translate(287.0364589691162, 5) translate(0, 11.666666984558105)" style="cursor:default;fill:rgb(0, 0, 0);font-family:Arial, sans-serif;stroke-width:0px;">H7</text><g aspect="0" id="stpa_0_H7_1" class="stpa-node stpa" transform="translate(12, 31.44444465637207)"><g><rect x="0" y="0" rx="5" ry="5" width="38" height="24.44444465637207"/></g><text class="label sprotty-label" id="stpa_0_H7_1_label" transform="translate(5.267360687255859, 5) translate(0, 11.666666984558105)" style="cursor:default;fill:rgb(0, 0, 0);font-family:Arial, sans-serif;stroke-width:0px;">H7.1</text><g id="stpa_0_UCA2_H7_1_newTransition" class="pasta" transform="translate(10, 24.44444465637207)"/><g id="stpa_0_UCA6_H7_1_newTransition" class="pasta" transform="translate(20, 24.44444465637207)"/></g><g aspect="0" id="stpa_0_H7_2" class="stpa-node stpa" transform="translate(70, 31.44444465637207)"><g><rect x="0" y="0" rx="5" ry="5" width="37.46527862548828" height="24.44444465637207"/></g><text class="label sprotty-label" id="stpa_0_H7_2_label" transform="translate(5, 5) translate(0, 11.666666984558105)" style="cursor:default;fill:rgb(0, 0, 0);font-family:Arial, sans-serif;stroke-width:0px;">H7.2</text></g><g aspect="0" id="stpa_0_H7_3" class="stpa-node stpa" transform="translate(128, 31.44444465637207)"><g><rect x="0" y="0" rx="5" ry="5" width="37.46527862548828" height="24.44444465637207"/></g><text class="label sprotty-label" id="stpa_0_H7_3_label" transform="translate(5, 5) translate(0, 11.666666984558105)" style="cursor:default;fill:rgb(0, 0, 0);font-family:Arial, sans-serif;stroke-width:0px;">H7.3</text></g><g aspect="0" id="stpa_0_H7_4" class="stpa-node stpa" transform="translate(186, 31.44444465637207)"><g><rect x="0" y="0" rx="5" ry="5" width="37.46527862548828" height="24.44444465637207"/></g><text class="label sprotty-label" id="stpa_0_H7_4_label" transform="translate(5, 5) translate(0, 11.666666984558105)" style="cursor:default;fill:rgb(0, 0, 0);font-family:Arial, sans-serif;stroke-width:0px;">H7.4</text></g><g aspect="0" id="stpa_0_H7_5" class="stpa-node stpa" transform="translate(244, 31.44444465637207)"><g><rect x="0" y="0" rx="5" ry="5" width="37.46527862548828" height="24.44444465637207"/></g><text class="label sprotty-label" id="stpa_0_H7_5_label" transform="translate(5, 5) translate(0, 11.666666984558105)" style="cursor:default;fill:rgb(0, 0, 0);font-family:Arial, sans-serif;stroke-width:0px;">H7.5</text></g><g aspect="0" id="stpa_0_H7_6" class="stpa-node stpa" transform="translate(302, 31.44444465637207)"><g><rect x="0" y="0" rx="5" ry="5" width="37.46527862548828" height="24.44444465637207"/></g><text class="label sprotty-label" id="stpa_0_H7_6_label" transform="translate(5, 5) translate(0, 11.666666984558105)" style="cursor:default;fill:rgb(0, 0, 0);font-family:Arial, sans-serif;stroke-width:0px;">H7.6</text><g id="stpa_0_UCA2_H7_6_newTransition" class="pasta" transform="translate(19, 24.44444465637207)"/></g><g aspect="0" id="stpa_0_H7_7" class="stpa-node stpa" transform="translate(360, 31.44444465637207)"><g><rect x="0" y="0" rx="5" ry="5" width="37.46527862548828" height="24.44444465637207"/></g><text class="label sprotty-label" id="stpa_0_H7_7_label" transform="translate(5, 5) translate(0, 11.666666984558105)" style="cursor:default;fill:rgb(0, 0, 0);font-family:Arial, sans-serif;stroke-width:0px;">H7.7</text><g id="stpa_0_UCA6_H7_7_newTransition" class="pasta" transform="translate(19, 24.44444465637207)"/></g><g aspect="0" id="stpa_0_H7_8" class="stpa-node stpa" transform="translate(418, 31.44444465637207)"><g><rect x="0" y="0" rx="5" ry="5" width="37.46527862548828" height="24.44444465637207"/></g><text class="label sprotty-label" id="stpa_0_H7_8_label" transform="translate(5, 5) translate(0, 11.666666984558105)" style="cursor:default;fill:rgb(0, 0, 0);font-family:Arial, sans-serif;stroke-width:0px;">H7.8</text><g id="stpa_0_UCA5_H7_8_newTransition" class="pasta" transform="translate(19, 24.44444465637207)"/></g><g aspect="0" id="stpa_0_H7_9" class="stpa-node stpa" transform="translate(476, 31.44444465637207)"><g><rect x="0" y="0" rx="5" ry="5" width="38" height="24.44444465637207"/></g><text class="label sprotty-label" id="stpa_0_H7_9_label" transform="translate(5.267360687255859, 5) translate(0, 11.666666984558105)" style="cursor:default;fill:rgb(0, 0, 0);font-family:Arial, sans-serif;stroke-width:0px;">H7.9</text><g id="stpa_0_UCA1_H7_9_newTransition" class="pasta" transform="translate(10, 24.44444465637207)"/><g id="stpa_0_UCA4_H7_9_newTransition" class="pasta" transform="translate(20, 24.44444465637207)"/></g><g aspect="0" id="stpa_0_H7_10" class="stpa-node stpa" transform="translate(534, 31.44444465637207)"><g><rect x="0" y="0" rx="5" ry="5" width="44.69618225097656" height="24.44444465637207"/></g><text class="label sprotty-label" id="stpa_0_H7_10_label" transform="translate(5, 5) translate(0, 11.666666984558105)" style="cursor:default;fill:rgb(0, 0, 0);font-family:Arial, sans-serif;stroke-width:0px;">H7.10</text></g><g id="stpa_0_H7_L1_newTransition" class="pasta" transform="translate(22, 0)"/><g id="stpa_0_H7_L2_newTransition" class="pasta" transform="translate(32, 0)"/><g id="stpa_0_UCA1_H7_9_newTransition1" class="pasta" transform="translate(486, 67.88888931274414)"/><g id="stpa_0_UCA1_H7_91" class="sprotty-edge stpa" style="fill:none;stroke:rgb(0, 0, 0);"><path aspect="4" d="M 486,67.88888931274414 L 486,55.88888931274414" class="stpa-edge" style="stroke:rgb(102, 179, 255);"/><path aspect="4" d="M 6,-3 L 0,0 L 6,3 Z" transform="rotate(90 486 55.88888931274414) translate(486 55.88888931274414)" class="stpa-edge-arrow" style="fill:rgb(102, 179, 255);stroke:rgb(102, 179, 255);"/></g><g id="stpa_0_UCA2_H7_1_newTransition1" class="pasta" transform="translate(22, 67.88888931274414)"/><g id="stpa_0_UCA2_H7_11" class="sprotty-edge stpa" style="fill:none;stroke:rgb(0, 0, 0);"><path aspect="4" d="M 22,67.88888931274414 L 22,55.88888931274414" class="stpa-edge" style="stroke:rgb(102, 179, 255);"/><path aspect="4" d="M 6,-3 L 0,0 L 6,3 Z" transform="rotate(90 22 55.88888931274414) translate(22 55.88888931274414)" class="stpa-edge-arrow" style="fill:rgb(102, 179, 255);stroke:rgb(102, 179, 255);"/></g><g id="stpa_0_UCA2_H7_6_newTransition1" class="pasta" transform="translate(321, 67.88888931274414)"/><g id="stpa_0_UCA2_H7_61" class="sprotty-edge stpa" style="fill:none;stroke:rgb(0, 0, 0);"><path aspect="4" d="M 321,67.88888931274414 L 321,55.88888931274414" class="stpa-edge" style="stroke:rgb(102, 179, 255);"/><path aspect="4" d="M 6,-3 L 0,0 L 6,3 Z" transform="rotate(90 321 55.88888931274414) translate(321 55.88888931274414)" class="stpa-edge-arrow" style="fill:rgb(102, 179, 255);stroke:rgb(102, 179, 255);"/></g><g id="stpa_0_UCA4_H7_9_newTransition1" class="pasta" transform="translate(496, 67.88888931274414)"/><g id="stpa_0_UCA4_H7_91" class="sprotty-edge stpa" style="fill:none;stroke:rgb(0, 0, 0);"><path aspect="4" d="M 496,67.88888931274414 L 496,55.88888931274414" class="stpa-edge" style="stroke:rgb(102, 179, 255);"/><path aspect="4" d="M 6,-3 L 0,0 L 6,3 Z" transform="rotate(90 496 55.88888931274414) translate(496 55.88888931274414)" class="stpa-edge-arrow" style="fill:rgb(102, 179, 255);stroke:rgb(102, 179, 255);"/></g><g id="stpa_0_UCA5_H7_8_newTransition1" class="pasta" transform="translate(437, 67.88888931274414)"/><g id="stpa_0_UCA5_H7_81" class="sprotty-edge stpa" style="fill:none;stroke:rgb(0, 0, 0);"><path aspect="4" d="M 437,67.88888931274414 L 437,55.88888931274414" class="stpa-edge" style="stroke:rgb(102, 179, 255);"/><path aspect="4" d="M 6,-3 L 0,0 L 6,3 Z" transform="rotate(90 437 55.88888931274414) translate(437 55.88888931274414)" class="stpa-edge-arrow" style="fill:rgb(102, 179, 255);stroke:rgb(102, 179, 255);"/></g><g id="stpa_0_UCA6_H7_1_newTransition1" class="pasta" transform="translate(32, 67.88888931274414)"/><g id="stpa_0_UCA6_H7_11" class="sprotty-edge stpa" style="fill:none;stroke:rgb(0, 0, 0);"><path aspect="4" d="M 32,67.88888931274414 L 32,55.88888931274414" class="stpa-edge" style="stroke:rgb(102, 179, 255);"/><path aspect="4" d="M 6,-3 L 0,0 L 6,3 Z" transform="rotate(90 32 55.88888931274414) translate(32 55.88888931274414)" class="stpa-edge-arrow" style="fill:rgb(102, 179, 255);stroke:rgb(102, 179, 255);"/></g><g id="stpa_0_UCA6_H7_7_newTransition1" class="pasta" transform="translate(379, 67.88888931274414)"/><g id="stpa_0_UCA6_H7_71" class="sprotty-edge stpa" style="fill:none;stroke:rgb(0, 0, 0);"><path aspect="4" d="M 379,67.88888931274414 L 379,55.88888931274414" class="stpa-edge" style="stroke:rgb(102, 179, 255);"/><path aspect="4" d="M 6,-3 L 0,0 L 6,3 Z" transform="rotate(90 379 55.88888931274414) translate(379 55.88888931274414)" class="stpa-edge-arrow" style="fill:rgb(102, 179, 255);stroke:rgb(102, 179, 255);"/></g></g><g id="stpa_0_UCA1_H6" class="sprotty-edge stpa" style="fill:none;stroke:rgb(0, 0, 0);stroke-width:2px;"><path aspect="4" d="M 282,254.3333339691162 L 282,182.61111164093018" class="stpa-edge" style="stroke:rgb(102, 179, 255);"/><path aspect="4" d="M 6,-3 L 0,0 L 6,3 Z" transform="rotate(90 282 182.61111164093018) translate(282 182.61111164093018)" class="stpa-edge-arrow" style="fill:rgb(102, 179, 255);stroke:rgb(102, 179, 255);"/></g><g id="stpa_0_UCA1_H7_9" class="sprotty-edge stpa-intermediate" style="fill:none;stroke:rgb(0, 0, 0);stroke-width:2px;"><path aspect="4" d="M 561,254.3333339691162 L 561,214.3333339691162 L 798,214.3333339691162 L 798,204.3333339691162" class="stpa-edge" style="stroke:rgb(102, 179, 255);"/></g><g aspect="4" id="stpa_0_UCA1" class="stpa-node stpa" transform="translate(272, 254.3333339691162)" style="fill:rgb(255, 255, 255);stroke:rgb(102, 179, 255);stroke-width:2px;"><g><rect x="0" y="0" width="299" height="24.44444465637207"/></g><text class="label sprotty-label" id="stpa_0_UCA1_label" transform="translate(132.16058921813965, 5) translate(0, 11.666666984558105)" style="cursor:default;fill:rgb(0, 0, 0);font-family:Arial, sans-serif;stroke-width:0px;">UCA1</text><g id="stpa_0_UCA1_H6_newTransition" class="pasta" transform="translate(10, 0)"/><g id="stpa_0_UCA1_H7_9_newTransition2" class="pasta" transform="translate(289, 0)"/></g><g id="stpa_0_UCA2_H7_1" class="sprotty-edge stpa-intermediate" style="fill:none;stroke:rgb(0, 0, 0);stroke-width:2px;"><path aspect="4" d="M 601,254.3333339691162 L 601,244.3333339691162 L 334,244.3333339691162 L 334,204.3333339691162" class="stpa-edge" style="stroke:rgb(102, 179, 255);"/></g><g id="stpa_0_UCA2_H7_6" class="sprotty-edge stpa-intermediate" style="fill:none;stroke:rgb(0, 0, 0);stroke-width:2px;"><path aspect="4" d="M 626,254.3333339691162 L 626,224.3333339691162 L 633,224.3333339691162 L 633,204.3333339691162" class="stpa-edge" style="stroke:rgb(102, 179, 255);"/></g><g aspect="4" id="stpa_0_UCA2" class="stpa-node stpa" transform="translate(591, 254.3333339691162)" style="fill:rgb(255, 255, 255);stroke:rgb(102, 179, 255);stroke-width:2px;"><g><rect x="0" y="0" width="45" height="24.44444465637207"/></g><text class="label sprotty-label" id="stpa_0_UCA2_label" transform="translate(5.160589218139648, 5) translate(0, 11.666666984558105)" style="cursor:default;fill:rgb(0, 0, 0);font-family:Arial, sans-serif;stroke-width:0px;">UCA2</text><g id="stpa_0_UCA2_H7_1_newTransition2" class="pasta" transform="translate(10, 0)"/><g id="stpa_0_UCA2_H7_6_newTransition2" class="pasta" transform="translate(35, 0)"/></g><g id="stpa_0_UCA3_H2" class="sprotty-edge stpa" style="fill:none;stroke:rgb(0, 0, 0);stroke-width:2px;"><path aspect="4" d="M 82,254.3333339691162 L 82,182.61111164093018" class="stpa-edge" style="stroke:rgb(102, 179, 255);"/><path aspect="4" d="M 6,-3 L 0,0 L 6,3 Z" transform="rotate(90 82 182.61111164093018) translate(82 182.61111164093018)" class="stpa-edge-arrow" style="fill:rgb(102, 179, 255);stroke:rgb(102, 179, 255);"/></g><g id="stpa_0_UCA3_H3" class="sprotty-edge stpa" style="fill:none;stroke:rgb(0, 0, 0);stroke-width:2px;"><path aspect="4" d="M 122,254.3333339691162 L 122,182.61111164093018" class="stpa-edge" style="stroke:rgb(102, 179, 255);"/><path aspect="4" d="M 6,-3 L 0,0 L 6,3 Z" transform="rotate(90 122 182.61111164093018) translate(122 182.61111164093018)" class="stpa-edge-arrow" style="fill:rgb(102, 179, 255);stroke:rgb(102, 179, 255);"/></g><g aspect="4" id="stpa_0_UCA3" class="stpa-node stpa" transform="translate(72, 254.3333339691162)" style="fill:rgb(255, 255, 255);stroke:rgb(102, 179, 255);stroke-width:2px;"><g><rect x="0" y="0" width="60" height="24.44444465637207"/></g><text class="label sprotty-label" id="stpa_0_UCA3_label" transform="translate(12.660589218139648, 5) translate(0, 11.666666984558105)" style="cursor:default;fill:rgb(0, 0, 0);font-family:Arial, sans-serif;stroke-width:0px;">UCA3</text><g id="stpa_0_UCA3_H2_newTransition" class="pasta" transform="translate(10, 0)"/><g id="stpa_0_UCA3_H3_newTransition" class="pasta" transform="translate(50, 0)"/></g><g id="stpa_0_UCA4_H7_9" class="sprotty-edge stpa-intermediate" style="fill:none;stroke:rgb(0, 0, 0);stroke-width:2px;"><path aspect="4" d="M 814,254.3333339691162 L 814,244.3333339691162 L 808,244.3333339691162 L 808,204.3333339691162" class="stpa-edge" style="stroke:rgb(102, 179, 255);"/></g><g aspect="4" id="stpa_0_UCA4" class="stpa-node stpa" transform="translate(792, 254.3333339691162)" style="fill:rgb(255, 255, 255);stroke:rgb(102, 179, 255);stroke-width:2px;"><g><rect x="0" y="0" width="44.6788215637207" height="24.44444465637207"/></g><text class="label sprotty-label" id="stpa_0_UCA4_label" transform="translate(5, 5) translate(0, 11.666666984558105)" style="cursor:default;fill:rgb(0, 0, 0);font-family:Arial, sans-serif;stroke-width:0px;">UCA4</text><g id="stpa_0_UCA4_H7_9_newTransition2" class="pasta" transform="translate(22, 0)"/></g><g id="stpa_0_UCA5_H7_8" class="sprotty-edge stpa-intermediate" style="fill:none;stroke:rgb(0, 0, 0);stroke-width:2px;"><path aspect="4" d="M 749,254.3333339691162 L 749,204.3333339691162" class="stpa-edge" style="stroke:rgb(102, 179, 255);"/></g><g aspect="4" id="stpa_0_UCA5" class="stpa-node stpa" transform="translate(727, 254.3333339691162)" style="fill:rgb(255, 255, 255);stroke:rgb(102, 179, 255);stroke-width:2px;"><g><rect x="0" y="0" width="44.6788215637207" height="24.44444465637207"/></g><text class="label sprotty-label" id="stpa_0_UCA5_label" transform="translate(5, 5) translate(0, 11.666666984558105)" style="cursor:default;fill:rgb(0, 0, 0);font-family:Arial, sans-serif;stroke-width:0px;">UCA5</text><g id="stpa_0_UCA5_H7_8_newTransition2" class="pasta" transform="translate(22, 0)"/></g><g id="stpa_0_UCA6_H7_1" class="sprotty-edge stpa-intermediate" style="fill:none;stroke:rgb(0, 0, 0);stroke-width:2px;"><path aspect="4" d="M 666,254.3333339691162 L 666,234.3333339691162 L 344,234.3333339691162 L 344,204.3333339691162" class="stpa-edge" style="stroke:rgb(102, 179, 255);"/></g><g id="stpa_0_UCA6_H7_7" class="sprotty-edge stpa-intermediate" style="fill:none;stroke:rgb(0, 0, 0);stroke-width:2px;"><path aspect="4" d="M 691,254.3333339691162 L 691,204.3333339691162" class="stpa-edge" style="stroke:rgb(102, 179, 255);"/></g><g aspect="4" id="stpa_0_UCA6" class="stpa-node stpa" transform="translate(656, 254.3333339691162)" style="fill:rgb(255, 255, 255);stroke:rgb(102, 179, 255);stroke-width:2px;"><g><rect x="0" y="0" width="45" height="24.44444465637207"/></g><text class="label sprotty-label" id="stpa_0_UCA6_label" transform="translate(5.160589218139648, 5) translate(0, 11.666666984558105)" style="cursor:default;fill:rgb(0, 0, 0);font-family:Arial, sans-serif;stroke-width:0px;">UCA6</text><g id="stpa_0_UCA6_H7_1_newTransition2" class="pasta" transform="translate(10, 0)"/><g id="stpa_0_UCA6_H7_7_newTransition2" class="pasta" transform="translate(35, 0)"/></g></g></g></svg>