<svg xmlns="http://www.w3.org/2000/svg" id="stpa_4_root" class="sprotty-graph" style="flex-basis:0%;flex-grow:1;font-family:&quot;Helvetica Neue&quot;, Helvetica, Arial, sans-serif;font-size:13px;perspective-origin:0px 75px;scrollbar-color:rgba(100, 100, 100, 0.4) rgb(255, 255, 255);transform-origin:0px 75px;-webkit-locale:&quot;en&quot;;" version="1.1" viewBox="12 12 558.72998046875 210.5" width="558.72998046875" height="210.5"><g transform="scale(1) translate(0,0)"><g id="stpa_4_relationships" class="parent" transform="translate(12, 12)"><rect x="0" y="0" width="558.7299699783325" height="210.49999809265137" class="print-node" style="fill-opacity:0;stroke:rgb(0, 0, 0);"> </rect><g aspect="0" id="stpa_4_L1" class="stpa-node stpa" transform="translate(130, 12)" style="fill:rgb(255, 255, 255);stroke:rgb(255, 40, 40);stroke-width:2px;"><g><rect x="0" y="0" width="24.466145515441895" height="24.16666603088379"/></g><text class="label sprotty-label" id="stpa_4_L1_label" transform="translate(5, 5) translate(0, 11.666666030883789)" style="cursor:default;fill:rgb(0, 0, 0);font-family:Arial, sans-serif;stroke-width:0px;">L1</text><g id="stpa_4_H1_L1_newTransition" class="pasta-hidden pasta" transform="translate(11.5, 24.16666603088379)" style="opacity:0;"><g><rect x="0" y="0" width="1" height="1"/></g></g></g><g aspect="0" id="stpa_4_L2" class="stpa-node stpa" transform="translate(175, 12)" style="fill:rgb(255, 255, 255);stroke:rgb(255, 40, 40);stroke-width:2px;"><g><rect x="0" y="0" width="32" height="24.16666603088379"/></g><text class="label sprotty-label" id="stpa_4_L2_label" transform="translate(8.63501501083374, 5) translate(0, 11.666666030883789)" style="cursor:default;fill:rgb(0, 0, 0);font-family:Arial, sans-serif;stroke-width:0px;">L2</text><g id="stpa_4_H1_L2_newTransition" class="pasta-hidden pasta" transform="translate(10, 24.16666603088379)" style="opacity:0;"><g><rect x="0" y="0" width="1" height="1"/></g></g><g id="stpa_4_H2_L2_newTransition" class="pasta-hidden pasta" transform="translate(21, 24.16666603088379)" style="opacity:0;"><g><rect x="0" y="0" width="1" height="1"/></g></g></g><g aspect="0" id="stpa_4_L3" class="stpa-node stpa" transform="translate(391, 12)" style="fill:rgb(255, 255, 255);stroke:rgb(255, 40, 40);stroke-width:2px;"><g><rect x="0" y="0" width="59" height="24.16666603088379"/></g><text class="label sprotty-label" id="stpa_4_L3_label" transform="translate(22.13501501083374, 5) translate(0, 11.666666030883789)" style="cursor:default;fill:rgb(0, 0, 0);font-family:Arial, sans-serif;stroke-width:0px;">L3</text><g id="stpa_4_H3_L3_newTransition" class="pasta-hidden pasta" transform="translate(10, 24.16666603088379)" style="opacity:0;"><g><rect x="0" y="0" width="1" height="1"/></g></g><g id="stpa_4_H4_L3_newTransition" class="pasta-hidden pasta" transform="translate(37, 24.16666603088379)" style="opacity:0;"><g><rect x="0" y="0" width="1" height="1"/></g></g><g id="stpa_4_H5_L3_newTransition" class="pasta-hidden pasta" transform="translate(48, 24.16666603088379)" style="opacity:0;"><g><rect x="0" y="0" width="1" height="1"/></g></g></g><g aspect="0" id="stpa_4_L4" class="stpa-node stpa" transform="translate(522, 12)" style="fill:rgb(255, 255, 255);stroke:rgb(255, 40, 40);stroke-width:2px;"><g><rect x="0" y="0" width="24.72996997833252" height="24.16666603088379"/></g><text class="label sprotty-label" id="stpa_4_L4_label" transform="translate(5, 5) translate(0, 11.666666030883789)" style="cursor:default;fill:rgb(0, 0, 0);font-family:Arial, sans-serif;stroke-width:0px;">L4</text><g id="stpa_4_H4_L4_newTransition" class="pasta-hidden pasta" transform="translate(11.5, 24.16666603088379)" style="opacity:0;"><g><rect x="0" y="0" width="1" height="1"/></g></g></g><g aspect="0" id="stpa_4_L5" class="stpa-node stpa" transform="translate(470, 12)" style="fill:rgb(255, 255, 255);stroke:rgb(255, 40, 40);stroke-width:2px;"><g><rect x="0" y="0" width="32" height="24.16666603088379"/></g><text class="label sprotty-label" id="stpa_4_L5_label" transform="translate(8.63501501083374, 5) translate(0, 11.666666030883789)" style="cursor:default;fill:rgb(0, 0, 0);font-family:Arial, sans-serif;stroke-width:0px;">L5</text><g id="stpa_4_H3_L5_newTransition" class="pasta-hidden pasta" transform="translate(10, 24.16666603088379)" style="opacity:0;"><g><rect x="0" y="0" width="1" height="1"/></g></g><g id="stpa_4_H4_L5_newTransition" class="pasta-hidden pasta" transform="translate(21, 24.16666603088379)" style="opacity:0;"><g><rect x="0" y="0" width="1" height="1"/></g></g></g><g id="stpa_4_H1_L1" class="sprotty-edge stpa" style="fill:none;stroke:rgb(0, 0, 0);stroke-width:2px;"><g aspect="0" class="stpa-edge" style="stroke:rgb(255, 40, 40);"><path d="M 142,78.16666603088379 L 142,39.16666603088379"/></g><path aspect="0" d="M 6,-3 L 0,0 L 6,3 Z" transform="rotate(90.73452103425483 142 38.16666603088379) translate(142 38.16666603088379)" class="stpa-edge-arrow" style="fill:rgb(255, 40, 40);stroke:rgb(255, 40, 40);"/></g><g id="stpa_4_H1_L2" class="sprotty-edge stpa" style="fill:none;stroke:rgb(0, 0, 0);stroke-width:2px;"><g aspect="0" class="stpa-edge" style="stroke:rgb(255, 40, 40);"><path d="M 142,78.16666603088379 L 142,67.16666603088379 L 186,67.16666603088379 L 186,39.16666603088379"/><ellipse transform="translate(142,67.16666603088379)" cx="0" cy="0" rx="1.5" ry="1.5"/></g><path aspect="0" d="M 6,-3 L 0,0 L 6,3 Z" transform="rotate(90 186 38.16666603088379) translate(186 38.16666603088379)" class="stpa-edge-arrow" style="fill:rgb(255, 40, 40);stroke:rgb(255, 40, 40);"/></g><g aspect="0" id="stpa_4_H1" class="stpa-node stpa" transform="translate(27, 78.16666603088379)" style="fill:rgb(255, 255, 255);stroke:rgb(255, 40, 40);stroke-width:2px;"><g><rect x="0" y="0" rx="5" ry="5" width="137" height="24.16666603088379"/></g><text class="label sprotty-label" id="stpa_4_H1_label" transform="translate(60.186198234558105, 5) translate(0, 11.666666030883789)" style="cursor:default;fill:rgb(0, 0, 0);font-family:Arial, sans-serif;stroke-width:0px;">H1</text><g id="stpa_4_H1_outPort" class="pasta-hidden pasta" transform="translate(114, -1)" style="opacity:0;"><g><rect x="0" y="0" width="1" height="1"/></g></g><g id="stpa_4_UCA61_H1_newTransition" class="pasta-hidden pasta" transform="translate(10, 24.16666603088379)" style="opacity:0;"><g><rect x="0" y="0" width="1" height="1"/></g></g><g id="stpa_4_UCA62_H1_newTransition" class="pasta-hidden pasta" transform="translate(82, 24.16666603088379)" style="opacity:0;"><g><rect x="0" y="0" width="1" height="1"/></g></g><g id="stpa_4_UCA63_H1_newTransition" class="pasta-hidden pasta" transform="translate(93, 24.16666603088379)" style="opacity:0;"><g><rect x="0" y="0" width="1" height="1"/></g></g><g id="stpa_4_UCA64_H1_newTransition" class="pasta-hidden pasta" transform="translate(104, 24.16666603088379)" style="opacity:0;"><g><rect x="0" y="0" width="1" height="1"/></g></g><g id="stpa_4_UCA65_H1_newTransition" class="pasta-hidden pasta" transform="translate(115, 24.16666603088379)" style="opacity:0;"><g><rect x="0" y="0" width="1" height="1"/></g></g><g id="stpa_4_UCA66_H1_newTransition" class="pasta-hidden pasta" transform="translate(126, 24.16666603088379)" style="opacity:0;"><g><rect x="0" y="0" width="1" height="1"/></g></g></g><g id="stpa_4_H2_L2" class="sprotty-edge stpa" style="fill:none;stroke:rgb(0, 0, 0);stroke-width:2px;"><g aspect="0" class="stpa-edge" style="stroke:rgb(255, 40, 40);"><path d="M 197,78.16666603088379 L 197,39.16666603088379"/></g><path aspect="0" d="M 6,-3 L 0,0 L 6,3 Z" transform="rotate(90 197 38.16666603088379) translate(197 38.16666603088379)" class="stpa-edge-arrow" style="fill:rgb(255, 40, 40);stroke:rgb(255, 40, 40);"/></g><g aspect="0" id="stpa_4_H2" class="stpa-node stpa" transform="translate(184, 78.16666603088379)" style="fill:rgb(255, 255, 255);stroke:rgb(255, 40, 40);stroke-width:2px;"><g><rect x="0" y="0" rx="5" ry="5" width="26.888172149658203" height="24.16666603088379"/></g><text class="label sprotty-label" id="stpa_4_H2_label" transform="translate(5, 5) translate(0, 11.666666030883789)" style="cursor:default;fill:rgb(0, 0, 0);font-family:Arial, sans-serif;stroke-width:0px;">H2</text><g id="stpa_4_H2_outPort" class="pasta-hidden pasta" transform="translate(12.5, -1)" style="opacity:0;"><g><rect x="0" y="0" width="1" height="1"/></g></g></g><g id="stpa_4_H3_L3" class="sprotty-edge stpa" style="fill:none;stroke:rgb(0, 0, 0);stroke-width:2px;"><g aspect="0" class="stpa-edge" style="stroke:rgb(255, 40, 40);"><path d="M 401.5,78.16666603088379 L 401.5,39.16666603088379"/></g><path aspect="0" d="M 6,-3 L 0,0 L 6,3 Z" transform="rotate(90 401.5 38.16666603088379) translate(401.5 38.16666603088379)" class="stpa-edge-arrow" style="fill:rgb(255, 40, 40);stroke:rgb(255, 40, 40);"/></g><g id="stpa_4_H3_L5" class="sprotty-edge stpa" style="fill:none;stroke:rgb(0, 0, 0);stroke-width:2px;"><g aspect="0" class="stpa-edge" style="stroke:rgb(255, 40, 40);"><path d="M 402,78.16666603088379 L 402,47.16666603088379 L 481,47.16666603088379 L 481,39.16666603088379"/><ellipse transform="translate(402,47.16666603088379)" cx="0" cy="0" rx="1.5" ry="1.5"/></g><path aspect="0" d="M 6,-3 L 0,0 L 6,3 Z" transform="rotate(90 481 38.16666603088379) translate(481 38.16666603088379)" class="stpa-edge-arrow" style="fill:rgb(255, 40, 40);stroke:rgb(255, 40, 40);"/></g><g aspect="0" id="stpa_4_H3" class="stpa-node stpa" transform="translate(231, 78.16666603088379)" style="fill:rgb(255, 255, 255);stroke:rgb(255, 40, 40);stroke-width:2px;"><g><rect x="0" y="0" rx="5" ry="5" width="181" height="24.16666603088379"/></g><text class="label sprotty-label" id="stpa_4_H3_label" transform="translate(82.0559139251709, 5) translate(0, 11.666666030883789)" style="cursor:default;fill:rgb(0, 0, 0);font-family:Arial, sans-serif;stroke-width:0px;">H3</text><g id="stpa_4_H3_outPort" class="pasta-hidden pasta" transform="translate(170, -1)" style="opacity:0;"><g><rect x="0" y="0" width="1" height="1"/></g></g><g id="stpa_4_UCA61_H3_newTransition" class="pasta-hidden pasta" transform="translate(10, 24.16666603088379)" style="opacity:0;"><g><rect x="0" y="0" width="1" height="1"/></g></g><g id="stpa_4_UCA62_H3_newTransition" class="pasta-hidden pasta" transform="translate(21, 24.16666603088379)" style="opacity:0;"><g><rect x="0" y="0" width="1" height="1"/></g></g><g id="stpa_4_UCA63_H3_newTransition" class="pasta-hidden pasta" transform="translate(32, 24.16666603088379)" style="opacity:0;"><g><rect x="0" y="0" width="1" height="1"/></g></g><g id="stpa_4_UCA64_H3_newTransition" class="pasta-hidden pasta" transform="translate(43, 24.16666603088379)" style="opacity:0;"><g><rect x="0" y="0" width="1" height="1"/></g></g><g id="stpa_4_UCA65_H3_newTransition" class="pasta-hidden pasta" transform="translate(97, 24.16666603088379)" style="opacity:0;"><g><rect x="0" y="0" width="1" height="1"/></g></g><g id="stpa_4_UCA66_H3_newTransition" class="pasta-hidden pasta" transform="translate(170, 24.16666603088379)" style="opacity:0;"><g><rect x="0" y="0" width="1" height="1"/></g></g></g><g id="stpa_4_H4_L3" class="sprotty-edge stpa" style="fill:none;stroke:rgb(0, 0, 0);stroke-width:2px;"><g aspect="0" class="stpa-edge" style="stroke:rgb(255, 40, 40);"><path d="M 492,78.16666603088379 L 492,67.16666603088379 L 429,67.16666603088379 L 429,39.16666603088379"/><ellipse transform="translate(492,67.16666603088379)" cx="0" cy="0" rx="1.5" ry="1.5"/></g><path aspect="0" d="M 6,-3 L 0,0 L 6,3 Z" transform="rotate(90 429 38.16666603088379) translate(429 38.16666603088379)" class="stpa-edge-arrow" style="fill:rgb(255, 40, 40);stroke:rgb(255, 40, 40);"/></g><g id="stpa_4_H4_L4" class="sprotty-edge stpa" style="fill:none;stroke:rgb(0, 0, 0);stroke-width:2px;"><g aspect="0" class="stpa-edge" style="stroke:rgb(255, 40, 40);"><path d="M 492,78.16666603088379 L 492,67.16666603088379 L 534,67.16666603088379 L 534,39.16666603088379"/></g><path aspect="0" d="M 6,-3 L 0,0 L 6,3 Z" transform="rotate(90 534 38.16666603088379) translate(534 38.16666603088379)" class="stpa-edge-arrow" style="fill:rgb(255, 40, 40);stroke:rgb(255, 40, 40);"/></g><g id="stpa_4_H4_L5" class="sprotty-edge stpa" style="fill:none;stroke:rgb(0, 0, 0);stroke-width:2px;"><g aspect="0" class="stpa-edge" style="stroke:rgb(255, 40, 40);"><path d="M 492,78.16666603088379 L 492,39.16666603088379"/></g><path aspect="0" d="M 6,-3 L 0,0 L 6,3 Z" transform="rotate(90 492 38.16666603088379) translate(492 38.16666603088379)" class="stpa-edge-arrow" style="fill:rgb(255, 40, 40);stroke:rgb(255, 40, 40);"/></g><g aspect="0" id="stpa_4_H4" class="stpa-node stpa" transform="translate(479, 78.16666603088379)" style="fill:rgb(255, 255, 255);stroke:rgb(255, 40, 40);stroke-width:2px;"><g><rect x="0" y="0" rx="5" ry="5" width="26.888172149658203" height="24.16666603088379"/></g><text class="label sprotty-label" id="stpa_4_H4_label" transform="translate(5, 5) translate(0, 11.666666030883789)" style="cursor:default;fill:rgb(0, 0, 0);font-family:Arial, sans-serif;stroke-width:0px;">H4</text><g id="stpa_4_H4_outPort" class="pasta-hidden pasta" transform="translate(12.5, -1)" style="opacity:0;"><g><rect x="0" y="0" width="1" height="1"/></g></g></g><g id="stpa_4_H5_L3" class="sprotty-edge stpa" style="fill:none;stroke:rgb(0, 0, 0);stroke-width:2px;"><g aspect="0" class="stpa-edge" style="stroke:rgb(255, 40, 40);"><path d="M 445,78.16666603088379 L 445,57.16666603088379 L 440,57.16666603088379 L 440,39.16666603088379"/></g><path aspect="0" d="M 6,-3 L 0,0 L 6,3 Z" transform="rotate(90 440 38.16666603088379) translate(440 38.16666603088379)" class="stpa-edge-arrow" style="fill:rgb(255, 40, 40);stroke:rgb(255, 40, 40);"/></g><g aspect="0" id="stpa_4_H5" class="stpa-node stpa" transform="translate(432, 78.16666603088379)" style="fill:rgb(255, 255, 255);stroke:rgb(255, 40, 40);stroke-width:2px;"><g><rect x="0" y="0" rx="5" ry="5" width="26.888172149658203" height="24.16666603088379"/></g><text class="label sprotty-label" id="stpa_4_H5_label" transform="translate(5, 5) translate(0, 11.666666030883789)" style="cursor:default;fill:rgb(0, 0, 0);font-family:Arial, sans-serif;stroke-width:0px;">H5</text><g id="stpa_4_H5_outPort" class="pasta-hidden pasta" transform="translate(12.5, -1)" style="opacity:0;"><g><rect x="0" y="0" width="1" height="1"/></g></g></g><g id="stpa_4_UCA61_H1" class="sprotty-edge stpa" style="fill:none;stroke:rgb(0, 0, 0);stroke-width:2px;"><g aspect="4" class="stpa-edge" style="stroke:rgb(102, 179, 255);"><path d="M 38,174.33333206176758 L 38,105.33333206176758"/></g><path aspect="4" d="M 6,-3 L 0,0 L 6,3 Z" transform="rotate(90 38 104.33333206176758) translate(38 104.33333206176758)" class="stpa-edge-arrow" style="fill:rgb(102, 179, 255);stroke:rgb(102, 179, 255);"/></g><g id="stpa_4_UCA61_H3" class="sprotty-edge stpa" style="fill:none;stroke:rgb(0, 0, 0);stroke-width:2px;"><g aspect="4" class="stpa-edge" style="stroke:rgb(102, 179, 255);"><path d="M 38,174.33333206176758 L 38,113.33333206176758 L 242,113.33333206176758 L 242,105.33333206176758"/><ellipse transform="translate(38,113.33333206176758)" cx="0" cy="0" rx="1.5" ry="1.5"/></g><path aspect="4" d="M 6,-3 L 0,0 L 6,3 Z" transform="rotate(90 242 104.33333206176758) translate(242 104.33333206176758)" class="stpa-edge-arrow" style="fill:rgb(102, 179, 255);stroke:rgb(102, 179, 255);"/></g><g aspect="4" id="stpa_4_UCA61" class="stpa-node stpa" transform="translate(12, 174.33333206176758)" style="fill:rgb(255, 255, 255);stroke:rgb(102, 179, 255);stroke-width:2px;"><g><rect x="0" y="0" width="51.9140625" height="24.16666603088379"/></g><text class="label sprotty-label" id="stpa_4_UCA61_label" transform="translate(5, 5) translate(0, 11.666666030883789)" style="cursor:default;fill:rgb(0, 0, 0);font-family:Arial, sans-serif;stroke-width:0px;">UCA61</text><g id="stpa_4_UCA61_outPort" class="pasta-hidden pasta" transform="translate(25.5, -1)" style="opacity:0;"><g><rect x="0" y="0" width="1" height="1"/></g></g></g><g id="stpa_4_UCA62_H1" class="sprotty-edge stpa" style="fill:none;stroke:rgb(0, 0, 0);stroke-width:2px;"><g aspect="4" class="stpa-edge" style="stroke:rgb(102, 179, 255);"><path d="M 110,174.33333206176758 L 110,105.33333206176758"/></g><path aspect="4" d="M 6,-3 L 0,0 L 6,3 Z" transform="rotate(90 110 104.33333206176758) translate(110 104.33333206176758)" class="stpa-edge-arrow" style="fill:rgb(102, 179, 255);stroke:rgb(102, 179, 255);"/></g><g id="stpa_4_UCA62_H3" class="sprotty-edge stpa" style="fill:none;stroke:rgb(0, 0, 0);stroke-width:2px;"><g aspect="4" class="stpa-edge" style="stroke:rgb(102, 179, 255);"><path d="M 110,174.33333206176758 L 110,133.33333206176758 L 253,133.33333206176758 L 253,105.33333206176758"/><ellipse transform="translate(110,133.33333206176758)" cx="0" cy="0" rx="1.5" ry="1.5"/></g><path aspect="4" d="M 6,-3 L 0,0 L 6,3 Z" transform="rotate(90 253 104.33333206176758) translate(253 104.33333206176758)" class="stpa-edge-arrow" style="fill:rgb(102, 179, 255);stroke:rgb(102, 179, 255);"/></g><g aspect="4" id="stpa_4_UCA62" class="stpa-node stpa" transform="translate(84, 174.33333206176758)" style="fill:rgb(255, 255, 255);stroke:rgb(102, 179, 255);stroke-width:2px;"><g><rect x="0" y="0" width="52.17721176147461" height="24.16666603088379"/></g><text class="label sprotty-label" id="stpa_4_UCA62_label" transform="translate(5, 5) translate(0, 11.666666030883789)" style="cursor:default;fill:rgb(0, 0, 0);font-family:Arial, sans-serif;stroke-width:0px;">UCA62</text><g id="stpa_4_UCA62_outPort" class="pasta-hidden pasta" transform="translate(25.5, -1)" style="opacity:0;"><g><rect x="0" y="0" width="1" height="1"/></g></g></g><g id="stpa_4_UCA63_H1" class="sprotty-edge stpa" style="fill:none;stroke:rgb(0, 0, 0);stroke-width:2px;"><g aspect="4" class="stpa-edge" style="stroke:rgb(102, 179, 255);"><path d="M 183,174.33333206176758 L 183,163.33333206176758 L 121,163.33333206176758 L 121,105.33333206176758"/><ellipse transform="translate(183,163.33333206176758)" cx="0" cy="0" rx="1.5" ry="1.5"/></g><path aspect="4" d="M 6,-3 L 0,0 L 6,3 Z" transform="rotate(90 121 104.33333206176758) translate(121 104.33333206176758)" class="stpa-edge-arrow" style="fill:rgb(102, 179, 255);stroke:rgb(102, 179, 255);"/></g><g id="stpa_4_UCA63_H3" class="sprotty-edge stpa" style="fill:none;stroke:rgb(0, 0, 0);stroke-width:2px;"><g aspect="4" class="stpa-edge" style="stroke:rgb(102, 179, 255);"><path d="M 183,174.33333206176758 L 183,163.33333206176758 L 264,163.33333206176758 L 264,105.33333206176758"/></g><path aspect="4" d="M 6,-3 L 0,0 L 6,3 Z" transform="rotate(90 264 104.33333206176758) translate(264 104.33333206176758)" class="stpa-edge-arrow" style="fill:rgb(102, 179, 255);stroke:rgb(102, 179, 255);"/></g><g aspect="4" id="stpa_4_UCA63" class="stpa-node stpa" transform="translate(157, 174.33333206176758)" style="fill:rgb(255, 255, 255);stroke:rgb(102, 179, 255);stroke-width:2px;"><g><rect x="0" y="0" width="52.17721176147461" height="24.16666603088379"/></g><text class="label sprotty-label" id="stpa_4_UCA63_label" transform="translate(5, 5) translate(0, 11.666666030883789)" style="cursor:default;fill:rgb(0, 0, 0);font-family:Arial, sans-serif;stroke-width:0px;">UCA63</text><g id="stpa_4_UCA63_outPort" class="pasta-hidden pasta" transform="translate(25.5, -1)" style="opacity:0;"><g><rect x="0" y="0" width="1" height="1"/></g></g></g><g id="stpa_4_UCA64_H1" class="sprotty-edge stpa" style="fill:none;stroke:rgb(0, 0, 0);stroke-width:2px;"><g aspect="4" class="stpa-edge" style="stroke:rgb(102, 179, 255);"><path d="M 256,174.33333206176758 L 256,153.33333206176758 L 132,153.33333206176758 L 132,105.33333206176758"/><ellipse transform="translate(256,153.33333206176758)" cx="0" cy="0" rx="1.5" ry="1.5"/></g><path aspect="4" d="M 6,-3 L 0,0 L 6,3 Z" transform="rotate(90 132 104.33333206176758) translate(132 104.33333206176758)" class="stpa-edge-arrow" style="fill:rgb(102, 179, 255);stroke:rgb(102, 179, 255);"/></g><g id="stpa_4_UCA64_H3" class="sprotty-edge stpa" style="fill:none;stroke:rgb(0, 0, 0);stroke-width:2px;"><g aspect="4" class="stpa-edge" style="stroke:rgb(102, 179, 255);"><path d="M 256,174.33333206176758 L 256,153.33333206176758 L 275,153.33333206176758 L 275,105.33333206176758"/></g><path aspect="4" d="M 6,-3 L 0,0 L 6,3 Z" transform="rotate(90 275 104.33333206176758) translate(275 104.33333206176758)" class="stpa-edge-arrow" style="fill:rgb(102, 179, 255);stroke:rgb(102, 179, 255);"/></g><g aspect="4" id="stpa_4_UCA64" class="stpa-node stpa" transform="translate(230, 174.33333206176758)" style="fill:rgb(255, 255, 255);stroke:rgb(102, 179, 255);stroke-width:2px;"><g><rect x="0" y="0" width="52.17721176147461" height="24.16666603088379"/></g><text class="label sprotty-label" id="stpa_4_UCA64_label" transform="translate(5, 5) translate(0, 11.666666030883789)" style="cursor:default;fill:rgb(0, 0, 0);font-family:Arial, sans-serif;stroke-width:0px;">UCA64</text><g id="stpa_4_UCA64_outPort" class="pasta-hidden pasta" transform="translate(25.5, -1)" style="opacity:0;"><g><rect x="0" y="0" width="1" height="1"/></g></g></g><g id="stpa_4_UCA65_H1" class="sprotty-edge stpa" style="fill:none;stroke:rgb(0, 0, 0);stroke-width:2px;"><g aspect="4" class="stpa-edge" style="stroke:rgb(102, 179, 255);"><path d="M 329,174.33333206176758 L 329,143.33333206176758 L 143,143.33333206176758 L 143,105.33333206176758"/><ellipse transform="translate(329,143.33333206176758)" cx="0" cy="0" rx="1.5" ry="1.5"/></g><path aspect="4" d="M 6,-3 L 0,0 L 6,3 Z" transform="rotate(90 143 104.33333206176758) translate(143 104.33333206176758)" class="stpa-edge-arrow" style="fill:rgb(102, 179, 255);stroke:rgb(102, 179, 255);"/></g><g id="stpa_4_UCA65_H3" class="sprotty-edge stpa" style="fill:none;stroke:rgb(0, 0, 0);stroke-width:2px;"><g aspect="4" class="stpa-edge" style="stroke:rgb(102, 179, 255);"><path d="M 329,174.33333206176758 L 329,105.33333206176758"/></g><path aspect="4" d="M 6,-3 L 0,0 L 6,3 Z" transform="rotate(90 329 104.33333206176758) translate(329 104.33333206176758)" class="stpa-edge-arrow" style="fill:rgb(102, 179, 255);stroke:rgb(102, 179, 255);"/></g><g aspect="4" id="stpa_4_UCA65" class="stpa-node stpa" transform="translate(303, 174.33333206176758)" style="fill:rgb(255, 255, 255);stroke:rgb(102, 179, 255);stroke-width:2px;"><g><rect x="0" y="0" width="52.17721176147461" height="24.16666603088379"/></g><text class="label sprotty-label" id="stpa_4_UCA65_label" transform="translate(5, 5) translate(0, 11.666666030883789)" style="cursor:default;fill:rgb(0, 0, 0);font-family:Arial, sans-serif;stroke-width:0px;">UCA65</text><g id="stpa_4_UCA65_outPort" class="pasta-hidden pasta" transform="translate(25.5, -1)" style="opacity:0;"><g><rect x="0" y="0" width="1" height="1"/></g></g></g><g id="stpa_4_UCA66_H1" class="sprotty-edge stpa" style="fill:none;stroke:rgb(0, 0, 0);stroke-width:2px;"><g aspect="4" class="stpa-edge" style="stroke:rgb(102, 179, 255);"><path d="M 402,174.33333206176758 L 402,123.33333206176758 L 154,123.33333206176758 L 154,105.33333206176758"/><ellipse transform="translate(402,123.33333206176758)" cx="0" cy="0" rx="1.5" ry="1.5"/></g><path aspect="4" d="M 6,-3 L 0,0 L 6,3 Z" transform="rotate(90 154 104.33333206176758) translate(154 104.33333206176758)" class="stpa-edge-arrow" style="fill:rgb(102, 179, 255);stroke:rgb(102, 179, 255);"/></g><g id="stpa_4_UCA66_H3" class="sprotty-edge stpa" style="fill:none;stroke:rgb(0, 0, 0);stroke-width:2px;"><g aspect="4" class="stpa-edge" style="stroke:rgb(102, 179, 255);"><path d="M 402,174.33333206176758 L 402,105.33333206176758"/></g><path aspect="4" d="M 6,-3 L 0,0 L 6,3 Z" transform="rotate(90 402 104.33333206176758) translate(402 104.33333206176758)" class="stpa-edge-arrow" style="fill:rgb(102, 179, 255);stroke:rgb(102, 179, 255);"/></g><g aspect="4" id="stpa_4_UCA66" class="stpa-node stpa" transform="translate(376, 174.33333206176758)" style="fill:rgb(255, 255, 255);stroke:rgb(102, 179, 255);stroke-width:2px;"><g><rect x="0" y="0" width="52.17721176147461" height="24.16666603088379"/></g><text class="label sprotty-label" id="stpa_4_UCA66_label" transform="translate(5, 5) translate(0, 11.666666030883789)" style="cursor:default;fill:rgb(0, 0, 0);font-family:Arial, sans-serif;stroke-width:0px;">UCA66</text><g id="stpa_4_UCA66_outPort" class="pasta-hidden pasta" transform="translate(25.5, -1)" style="opacity:0;"><g><rect x="0" y="0" width="1" height="1"/></g></g></g></g></g></svg>