<svg xmlns="http://www.w3.org/2000/svg" id="stpa_4_root" class="sprotty-graph" style="flex-basis:0%;flex-grow:1;font-family:&quot;Helvetica Neue&quot;, Helvetica, Arial, sans-serif;font-size:13px;perspective-origin:0px 75px;scrollbar-color:rgba(100, 100, 100, 0.4) rgb(255, 255, 255);transform-origin:0px 75px;-webkit-locale:&quot;en&quot;;" version="1.1" viewBox="12 12 560.40087890625 216.66665649414062" width="560.40087890625" height="216.66665649414062"><g transform="scale(1) translate(0,0)"><g id="stpa_4_relationships" class="parent" transform="translate(12, 12)"><rect x="0" y="0" width="560.4008655548096" height="216.66666412353516" class="print-node" style="fill-opacity:0;stroke:rgb(0, 0, 0);"> </rect><g aspect="0" id="stpa_4_L1" class="stpa-node stpa" transform="translate(27, 12)" style="fill:rgb(255, 255, 255);stroke:rgb(255, 40, 40);stroke-width:2px;"><g><rect x="0" y="0" width="24.466145515441895" height="24.16666603088379"/></g><text class="label sprotty-label" id="stpa_4_L1_label" transform="translate(5, 5) translate(0, 11.666666030883789)" style="cursor:default;fill:rgb(0, 0, 0);font-family:Arial, sans-serif;stroke-width:0px;">L1</text><g id="stpa_4_H1_L1_newTransition" class="pasta-hidden pasta" transform="translate(11.5, 24.16666603088379)" style="opacity:0;"><g><rect x="0" y="0" width="1" height="1"/></g></g></g><g aspect="0" id="stpa_4_L2" class="stpa-node stpa" transform="translate(72, 12)" style="fill:rgb(255, 255, 255);stroke:rgb(255, 40, 40);stroke-width:2px;"><g><rect x="0" y="0" width="32" height="24.16666603088379"/></g><text class="label sprotty-label" id="stpa_4_L2_label" transform="translate(8.63501501083374, 5) translate(0, 11.666666030883789)" style="cursor:default;fill:rgb(0, 0, 0);font-family:Arial, sans-serif;stroke-width:0px;">L2</text><g id="stpa_4_H1_L2_newTransition" class="pasta-hidden pasta" transform="translate(10, 24.16666603088379)" style="opacity:0;"><g><rect x="0" y="0" width="1" height="1"/></g></g><g id="stpa_4_H2_L2_newTransition" class="pasta-hidden pasta" transform="translate(21, 24.16666603088379)" style="opacity:0;"><g><rect x="0" y="0" width="1" height="1"/></g></g></g><g aspect="0" id="stpa_4_L3" class="stpa-node stpa" transform="translate(247, 12)" style="fill:rgb(255, 255, 255);stroke:rgb(255, 40, 40);stroke-width:2px;"><g><rect x="0" y="0" width="62" height="24.16666603088379"/></g><text class="label sprotty-label" id="stpa_4_L3_label" transform="translate(23.63501501083374, 5) translate(0, 11.666666030883789)" style="cursor:default;fill:rgb(0, 0, 0);font-family:Arial, sans-serif;stroke-width:0px;">L3</text><g id="stpa_4_H3_L3_newTransition" class="pasta-hidden pasta" transform="translate(10, 24.16666603088379)" style="opacity:0;"><g><rect x="0" y="0" width="1" height="1"/></g></g><g id="stpa_4_H4_L3_newTransition" class="pasta-hidden pasta" transform="translate(40, 24.16666603088379)" style="opacity:0;"><g><rect x="0" y="0" width="1" height="1"/></g></g><g id="stpa_4_H5_L3_newTransition" class="pasta-hidden pasta" transform="translate(51, 24.16666603088379)" style="opacity:0;"><g><rect x="0" y="0" width="1" height="1"/></g></g></g><g aspect="0" id="stpa_4_L4" class="stpa-node stpa" transform="translate(381, 12)" style="fill:rgb(255, 255, 255);stroke:rgb(255, 40, 40);stroke-width:2px;"><g><rect x="0" y="0" width="24.72996997833252" height="24.16666603088379"/></g><text class="label sprotty-label" id="stpa_4_L4_label" transform="translate(5, 5) translate(0, 11.666666030883789)" style="cursor:default;fill:rgb(0, 0, 0);font-family:Arial, sans-serif;stroke-width:0px;">L4</text><g id="stpa_4_H4_L4_newTransition" class="pasta-hidden pasta" transform="translate(11.5, 24.16666603088379)" style="opacity:0;"><g><rect x="0" y="0" width="1" height="1"/></g></g></g><g aspect="0" id="stpa_4_L5" class="stpa-node stpa" transform="translate(329, 12)" style="fill:rgb(255, 255, 255);stroke:rgb(255, 40, 40);stroke-width:2px;"><g><rect x="0" y="0" width="32" height="24.16666603088379"/></g><text class="label sprotty-label" id="stpa_4_L5_label" transform="translate(8.63501501083374, 5) translate(0, 11.666666030883789)" style="cursor:default;fill:rgb(0, 0, 0);font-family:Arial, sans-serif;stroke-width:0px;">L5</text><g id="stpa_4_H3_L5_newTransition" class="pasta-hidden pasta" transform="translate(10, 24.16666603088379)" style="opacity:0;"><g><rect x="0" y="0" width="1" height="1"/></g></g><g id="stpa_4_H4_L5_newTransition" class="pasta-hidden pasta" transform="translate(21, 24.16666603088379)" style="opacity:0;"><g><rect x="0" y="0" width="1" height="1"/></g></g></g><g id="stpa_4_H1_L1" class="sprotty-edge stpa" style="fill:none;stroke:rgb(0, 0, 0);stroke-width:2px;"><g aspect="0" class="stpa-edge" style="stroke:rgb(255, 40, 40);"><path d="M 39,68.16666603088379 L 39,39.16666603088379"/></g><path aspect="0" d="M 6,-3 L 0,0 L 6,3 Z" transform="rotate(90 39 38.16666603088379) translate(39 38.16666603088379)" class="stpa-edge-arrow" style="fill:rgb(255, 40, 40);stroke:rgb(255, 40, 40);"/></g><g id="stpa_4_H1_L2" class="sprotty-edge stpa" style="fill:none;stroke:rgb(0, 0, 0);stroke-width:2px;"><g aspect="0" class="stpa-edge" style="stroke:rgb(255, 40, 40);"><path d="M 39,68.16666603088379 L 39,57.16666603088379 L 83,57.16666603088379 L 83,39.16666603088379"/><ellipse transform="translate(39,57.16666603088379)" cx="0" cy="0" rx="1.5" ry="1.5"/></g><path aspect="0" d="M 6,-3 L 0,0 L 6,3 Z" transform="rotate(90 83 38.16666603088379) translate(83 38.16666603088379)" class="stpa-edge-arrow" style="fill:rgb(255, 40, 40);stroke:rgb(255, 40, 40);"/></g><g aspect="0" id="stpa_4_H1" class="stpa-node stpa" transform="translate(26, 68.16666603088379)" style="fill:rgb(255, 255, 255);stroke:rgb(255, 40, 40);stroke-width:2px;"><g><rect x="0" y="0" rx="5" ry="5" width="26.62760353088379" height="24.16666603088379"/></g><text class="label sprotty-label" id="stpa_4_H1_label" transform="translate(5, 5) translate(0, 11.666666030883789)" style="cursor:default;fill:rgb(0, 0, 0);font-family:Arial, sans-serif;stroke-width:0px;">H1</text><g id="stpa_4_H1_outPort" class="pasta-hidden pasta" transform="translate(12.5, -1)" style="opacity:0;"><g><rect x="0" y="0" width="1" height="1"/></g></g></g><g id="stpa_4_H2_L2" class="sprotty-edge stpa" style="fill:none;stroke:rgb(0, 0, 0);stroke-width:2px;"><g aspect="0" class="stpa-edge" style="stroke:rgb(255, 40, 40);"><path d="M 94,68.16666603088379 L 94,39.16666603088379"/></g><path aspect="0" d="M 6,-3 L 0,0 L 6,3 Z" transform="rotate(90 94 38.16666603088379) translate(94 38.16666603088379)" class="stpa-edge-arrow" style="fill:rgb(255, 40, 40);stroke:rgb(255, 40, 40);"/></g><g aspect="0" id="stpa_4_H2" class="stpa-node stpa" transform="translate(81, 68.16666603088379)" style="fill:rgb(255, 255, 255);stroke:rgb(255, 40, 40);stroke-width:2px;"><g><rect x="0" y="0" rx="5" ry="5" width="26.888172149658203" height="24.16666603088379"/></g><text class="label sprotty-label" id="stpa_4_H2_label" transform="translate(5, 5) translate(0, 11.666666030883789)" style="cursor:default;fill:rgb(0, 0, 0);font-family:Arial, sans-serif;stroke-width:0px;">H2</text><g id="stpa_4_H2_outPort" class="pasta-hidden pasta" transform="translate(12.5, -1)" style="opacity:0;"><g><rect x="0" y="0" width="1" height="1"/></g></g></g><g id="stpa_4_H3_L3" class="sprotty-edge stpa" style="fill:none;stroke:rgb(0, 0, 0);stroke-width:2px;"><g aspect="0" class="stpa-edge" style="stroke:rgb(255, 40, 40);"><path d="M 257.5,68.16666603088379 L 257.5,39.16666603088379"/></g><path aspect="0" d="M 6,-3 L 0,0 L 6,3 Z" transform="rotate(90 257.5 38.16666603088379) translate(257.5 38.16666603088379)" class="stpa-edge-arrow" style="fill:rgb(255, 40, 40);stroke:rgb(255, 40, 40);"/></g><g id="stpa_4_H3_L5" class="sprotty-edge stpa" style="fill:none;stroke:rgb(0, 0, 0);stroke-width:2px;"><g aspect="0" class="stpa-edge" style="stroke:rgb(255, 40, 40);"><path d="M 258,68.16666603088379 L 258,47.16666603088379 L 340,47.16666603088379 L 340,39.16666603088379"/><ellipse transform="translate(258,47.16666603088379)" cx="0" cy="0" rx="1.5" ry="1.5"/></g><path aspect="0" d="M 6,-3 L 0,0 L 6,3 Z" transform="rotate(90 340 38.16666603088379) translate(340 38.16666603088379)" class="stpa-edge-arrow" style="fill:rgb(255, 40, 40);stroke:rgb(255, 40, 40);"/></g><g aspect="0" id="stpa_4_H3" class="stpa-node stpa" transform="translate(128, 68.16666603088379)" style="fill:rgb(255, 255, 255);stroke:rgb(255, 40, 40);stroke-width:2px;"><g><rect x="0" y="0" rx="5" ry="5" width="140" height="24.16666603088379"/></g><text class="label sprotty-label" id="stpa_4_H3_label" transform="translate(61.5559139251709, 5) translate(0, 11.666666030883789)" style="cursor:default;fill:rgb(0, 0, 0);font-family:Arial, sans-serif;stroke-width:0px;">H3</text><g id="stpa_4_H3_outPort" class="pasta-hidden pasta" transform="translate(129, -1)" style="opacity:0;"><g><rect x="0" y="0" width="1" height="1"/></g></g><g id="stpa_4_UCA74_H3_newTransition" class="pasta-hidden pasta" transform="translate(10, 24.16666603088379)" style="opacity:0;"><g><rect x="0" y="0" width="1" height="1"/></g></g><g id="stpa_4_UCA75_H3_newTransition" class="pasta-hidden pasta" transform="translate(118, 24.16666603088379)" style="opacity:0;"><g><rect x="0" y="0" width="1" height="1"/></g></g><g id="stpa_4_UCA77_H3_newTransition" class="pasta-hidden pasta" transform="translate(129, 24.16666603088379)" style="opacity:0;"><g><rect x="0" y="0" width="1" height="1"/></g></g></g><g id="stpa_4_H4_L3" class="sprotty-edge stpa" style="fill:none;stroke:rgb(0, 0, 0);stroke-width:2px;"><g aspect="0" class="stpa-edge" style="stroke:rgb(255, 40, 40);"><path d="M 362,68.16666603088379 L 362,57.16666603088379 L 288,57.16666603088379 L 288,39.16666603088379"/><ellipse transform="translate(362,57.16666603088379)" cx="0" cy="0" rx="1.5" ry="1.5"/></g><path aspect="0" d="M 6,-3 L 0,0 L 6,3 Z" transform="rotate(90 288 38.16666603088379) translate(288 38.16666603088379)" class="stpa-edge-arrow" style="fill:rgb(255, 40, 40);stroke:rgb(255, 40, 40);"/></g><g id="stpa_4_H4_L4" class="sprotty-edge stpa" style="fill:none;stroke:rgb(0, 0, 0);stroke-width:2px;"><g aspect="0" class="stpa-edge" style="stroke:rgb(255, 40, 40);"><path d="M 362,68.16666603088379 L 362,57.16666603088379 L 393,57.16666603088379 L 393,39.16666603088379"/></g><path aspect="0" d="M 6,-3 L 0,0 L 6,3 Z" transform="rotate(90 393 38.16666603088379) translate(393 38.16666603088379)" class="stpa-edge-arrow" style="fill:rgb(255, 40, 40);stroke:rgb(255, 40, 40);"/></g><g id="stpa_4_H4_L5" class="sprotty-edge stpa" style="fill:none;stroke:rgb(0, 0, 0);stroke-width:2px;"><g aspect="0" class="stpa-edge" style="stroke:rgb(255, 40, 40);"><path d="M 362,68.16666603088379 L 362,57.16666603088379 L 351,57.16666603088379 L 351,39.16666603088379"/><ellipse transform="translate(351,57.16666603088379)" cx="0" cy="0" rx="1.5" ry="1.5"/></g><path aspect="0" d="M 6,-3 L 0,0 L 6,3 Z" transform="rotate(90 351 38.16666603088379) translate(351 38.16666603088379)" class="stpa-edge-arrow" style="fill:rgb(255, 40, 40);stroke:rgb(255, 40, 40);"/></g><g aspect="0" id="stpa_4_H4" class="stpa-node stpa" transform="translate(351, 68.16666603088379)" style="fill:rgb(255, 255, 255);stroke:rgb(255, 40, 40);stroke-width:2px;"><g><rect x="0" y="0" rx="5" ry="5" width="43" height="24.16666603088379"/></g><text class="label sprotty-label" id="stpa_4_H4_label" transform="translate(13.055913925170898, 5) translate(0, 11.666666030883789)" style="cursor:default;fill:rgb(0, 0, 0);font-family:Arial, sans-serif;stroke-width:0px;">H4</text><g id="stpa_4_H4_outPort" class="pasta-hidden pasta" transform="translate(10, -1)" style="opacity:0;"><g><rect x="0" y="0" width="1" height="1"/></g></g><g id="stpa_4_UCA75_H4_newTransition" class="pasta-hidden pasta" transform="translate(10, 24.16666603088379)" style="opacity:0;"><g><rect x="0" y="0" width="1" height="1"/></g></g><g id="stpa_4_UCA76_H4_newTransition" class="pasta-hidden pasta" transform="translate(21, 24.16666603088379)" style="opacity:0;"><g><rect x="0" y="0" width="1" height="1"/></g></g><g id="stpa_4_UCA77_H4_newTransition" class="pasta-hidden pasta" transform="translate(32, 24.16666603088379)" style="opacity:0;"><g><rect x="0" y="0" width="1" height="1"/></g></g></g><g id="stpa_4_H5_L3" class="sprotty-edge stpa" style="fill:none;stroke:rgb(0, 0, 0);stroke-width:2px;"><g aspect="0" class="stpa-edge" style="stroke:rgb(255, 40, 40);"><path d="M 298.5,68.16666603088379 L 298.5,39.16666603088379"/></g><path aspect="0" d="M 6,-3 L 0,0 L 6,3 Z" transform="rotate(90 298.5 38.16666603088379) translate(298.5 38.16666603088379)" class="stpa-edge-arrow" style="fill:rgb(255, 40, 40);stroke:rgb(255, 40, 40);"/></g><g aspect="0" id="stpa_4_H5" class="stpa-node stpa" transform="translate(288, 68.16666603088379)" style="fill:rgb(255, 255, 255);stroke:rgb(255, 40, 40);stroke-width:2px;"><g><rect x="0" y="0" rx="5" ry="5" width="43" height="24.16666603088379"/></g><text class="label sprotty-label" id="stpa_4_H5_label" transform="translate(13.055913925170898, 5) translate(0, 11.666666030883789)" style="cursor:default;fill:rgb(0, 0, 0);font-family:Arial, sans-serif;stroke-width:0px;">H5</text><g id="stpa_4_H5_outPort" class="pasta-hidden pasta" transform="translate(10, -1)" style="opacity:0;"><g><rect x="0" y="0" width="1" height="1"/></g></g><g id="stpa_4_UCA74_H5_newTransition" class="pasta-hidden pasta" transform="translate(10, 24.16666603088379)" style="opacity:0;"><g><rect x="0" y="0" width="1" height="1"/></g></g><g id="stpa_4_UCA75_H5_newTransition" class="pasta-hidden pasta" transform="translate(21, 24.16666603088379)" style="opacity:0;"><g><rect x="0" y="0" width="1" height="1"/></g></g><g id="stpa_4_UCA77_H5_newTransition" class="pasta-hidden pasta" transform="translate(32, 24.16666603088379)" style="opacity:0;"><g><rect x="0" y="0" width="1" height="1"/></g></g></g><g id="stpa_4_UCA74_H3" class="sprotty-edge stpa" style="fill:none;stroke:rgb(0, 0, 0);stroke-width:2px;"><g aspect="4" class="stpa-edge" style="stroke:rgb(102, 179, 255);"><path d="M 138.5,134.33333206176758 L 138.5,95.33333206176758"/></g><path aspect="4" d="M 6,-3 L 0,0 L 6,3 Z" transform="rotate(90 138.5 94.33333206176758) translate(138.5 94.33333206176758)" class="stpa-edge-arrow" style="fill:rgb(102, 179, 255);stroke:rgb(102, 179, 255);"/></g><g id="stpa_4_UCA74_H5" class="sprotty-edge stpa" style="fill:none;stroke:rgb(0, 0, 0);stroke-width:2px;"><g aspect="4" class="stpa-edge" style="stroke:rgb(102, 179, 255);"><path d="M 139,134.33333206176758 L 139,103.33333206176758 L 299,103.33333206176758 L 299,95.33333206176758"/><ellipse transform="translate(139,103.33333206176758)" cx="0" cy="0" rx="1.5" ry="1.5"/></g><path aspect="4" d="M 6,-3 L 0,0 L 6,3 Z" transform="rotate(90 299 94.33333206176758) translate(299 94.33333206176758)" class="stpa-edge-arrow" style="fill:rgb(102, 179, 255);stroke:rgb(102, 179, 255);"/></g><g aspect="4" id="stpa_4_UCA74" class="stpa-node stpa" transform="translate(18, 134.33333206176758)" style="fill:rgb(255, 255, 255);stroke:rgb(102, 179, 255);stroke-width:2px;"><g><rect x="0" y="0" width="131" height="24.16666603088379"/></g><text class="label sprotty-label" id="stpa_4_UCA74_label" transform="translate(44.411394119262695, 5) translate(0, 11.666666030883789)" style="cursor:default;fill:rgb(0, 0, 0);font-family:Arial, sans-serif;stroke-width:0px;">UCA74</text><g id="stpa_4_UCA74_outPort" class="pasta-hidden pasta" transform="translate(120, -1)" style="opacity:0;"><g><rect x="0" y="0" width="1" height="1"/></g></g><g id="stpa_4_S40_UCA74_newTransition" class="pasta-hidden pasta" transform="translate(10, 24.16666603088379)" style="opacity:0;"><g><rect x="0" y="0" width="1" height="1"/></g></g><g id="stpa_4_S41_UCA74_newTransition" class="pasta-hidden pasta" transform="translate(64, 24.16666603088379)" style="opacity:0;"><g><rect x="0" y="0" width="1" height="1"/></g></g></g><g id="stpa_4_UCA75_H3" class="sprotty-edge stpa" style="fill:none;stroke:rgb(0, 0, 0);stroke-width:2px;"><g aspect="4" class="stpa-edge" style="stroke:rgb(102, 179, 255);"><path d="M 310,134.33333206176758 L 310,123.33333206176758 L 247,123.33333206176758 L 247,95.33333206176758"/><ellipse transform="translate(310,123.33333206176758)" cx="0" cy="0" rx="1.5" ry="1.5"/></g><path aspect="4" d="M 6,-3 L 0,0 L 6,3 Z" transform="rotate(90 247 94.33333206176758) translate(247 94.33333206176758)" class="stpa-edge-arrow" style="fill:rgb(102, 179, 255);stroke:rgb(102, 179, 255);"/></g><g id="stpa_4_UCA75_H4" class="sprotty-edge stpa" style="fill:none;stroke:rgb(0, 0, 0);stroke-width:2px;"><g aspect="4" class="stpa-edge" style="stroke:rgb(102, 179, 255);"><path d="M 310,134.33333206176758 L 310,123.33333206176758 L 362,123.33333206176758 L 362,95.33333206176758"/></g><path aspect="4" d="M 6,-3 L 0,0 L 6,3 Z" transform="rotate(90 362 94.33333206176758) translate(362 94.33333206176758)" class="stpa-edge-arrow" style="fill:rgb(102, 179, 255);stroke:rgb(102, 179, 255);"/></g><g id="stpa_4_UCA75_H5" class="sprotty-edge stpa" style="fill:none;stroke:rgb(0, 0, 0);stroke-width:2px;"><g aspect="4" class="stpa-edge" style="stroke:rgb(102, 179, 255);"><path d="M 309.5,134.33333206176758 L 309.5,95.33333206176758"/></g><path aspect="4" d="M 6,-3 L 0,0 L 6,3 Z" transform="rotate(90 309.5 94.33333206176758) translate(309.5 94.33333206176758)" class="stpa-edge-arrow" style="fill:rgb(102, 179, 255);stroke:rgb(102, 179, 255);"/></g><g aspect="4" id="stpa_4_UCA75" class="stpa-node stpa" transform="translate(169, 134.33333206176758)" style="fill:rgb(255, 255, 255);stroke:rgb(102, 179, 255);stroke-width:2px;"><g><rect x="0" y="0" width="151" height="24.16666603088379"/></g><text class="label sprotty-label" id="stpa_4_UCA75_label" transform="translate(54.411394119262695, 5) translate(0, 11.666666030883789)" style="cursor:default;fill:rgb(0, 0, 0);font-family:Arial, sans-serif;stroke-width:0px;">UCA75</text><g id="stpa_4_UCA75_outPort" class="pasta-hidden pasta" transform="translate(140, -1)" style="opacity:0;"><g><rect x="0" y="0" width="1" height="1"/></g></g><g id="stpa_4_S42_UCA75_newTransition" class="pasta-hidden pasta" transform="translate(10, 24.16666603088379)" style="opacity:0;"><g><rect x="0" y="0" width="1" height="1"/></g></g><g id="stpa_4_S43_UCA75_newTransition" class="pasta-hidden pasta" transform="translate(21, 24.16666603088379)" style="opacity:0;"><g><rect x="0" y="0" width="1" height="1"/></g></g><g id="stpa_4_S44_UCA75_newTransition" class="pasta-hidden pasta" transform="translate(75, 24.16666603088379)" style="opacity:0;"><g><rect x="0" y="0" width="1" height="1"/></g></g><g id="stpa_4_S45_UCA75_newTransition" class="pasta-hidden pasta" transform="translate(129, 24.16666603088379)" style="opacity:0;"><g><rect x="0" y="0" width="1" height="1"/></g></g><g id="stpa_4_S46_UCA75_newTransition" class="pasta-hidden pasta" transform="translate(140, 24.16666603088379)" style="opacity:0;"><g><rect x="0" y="0" width="1" height="1"/></g></g></g><g id="stpa_4_UCA76_H4" class="sprotty-edge stpa" style="fill:none;stroke:rgb(0, 0, 0);stroke-width:2px;"><g aspect="4" class="stpa-edge" style="stroke:rgb(102, 179, 255);"><path d="M 424,134.33333206176758 L 424,123.33333206176758 L 373,123.33333206176758 L 373,95.33333206176758"/></g><path aspect="4" d="M 6,-3 L 0,0 L 6,3 Z" transform="rotate(90 373 94.33333206176758) translate(373 94.33333206176758)" class="stpa-edge-arrow" style="fill:rgb(102, 179, 255);stroke:rgb(102, 179, 255);"/></g><g aspect="4" id="stpa_4_UCA76" class="stpa-node stpa" transform="translate(413, 134.33333206176758)" style="fill:rgb(255, 255, 255);stroke:rgb(102, 179, 255);stroke-width:2px;"><g><rect x="0" y="0" width="129" height="24.16666603088379"/></g><text class="label sprotty-label" id="stpa_4_UCA76_label" transform="translate(43.411394119262695, 5) translate(0, 11.666666030883789)" style="cursor:default;fill:rgb(0, 0, 0);font-family:Arial, sans-serif;stroke-width:0px;">UCA76</text><g id="stpa_4_UCA76_outPort" class="pasta-hidden pasta" transform="translate(10, -1)" style="opacity:0;"><g><rect x="0" y="0" width="1" height="1"/></g></g><g id="stpa_4_S47_UCA76_newTransition" class="pasta-hidden pasta" transform="translate(10, 24.16666603088379)" style="opacity:0;"><g><rect x="0" y="0" width="1" height="1"/></g></g><g id="stpa_4_S48_UCA76_newTransition" class="pasta-hidden pasta" transform="translate(64, 24.16666603088379)" style="opacity:0;"><g><rect x="0" y="0" width="1" height="1"/></g></g><g id="stpa_4_S49_UCA76_newTransition" class="pasta-hidden pasta" transform="translate(118, 24.16666603088379)" style="opacity:0;"><g><rect x="0" y="0" width="1" height="1"/></g></g></g><g id="stpa_4_UCA77_H3" class="sprotty-edge stpa" style="fill:none;stroke:rgb(0, 0, 0);stroke-width:2px;"><g aspect="4" class="stpa-edge" style="stroke:rgb(102, 179, 255);"><path d="M 366,134.33333206176758 L 366,113.33333206176758 L 258,113.33333206176758 L 258,95.33333206176758"/><ellipse transform="translate(366,113.33333206176758)" cx="0" cy="0" rx="1.5" ry="1.5"/></g><path aspect="4" d="M 6,-3 L 0,0 L 6,3 Z" transform="rotate(90 258 94.33333206176758) translate(258 94.33333206176758)" class="stpa-edge-arrow" style="fill:rgb(102, 179, 255);stroke:rgb(102, 179, 255);"/></g><g id="stpa_4_UCA77_H4" class="sprotty-edge stpa" style="fill:none;stroke:rgb(0, 0, 0);stroke-width:2px;"><g aspect="4" class="stpa-edge" style="stroke:rgb(102, 179, 255);"><path d="M 366,134.33333206176758 L 366,113.33333206176758 L 384,113.33333206176758 L 384,95.33333206176758"/></g><path aspect="4" d="M 6,-3 L 0,0 L 6,3 Z" transform="rotate(90 384 94.33333206176758) translate(384 94.33333206176758)" class="stpa-edge-arrow" style="fill:rgb(102, 179, 255);stroke:rgb(102, 179, 255);"/></g><g id="stpa_4_UCA77_H5" class="sprotty-edge stpa" style="fill:none;stroke:rgb(0, 0, 0);stroke-width:2px;"><g aspect="4" class="stpa-edge" style="stroke:rgb(102, 179, 255);"><path d="M 366,134.33333206176758 L 366,113.33333206176758 L 321,113.33333206176758 L 321,95.33333206176758"/><ellipse transform="translate(321,113.33333206176758)" cx="0" cy="0" rx="1.5" ry="1.5"/></g><path aspect="4" d="M 6,-3 L 0,0 L 6,3 Z" transform="rotate(90 321 94.33333206176758) translate(321 94.33333206176758)" class="stpa-edge-arrow" style="fill:rgb(102, 179, 255);stroke:rgb(102, 179, 255);"/></g><g aspect="4" id="stpa_4_UCA77" class="stpa-node stpa" transform="translate(340, 134.33333206176758)" style="fill:rgb(255, 255, 255);stroke:rgb(102, 179, 255);stroke-width:2px;"><g><rect x="0" y="0" width="52.17721176147461" height="24.16666603088379"/></g><text class="label sprotty-label" id="stpa_4_UCA77_label" transform="translate(5, 5) translate(0, 11.666666030883789)" style="cursor:default;fill:rgb(0, 0, 0);font-family:Arial, sans-serif;stroke-width:0px;">UCA77</text><g id="stpa_4_UCA77_outPort" class="pasta-hidden pasta" transform="translate(25.5, -1)" style="opacity:0;"><g><rect x="0" y="0" width="1" height="1"/></g></g></g><g id="stpa_4_S40_UCA74" class="sprotty-edge stpa" style="fill:none;stroke:rgb(0, 0, 0);stroke-width:2px;"><g aspect="6" class="stpa-edge" style="stroke:rgb(204, 204, 0);"><path d="M 29,180.49999809265137 L 29,161.49999809265137"/></g><path aspect="6" d="M 6,-3 L 0,0 L 6,3 Z" transform="rotate(90 29 160.49999809265137) translate(29 160.49999809265137)" class="stpa-edge-arrow" style="fill:rgb(204, 204, 0);stroke:rgb(204, 204, 0);"/></g><g aspect="6" id="stpa_4_S40" class="stpa-node stpa" transform="translate(12, 180.49999809265137)" style="fill:rgb(255, 255, 255);stroke:rgb(204, 204, 0);stroke-width:2px;"><g><rect x="0" y="0" width="33.40086555480957" height="24.16666603088379"/></g><text class="label sprotty-label" id="stpa_4_S40_label" transform="translate(5, 5) translate(0, 11.666666030883789)" style="cursor:default;fill:rgb(0, 0, 0);font-family:Arial, sans-serif;stroke-width:0px;">S40</text><g id="stpa_4_S40_outPort" class="pasta-hidden pasta" transform="translate(16.5, -1)" style="opacity:0;"><g><rect x="0" y="0" width="1" height="1"/></g></g></g><g id="stpa_4_S41_UCA74" class="sprotty-edge stpa" style="fill:none;stroke:rgb(0, 0, 0);stroke-width:2px;"><g aspect="6" class="stpa-edge" style="stroke:rgb(204, 204, 0);"><path d="M 83,180.49999809265137 L 83,161.49999809265137"/></g><path aspect="6" d="M 6,-3 L 0,0 L 6,3 Z" transform="rotate(90 83 160.49999809265137) translate(83 160.49999809265137)" class="stpa-edge-arrow" style="fill:rgb(204, 204, 0);stroke:rgb(204, 204, 0);"/></g><g aspect="6" id="stpa_4_S41" class="stpa-node stpa" transform="translate(66, 180.49999809265137)" style="fill:rgb(255, 255, 255);stroke:rgb(204, 204, 0);stroke-width:2px;"><g><rect x="0" y="0" width="33.13801956176758" height="24.16666603088379"/></g><text class="label sprotty-label" id="stpa_4_S41_label" transform="translate(5, 5) translate(0, 11.666666030883789)" style="cursor:default;fill:rgb(0, 0, 0);font-family:Arial, sans-serif;stroke-width:0px;">S41</text><g id="stpa_4_S41_outPort" class="pasta-hidden pasta" transform="translate(16.5, -1)" style="opacity:0;"><g><rect x="0" y="0" width="1" height="1"/></g></g></g><g id="stpa_4_S42_UCA75" class="sprotty-edge stpa" style="fill:none;stroke:rgb(0, 0, 0);stroke-width:2px;"><g aspect="6" class="stpa-edge" style="stroke:rgb(204, 204, 0);"><path d="M 137,180.49999809265137 L 137,169.49999809265137 L 180,169.49999809265137 L 180,161.49999809265137"/></g><path aspect="6" d="M 6,-3 L 0,0 L 6,3 Z" transform="rotate(90 180 160.49999809265137) translate(180 160.49999809265137)" class="stpa-edge-arrow" style="fill:rgb(204, 204, 0);stroke:rgb(204, 204, 0);"/></g><g aspect="6" id="stpa_4_S42" class="stpa-node stpa" transform="translate(120, 180.49999809265137)" style="fill:rgb(255, 255, 255);stroke:rgb(204, 204, 0);stroke-width:2px;"><g><rect x="0" y="0" width="33.40086555480957" height="24.16666603088379"/></g><text class="label sprotty-label" id="stpa_4_S42_label" transform="translate(5, 5) translate(0, 11.666666030883789)" style="cursor:default;fill:rgb(0, 0, 0);font-family:Arial, sans-serif;stroke-width:0px;">S42</text><g id="stpa_4_S42_outPort" class="pasta-hidden pasta" transform="translate(16.5, -1)" style="opacity:0;"><g><rect x="0" y="0" width="1" height="1"/></g></g></g><g id="stpa_4_S43_UCA75" class="sprotty-edge stpa" style="fill:none;stroke:rgb(0, 0, 0);stroke-width:2px;"><g aspect="6" class="stpa-edge" style="stroke:rgb(204, 204, 0);"><path d="M 191,180.49999809265137 L 191,161.49999809265137"/></g><path aspect="6" d="M 6,-3 L 0,0 L 6,3 Z" transform="rotate(90 191 160.49999809265137) translate(191 160.49999809265137)" class="stpa-edge-arrow" style="fill:rgb(204, 204, 0);stroke:rgb(204, 204, 0);"/></g><g aspect="6" id="stpa_4_S43" class="stpa-node stpa" transform="translate(174, 180.49999809265137)" style="fill:rgb(255, 255, 255);stroke:rgb(204, 204, 0);stroke-width:2px;"><g><rect x="0" y="0" width="33.40086555480957" height="24.16666603088379"/></g><text class="label sprotty-label" id="stpa_4_S43_label" transform="translate(5, 5) translate(0, 11.666666030883789)" style="cursor:default;fill:rgb(0, 0, 0);font-family:Arial, sans-serif;stroke-width:0px;">S43</text><g id="stpa_4_S43_outPort" class="pasta-hidden pasta" transform="translate(16.5, -1)" style="opacity:0;"><g><rect x="0" y="0" width="1" height="1"/></g></g></g><g id="stpa_4_S44_UCA75" class="sprotty-edge stpa" style="fill:none;stroke:rgb(0, 0, 0);stroke-width:2px;"><g aspect="6" class="stpa-edge" style="stroke:rgb(204, 204, 0);"><path d="M 245,180.49999809265137 L 245,161.49999809265137"/></g><path aspect="6" d="M 6,-3 L 0,0 L 6,3 Z" transform="rotate(90 245 160.49999809265137) translate(245 160.49999809265137)" class="stpa-edge-arrow" style="fill:rgb(204, 204, 0);stroke:rgb(204, 204, 0);"/></g><g aspect="6" id="stpa_4_S44" class="stpa-node stpa" transform="translate(228, 180.49999809265137)" style="fill:rgb(255, 255, 255);stroke:rgb(204, 204, 0);stroke-width:2px;"><g><rect x="0" y="0" width="33.40086555480957" height="24.16666603088379"/></g><text class="label sprotty-label" id="stpa_4_S44_label" transform="translate(5, 5) translate(0, 11.666666030883789)" style="cursor:default;fill:rgb(0, 0, 0);font-family:Arial, sans-serif;stroke-width:0px;">S44</text><g id="stpa_4_S44_outPort" class="pasta-hidden pasta" transform="translate(16.5, -1)" style="opacity:0;"><g><rect x="0" y="0" width="1" height="1"/></g></g></g><g id="stpa_4_S45_UCA75" class="sprotty-edge stpa" style="fill:none;stroke:rgb(0, 0, 0);stroke-width:2px;"><g aspect="6" class="stpa-edge" style="stroke:rgb(204, 204, 0);"><path d="M 299,180.49999809265137 L 299,161.49999809265137"/></g><path aspect="6" d="M 6,-3 L 0,0 L 6,3 Z" transform="rotate(90 299 160.49999809265137) translate(299 160.49999809265137)" class="stpa-edge-arrow" style="fill:rgb(204, 204, 0);stroke:rgb(204, 204, 0);"/></g><g aspect="6" id="stpa_4_S45" class="stpa-node stpa" transform="translate(282, 180.49999809265137)" style="fill:rgb(255, 255, 255);stroke:rgb(204, 204, 0);stroke-width:2px;"><g><rect x="0" y="0" width="33.40086555480957" height="24.16666603088379"/></g><text class="label sprotty-label" id="stpa_4_S45_label" transform="translate(5, 5) translate(0, 11.666666030883789)" style="cursor:default;fill:rgb(0, 0, 0);font-family:Arial, sans-serif;stroke-width:0px;">S45</text><g id="stpa_4_S45_outPort" class="pasta-hidden pasta" transform="translate(16.5, -1)" style="opacity:0;"><g><rect x="0" y="0" width="1" height="1"/></g></g></g><g id="stpa_4_S46_UCA75" class="sprotty-edge stpa" style="fill:none;stroke:rgb(0, 0, 0);stroke-width:2px;"><g aspect="6" class="stpa-edge" style="stroke:rgb(204, 204, 0);"><path d="M 353,180.49999809265137 L 353,169.49999809265137 L 310,169.49999809265137 L 310,161.49999809265137"/></g><path aspect="6" d="M 6,-3 L 0,0 L 6,3 Z" transform="rotate(90 310 160.49999809265137) translate(310 160.49999809265137)" class="stpa-edge-arrow" style="fill:rgb(204, 204, 0);stroke:rgb(204, 204, 0);"/></g><g aspect="6" id="stpa_4_S46" class="stpa-node stpa" transform="translate(336, 180.49999809265137)" style="fill:rgb(255, 255, 255);stroke:rgb(204, 204, 0);stroke-width:2px;"><g><rect x="0" y="0" width="33.40086555480957" height="24.16666603088379"/></g><text class="label sprotty-label" id="stpa_4_S46_label" transform="translate(5, 5) translate(0, 11.666666030883789)" style="cursor:default;fill:rgb(0, 0, 0);font-family:Arial, sans-serif;stroke-width:0px;">S46</text><g id="stpa_4_S46_outPort" class="pasta-hidden pasta" transform="translate(16.5, -1)" style="opacity:0;"><g><rect x="0" y="0" width="1" height="1"/></g></g></g><g id="stpa_4_S47_UCA76" class="sprotty-edge stpa" style="fill:none;stroke:rgb(0, 0, 0);stroke-width:2px;"><g aspect="6" class="stpa-edge" style="stroke:rgb(204, 204, 0);"><path d="M 424,180.49999809265137 L 424,161.49999809265137"/></g><path aspect="6" d="M 6,-3 L 0,0 L 6,3 Z" transform="rotate(90 424 160.49999809265137) translate(424 160.49999809265137)" class="stpa-edge-arrow" style="fill:rgb(204, 204, 0);stroke:rgb(204, 204, 0);"/></g><g aspect="6" id="stpa_4_S47" class="stpa-node stpa" transform="translate(407, 180.49999809265137)" style="fill:rgb(255, 255, 255);stroke:rgb(204, 204, 0);stroke-width:2px;"><g><rect x="0" y="0" width="33.40086555480957" height="24.16666603088379"/></g><text class="label sprotty-label" id="stpa_4_S47_label" transform="translate(5, 5) translate(0, 11.666666030883789)" style="cursor:default;fill:rgb(0, 0, 0);font-family:Arial, sans-serif;stroke-width:0px;">S47</text><g id="stpa_4_S47_outPort" class="pasta-hidden pasta" transform="translate(16.5, -1)" style="opacity:0;"><g><rect x="0" y="0" width="1" height="1"/></g></g></g><g id="stpa_4_S48_UCA76" class="sprotty-edge stpa" style="fill:none;stroke:rgb(0, 0, 0);stroke-width:2px;"><g aspect="6" class="stpa-edge" style="stroke:rgb(204, 204, 0);"><path d="M 478,180.49999809265137 L 478,161.49999809265137"/></g><path aspect="6" d="M 6,-3 L 0,0 L 6,3 Z" transform="rotate(90 478 160.49999809265137) translate(478 160.49999809265137)" class="stpa-edge-arrow" style="fill:rgb(204, 204, 0);stroke:rgb(204, 204, 0);"/></g><g aspect="6" id="stpa_4_S48" class="stpa-node stpa" transform="translate(461, 180.49999809265137)" style="fill:rgb(255, 255, 255);stroke:rgb(204, 204, 0);stroke-width:2px;"><g><rect x="0" y="0" width="33.40086555480957" height="24.16666603088379"/></g><text class="label sprotty-label" id="stpa_4_S48_label" transform="translate(5, 5) translate(0, 11.666666030883789)" style="cursor:default;fill:rgb(0, 0, 0);font-family:Arial, sans-serif;stroke-width:0px;">S48</text><g id="stpa_4_S48_outPort" class="pasta-hidden pasta" transform="translate(16.5, -1)" style="opacity:0;"><g><rect x="0" y="0" width="1" height="1"/></g></g></g><g id="stpa_4_S49_UCA76" class="sprotty-edge stpa" style="fill:none;stroke:rgb(0, 0, 0);stroke-width:2px;"><g aspect="6" class="stpa-edge" style="stroke:rgb(204, 204, 0);"><path d="M 532,180.49999809265137 L 532,161.49999809265137"/></g><path aspect="6" d="M 6,-3 L 0,0 L 6,3 Z" transform="rotate(90 532 160.49999809265137) translate(532 160.49999809265137)" class="stpa-edge-arrow" style="fill:rgb(204, 204, 0);stroke:rgb(204, 204, 0);"/></g><g aspect="6" id="stpa_4_S49" class="stpa-node stpa" transform="translate(515, 180.49999809265137)" style="fill:rgb(255, 255, 255);stroke:rgb(204, 204, 0);stroke-width:2px;"><g><rect x="0" y="0" width="33.40086555480957" height="24.16666603088379"/></g><text class="label sprotty-label" id="stpa_4_S49_label" transform="translate(5, 5) translate(0, 11.666666030883789)" style="cursor:default;fill:rgb(0, 0, 0);font-family:Arial, sans-serif;stroke-width:0px;">S49</text><g id="stpa_4_S49_outPort" class="pasta-hidden pasta" transform="translate(16.5, -1)" style="opacity:0;"><g><rect x="0" y="0" width="1" height="1"/></g></g></g></g></g></svg>