<svg xmlns="http://www.w3.org/2000/svg" id="stpa_4_root" class="sprotty-graph" style="flex-basis:0%;flex-grow:1;font-family:&quot;Helvetica Neue&quot;, Helvetica, Arial, sans-serif;font-size:13px;perspective-origin:0px 75px;scrollbar-color:rgba(100, 100, 100, 0.4) rgb(255, 255, 255);transform-origin:0px 75px;-webkit-locale:&quot;en&quot;;" version="1.1" viewBox="12 12 308.72998046875 170.5" width="308.72998046875" height="170.5"><g transform="scale(1) translate(0,0)"><g id="stpa_4_relationships" class="parent" transform="translate(12, 12)"><rect x="0" y="0" width="308.7299699783325" height="170.49999809265137" class="print-node" style="fill-opacity:0;stroke:rgb(0, 0, 0);"> </rect><g aspect="0" id="stpa_4_L1" class="stpa-node stpa" transform="translate(13, 12)" style="fill:rgb(255, 255, 255);stroke:rgb(255, 40, 40);stroke-width:2px;"><g><rect x="0" y="0" width="24.466145515441895" height="24.16666603088379"/></g><text class="label sprotty-label" id="stpa_4_L1_label" transform="translate(5, 5) translate(0, 11.666666030883789)" style="cursor:default;fill:rgb(0, 0, 0);font-family:Arial, sans-serif;stroke-width:0px;">L1</text><g id="stpa_4_H1_L1_newTransition" class="pasta-hidden pasta" transform="translate(11.5, 24.16666603088379)" style="opacity:0;"><g><rect x="0" y="0" width="1" height="1"/></g></g></g><g aspect="0" id="stpa_4_L2" class="stpa-node stpa" transform="translate(58, 12)" style="fill:rgb(255, 255, 255);stroke:rgb(255, 40, 40);stroke-width:2px;"><g><rect x="0" y="0" width="32" height="24.16666603088379"/></g><text class="label sprotty-label" id="stpa_4_L2_label" transform="translate(8.63501501083374, 5) translate(0, 11.666666030883789)" style="cursor:default;fill:rgb(0, 0, 0);font-family:Arial, sans-serif;stroke-width:0px;">L2</text><g id="stpa_4_H1_L2_newTransition" class="pasta-hidden pasta" transform="translate(10, 24.16666603088379)" style="opacity:0;"><g><rect x="0" y="0" width="1" height="1"/></g></g><g id="stpa_4_H2_L2_newTransition" class="pasta-hidden pasta" transform="translate(21, 24.16666603088379)" style="opacity:0;"><g><rect x="0" y="0" width="1" height="1"/></g></g></g><g aspect="0" id="stpa_4_L3" class="stpa-node stpa" transform="translate(141, 12)" style="fill:rgb(255, 255, 255);stroke:rgb(255, 40, 40);stroke-width:2px;"><g><rect x="0" y="0" width="59" height="24.16666603088379"/></g><text class="label sprotty-label" id="stpa_4_L3_label" transform="translate(22.13501501083374, 5) translate(0, 11.666666030883789)" style="cursor:default;fill:rgb(0, 0, 0);font-family:Arial, sans-serif;stroke-width:0px;">L3</text><g id="stpa_4_H3_L3_newTransition" class="pasta-hidden pasta" transform="translate(10, 24.16666603088379)" style="opacity:0;"><g><rect x="0" y="0" width="1" height="1"/></g></g><g id="stpa_4_H4_L3_newTransition" class="pasta-hidden pasta" transform="translate(37, 24.16666603088379)" style="opacity:0;"><g><rect x="0" y="0" width="1" height="1"/></g></g><g id="stpa_4_H5_L3_newTransition" class="pasta-hidden pasta" transform="translate(48, 24.16666603088379)" style="opacity:0;"><g><rect x="0" y="0" width="1" height="1"/></g></g></g><g aspect="0" id="stpa_4_L4" class="stpa-node stpa" transform="translate(272, 12)" style="fill:rgb(255, 255, 255);stroke:rgb(255, 40, 40);stroke-width:2px;"><g><rect x="0" y="0" width="24.72996997833252" height="24.16666603088379"/></g><text class="label sprotty-label" id="stpa_4_L4_label" transform="translate(5, 5) translate(0, 11.666666030883789)" style="cursor:default;fill:rgb(0, 0, 0);font-family:Arial, sans-serif;stroke-width:0px;">L4</text><g id="stpa_4_H4_L4_newTransition" class="pasta-hidden pasta" transform="translate(11.5, 24.16666603088379)" style="opacity:0;"><g><rect x="0" y="0" width="1" height="1"/></g></g></g><g aspect="0" id="stpa_4_L5" class="stpa-node stpa" transform="translate(220, 12)" style="fill:rgb(255, 255, 255);stroke:rgb(255, 40, 40);stroke-width:2px;"><g><rect x="0" y="0" width="32" height="24.16666603088379"/></g><text class="label sprotty-label" id="stpa_4_L5_label" transform="translate(8.63501501083374, 5) translate(0, 11.666666030883789)" style="cursor:default;fill:rgb(0, 0, 0);font-family:Arial, sans-serif;stroke-width:0px;">L5</text><g id="stpa_4_H3_L5_newTransition" class="pasta-hidden pasta" transform="translate(10, 24.16666603088379)" style="opacity:0;"><g><rect x="0" y="0" width="1" height="1"/></g></g><g id="stpa_4_H4_L5_newTransition" class="pasta-hidden pasta" transform="translate(21, 24.16666603088379)" style="opacity:0;"><g><rect x="0" y="0" width="1" height="1"/></g></g></g><g id="stpa_4_H1_L1" class="sprotty-edge stpa" style="fill:none;stroke:rgb(0, 0, 0);stroke-width:2px;"><g aspect="0" class="stpa-edge" style="stroke:rgb(255, 40, 40);"><path d="M 25,78.16666603088379 L 25,39.16666603088379"/></g><path aspect="0" d="M 6,-3 L 0,0 L 6,3 Z" transform="rotate(90 25 38.16666603088379) translate(25 38.16666603088379)" class="stpa-edge-arrow" style="fill:rgb(255, 40, 40);stroke:rgb(255, 40, 40);"/></g><g id="stpa_4_H1_L2" class="sprotty-edge stpa" style="fill:none;stroke:rgb(0, 0, 0);stroke-width:2px;"><g aspect="0" class="stpa-edge" style="stroke:rgb(255, 40, 40);"><path d="M 25,78.16666603088379 L 25,67.16666603088379 L 69,67.16666603088379 L 69,39.16666603088379"/><ellipse transform="translate(25,67.16666603088379)" cx="0" cy="0" rx="1.5" ry="1.5"/></g><path aspect="0" d="M 6,-3 L 0,0 L 6,3 Z" transform="rotate(90 69 38.16666603088379) translate(69 38.16666603088379)" class="stpa-edge-arrow" style="fill:rgb(255, 40, 40);stroke:rgb(255, 40, 40);"/></g><g aspect="0" id="stpa_4_H1" class="stpa-node stpa" transform="translate(12, 78.16666603088379)" style="fill:rgb(255, 255, 255);stroke:rgb(255, 40, 40);stroke-width:2px;"><g><rect x="0" y="0" rx="5" ry="5" width="26.62760353088379" height="24.16666603088379"/></g><text class="label sprotty-label" id="stpa_4_H1_label" transform="translate(5, 5) translate(0, 11.666666030883789)" style="cursor:default;fill:rgb(0, 0, 0);font-family:Arial, sans-serif;stroke-width:0px;">H1</text><g id="stpa_4_H1_outPort" class="pasta-hidden pasta" transform="translate(12.5, -1)" style="opacity:0;"><g><rect x="0" y="0" width="1" height="1"/></g></g></g><g id="stpa_4_H2_L2" class="sprotty-edge stpa" style="fill:none;stroke:rgb(0, 0, 0);stroke-width:2px;"><g aspect="0" class="stpa-edge" style="stroke:rgb(255, 40, 40);"><path d="M 79.5,78.16666603088379 L 79.5,39.16666603088379"/></g><path aspect="0" d="M 6,-3 L 0,0 L 6,3 Z" transform="rotate(90 79.5 38.16666603088379) translate(79.5 38.16666603088379)" class="stpa-edge-arrow" style="fill:rgb(255, 40, 40);stroke:rgb(255, 40, 40);"/></g><g aspect="0" id="stpa_4_H2" class="stpa-node stpa" transform="translate(69, 78.16666603088379)" style="fill:rgb(255, 255, 255);stroke:rgb(255, 40, 40);stroke-width:2px;"><g><rect x="0" y="0" rx="5" ry="5" width="41" height="24.16666603088379"/></g><text class="label sprotty-label" id="stpa_4_H2_label" transform="translate(12.055913925170898, 5) translate(0, 11.666666030883789)" style="cursor:default;fill:rgb(0, 0, 0);font-family:Arial, sans-serif;stroke-width:0px;">H2</text><g id="stpa_4_H2_outPort" class="pasta-hidden pasta" transform="translate(10, -1)" style="opacity:0;"><g><rect x="0" y="0" width="1" height="1"/></g></g><g id="stpa_4_UCA10_H2_newTransition" class="pasta-hidden pasta" transform="translate(10, 24.16666603088379)" style="opacity:0;"><g><rect x="0" y="0" width="1" height="1"/></g></g><g id="stpa_4_UCA11_H2_newTransition" class="pasta-hidden pasta" transform="translate(30, 24.16666603088379)" style="opacity:0;"><g><rect x="0" y="0" width="1" height="1"/></g></g></g><g id="stpa_4_H3_L3" class="sprotty-edge stpa" style="fill:none;stroke:rgb(0, 0, 0);stroke-width:2px;"><g aspect="0" class="stpa-edge" style="stroke:rgb(255, 40, 40);"><path d="M 151.5,78.16666603088379 L 151.5,39.16666603088379"/></g><path aspect="0" d="M 6,-3 L 0,0 L 6,3 Z" transform="rotate(90 151.5 38.16666603088379) translate(151.5 38.16666603088379)" class="stpa-edge-arrow" style="fill:rgb(255, 40, 40);stroke:rgb(255, 40, 40);"/></g><g id="stpa_4_H3_L5" class="sprotty-edge stpa" style="fill:none;stroke:rgb(0, 0, 0);stroke-width:2px;"><g aspect="0" class="stpa-edge" style="stroke:rgb(255, 40, 40);"><path d="M 152,78.16666603088379 L 152,47.16666603088379 L 231,47.16666603088379 L 231,39.16666603088379"/><ellipse transform="translate(152,47.16666603088379)" cx="0" cy="0" rx="1.5" ry="1.5"/></g><path aspect="0" d="M 6,-3 L 0,0 L 6,3 Z" transform="rotate(90 231 38.16666603088379) translate(231 38.16666603088379)" class="stpa-edge-arrow" style="fill:rgb(255, 40, 40);stroke:rgb(255, 40, 40);"/></g><g aspect="0" id="stpa_4_H3" class="stpa-node stpa" transform="translate(130, 78.16666603088379)" style="fill:rgb(255, 255, 255);stroke:rgb(255, 40, 40);stroke-width:2px;"><g><rect x="0" y="0" rx="5" ry="5" width="32" height="24.16666603088379"/></g><text class="label sprotty-label" id="stpa_4_H3_label" transform="translate(7.555913925170898, 5) translate(0, 11.666666030883789)" style="cursor:default;fill:rgb(0, 0, 0);font-family:Arial, sans-serif;stroke-width:0px;">H3</text><g id="stpa_4_H3_outPort" class="pasta-hidden pasta" transform="translate(21, -1)" style="opacity:0;"><g><rect x="0" y="0" width="1" height="1"/></g></g><g id="stpa_4_UCA10_H3_newTransition" class="pasta-hidden pasta" transform="translate(10, 24.16666603088379)" style="opacity:0;"><g><rect x="0" y="0" width="1" height="1"/></g></g><g id="stpa_4_UCA11_H3_newTransition" class="pasta-hidden pasta" transform="translate(21, 24.16666603088379)" style="opacity:0;"><g><rect x="0" y="0" width="1" height="1"/></g></g></g><g id="stpa_4_H4_L3" class="sprotty-edge stpa" style="fill:none;stroke:rgb(0, 0, 0);stroke-width:2px;"><g aspect="0" class="stpa-edge" style="stroke:rgb(255, 40, 40);"><path d="M 242,78.16666603088379 L 242,67.16666603088379 L 179,67.16666603088379 L 179,39.16666603088379"/><ellipse transform="translate(242,67.16666603088379)" cx="0" cy="0" rx="1.5" ry="1.5"/></g><path aspect="0" d="M 6,-3 L 0,0 L 6,3 Z" transform="rotate(90 179 38.16666603088379) translate(179 38.16666603088379)" class="stpa-edge-arrow" style="fill:rgb(255, 40, 40);stroke:rgb(255, 40, 40);"/></g><g id="stpa_4_H4_L4" class="sprotty-edge stpa" style="fill:none;stroke:rgb(0, 0, 0);stroke-width:2px;"><g aspect="0" class="stpa-edge" style="stroke:rgb(255, 40, 40);"><path d="M 242,78.16666603088379 L 242,67.16666603088379 L 284,67.16666603088379 L 284,39.16666603088379"/></g><path aspect="0" d="M 6,-3 L 0,0 L 6,3 Z" transform="rotate(90 284 38.16666603088379) translate(284 38.16666603088379)" class="stpa-edge-arrow" style="fill:rgb(255, 40, 40);stroke:rgb(255, 40, 40);"/></g><g id="stpa_4_H4_L5" class="sprotty-edge stpa" style="fill:none;stroke:rgb(0, 0, 0);stroke-width:2px;"><g aspect="0" class="stpa-edge" style="stroke:rgb(255, 40, 40);"><path d="M 242,78.16666603088379 L 242,39.16666603088379"/></g><path aspect="0" d="M 6,-3 L 0,0 L 6,3 Z" transform="rotate(90 242 38.16666603088379) translate(242 38.16666603088379)" class="stpa-edge-arrow" style="fill:rgb(255, 40, 40);stroke:rgb(255, 40, 40);"/></g><g aspect="0" id="stpa_4_H4" class="stpa-node stpa" transform="translate(229, 78.16666603088379)" style="fill:rgb(255, 255, 255);stroke:rgb(255, 40, 40);stroke-width:2px;"><g><rect x="0" y="0" rx="5" ry="5" width="26.888172149658203" height="24.16666603088379"/></g><text class="label sprotty-label" id="stpa_4_H4_label" transform="translate(5, 5) translate(0, 11.666666030883789)" style="cursor:default;fill:rgb(0, 0, 0);font-family:Arial, sans-serif;stroke-width:0px;">H4</text><g id="stpa_4_H4_outPort" class="pasta-hidden pasta" transform="translate(12.5, -1)" style="opacity:0;"><g><rect x="0" y="0" width="1" height="1"/></g></g></g><g id="stpa_4_H5_L3" class="sprotty-edge stpa" style="fill:none;stroke:rgb(0, 0, 0);stroke-width:2px;"><g aspect="0" class="stpa-edge" style="stroke:rgb(255, 40, 40);"><path d="M 195,78.16666603088379 L 195,57.16666603088379 L 190,57.16666603088379 L 190,39.16666603088379"/></g><path aspect="0" d="M 6,-3 L 0,0 L 6,3 Z" transform="rotate(90 190 38.16666603088379) translate(190 38.16666603088379)" class="stpa-edge-arrow" style="fill:rgb(255, 40, 40);stroke:rgb(255, 40, 40);"/></g><g aspect="0" id="stpa_4_H5" class="stpa-node stpa" transform="translate(182, 78.16666603088379)" style="fill:rgb(255, 255, 255);stroke:rgb(255, 40, 40);stroke-width:2px;"><g><rect x="0" y="0" rx="5" ry="5" width="26.888172149658203" height="24.16666603088379"/></g><text class="label sprotty-label" id="stpa_4_H5_label" transform="translate(5, 5) translate(0, 11.666666030883789)" style="cursor:default;fill:rgb(0, 0, 0);font-family:Arial, sans-serif;stroke-width:0px;">H5</text><g id="stpa_4_H5_outPort" class="pasta-hidden pasta" transform="translate(12.5, -1)" style="opacity:0;"><g><rect x="0" y="0" width="1" height="1"/></g></g></g><g id="stpa_4_UCA10_H2" class="sprotty-edge stpa" style="fill:none;stroke:rgb(0, 0, 0);stroke-width:2px;"><g aspect="4" class="stpa-edge" style="stroke:rgb(102, 179, 255);"><path d="M 80,134.33333206176758 L 80,105.33333206176758"/></g><path aspect="4" d="M 6,-3 L 0,0 L 6,3 Z" transform="rotate(90 80 104.33333206176758) translate(80 104.33333206176758)" class="stpa-edge-arrow" style="fill:rgb(102, 179, 255);stroke:rgb(102, 179, 255);"/></g><g id="stpa_4_UCA10_H3" class="sprotty-edge stpa" style="fill:none;stroke:rgb(0, 0, 0);stroke-width:2px;"><g aspect="4" class="stpa-edge" style="stroke:rgb(102, 179, 255);"><path d="M 80,134.33333206176758 L 80,113.33333206176758 L 141,113.33333206176758 L 141,105.33333206176758"/><ellipse transform="translate(80,113.33333206176758)" cx="0" cy="0" rx="1.5" ry="1.5"/></g><path aspect="4" d="M 6,-3 L 0,0 L 6,3 Z" transform="rotate(90 141 104.33333206176758) translate(141 104.33333206176758)" class="stpa-edge-arrow" style="fill:rgb(102, 179, 255);stroke:rgb(102, 179, 255);"/></g><g aspect="4" id="stpa_4_UCA10" class="stpa-node stpa" transform="translate(54, 134.33333206176758)" style="fill:rgb(255, 255, 255);stroke:rgb(102, 179, 255);stroke-width:2px;"><g><rect x="0" y="0" width="52.17721176147461" height="24.16666603088379"/></g><text class="label sprotty-label" id="stpa_4_UCA10_label" transform="translate(5, 5) translate(0, 11.666666030883789)" style="cursor:default;fill:rgb(0, 0, 0);font-family:Arial, sans-serif;stroke-width:0px;">UCA10</text><g id="stpa_4_UCA10_outPort" class="pasta-hidden pasta" transform="translate(25.5, -1)" style="opacity:0;"><g><rect x="0" y="0" width="1" height="1"/></g></g></g><g id="stpa_4_UCA11_H2" class="sprotty-edge stpa" style="fill:none;stroke:rgb(0, 0, 0);stroke-width:2px;"><g aspect="4" class="stpa-edge" style="stroke:rgb(102, 179, 255);"><path d="M 152,134.33333206176758 L 152,123.33333206176758 L 100,123.33333206176758 L 100,105.33333206176758"/><ellipse transform="translate(152,123.33333206176758)" cx="0" cy="0" rx="1.5" ry="1.5"/></g><path aspect="4" d="M 6,-3 L 0,0 L 6,3 Z" transform="rotate(90 100 104.33333206176758) translate(100 104.33333206176758)" class="stpa-edge-arrow" style="fill:rgb(102, 179, 255);stroke:rgb(102, 179, 255);"/></g><g id="stpa_4_UCA11_H3" class="sprotty-edge stpa" style="fill:none;stroke:rgb(0, 0, 0);stroke-width:2px;"><g aspect="4" class="stpa-edge" style="stroke:rgb(102, 179, 255);"><path d="M 152,134.33333206176758 L 152,105.33333206176758"/></g><path aspect="4" d="M 6,-3 L 0,0 L 6,3 Z" transform="rotate(90 152 104.33333206176758) translate(152 104.33333206176758)" class="stpa-edge-arrow" style="fill:rgb(102, 179, 255);stroke:rgb(102, 179, 255);"/></g><g aspect="4" id="stpa_4_UCA11" class="stpa-node stpa" transform="translate(127, 134.33333206176758)" style="fill:rgb(255, 255, 255);stroke:rgb(102, 179, 255);stroke-width:2px;"><g><rect x="0" y="0" width="50.95051956176758" height="24.16666603088379"/></g><text class="label sprotty-label" id="stpa_4_UCA11_label" transform="translate(5, 5) translate(0, 11.666666030883789)" style="cursor:default;fill:rgb(0, 0, 0);font-family:Arial, sans-serif;stroke-width:0px;">UCA11</text><g id="stpa_4_UCA11_outPort" class="pasta-hidden pasta" transform="translate(24.5, -1)" style="opacity:0;"><g><rect x="0" y="0" width="1" height="1"/></g></g></g></g></g></svg>