<svg xmlns="http://www.w3.org/2000/svg" id="stpa_4_root" class="sprotty-graph" style="flex-basis:0%;flex-grow:1;font-family:&quot;Helvetica Neue&quot;, Helvetica, Arial, sans-serif;font-size:13px;perspective-origin:0px 75px;scrollbar-color:rgba(100, 100, 100, 0.4) rgb(255, 255, 255);transform-origin:0px 75px;-webkit-locale:&quot;en&quot;;" version="1.1" viewBox="12 12 304.7299499511719 170.5" width="304.7299499511719" height="170.5"><g transform="scale(1) translate(0,0)"><g id="stpa_4_relationships" class="parent" transform="translate(12, 12)"><rect x="0" y="0" width="304.7299699783325" height="170.49999809265137" class="print-node" style="fill-opacity:0;stroke:rgb(0, 0, 0);"> </rect><g aspect="0" id="stpa_4_L1" class="stpa-node stpa" transform="translate(25, 12)" style="fill:rgb(255, 255, 255);stroke:rgb(255, 40, 40);stroke-width:2px;"><g><rect x="0" y="0" width="24.466145515441895" height="24.16666603088379"/></g><text class="label sprotty-label" id="stpa_4_L1_label" transform="translate(5, 5) translate(0, 11.666666030883789)" style="cursor:default;fill:rgb(0, 0, 0);font-family:Arial, sans-serif;stroke-width:0px;">L1</text><g id="stpa_4_H1_L1_newTransition" class="pasta-hidden pasta" transform="translate(11.5, 24.16666603088379)" style="opacity:0;"><g><rect x="0" y="0" width="1" height="1"/></g></g></g><g aspect="0" id="stpa_4_L2" class="stpa-node stpa" transform="translate(70, 12)" style="fill:rgb(255, 255, 255);stroke:rgb(255, 40, 40);stroke-width:2px;"><g><rect x="0" y="0" width="32" height="24.16666603088379"/></g><text class="label sprotty-label" id="stpa_4_L2_label" transform="translate(8.63501501083374, 5) translate(0, 11.666666030883789)" style="cursor:default;fill:rgb(0, 0, 0);font-family:Arial, sans-serif;stroke-width:0px;">L2</text><g id="stpa_4_H1_L2_newTransition" class="pasta-hidden pasta" transform="translate(10, 24.16666603088379)" style="opacity:0;"><g><rect x="0" y="0" width="1" height="1"/></g></g><g id="stpa_4_H2_L2_newTransition" class="pasta-hidden pasta" transform="translate(21, 24.16666603088379)" style="opacity:0;"><g><rect x="0" y="0" width="1" height="1"/></g></g></g><g aspect="0" id="stpa_4_L3" class="stpa-node stpa" transform="translate(137, 12)" style="fill:rgb(255, 255, 255);stroke:rgb(255, 40, 40);stroke-width:2px;"><g><rect x="0" y="0" width="59" height="24.16666603088379"/></g><text class="label sprotty-label" id="stpa_4_L3_label" transform="translate(22.13501501083374, 5) translate(0, 11.666666030883789)" style="cursor:default;fill:rgb(0, 0, 0);font-family:Arial, sans-serif;stroke-width:0px;">L3</text><g id="stpa_4_H3_L3_newTransition" class="pasta-hidden pasta" transform="translate(10, 24.16666603088379)" style="opacity:0;"><g><rect x="0" y="0" width="1" height="1"/></g></g><g id="stpa_4_H4_L3_newTransition" class="pasta-hidden pasta" transform="translate(37, 24.16666603088379)" style="opacity:0;"><g><rect x="0" y="0" width="1" height="1"/></g></g><g id="stpa_4_H5_L3_newTransition" class="pasta-hidden pasta" transform="translate(48, 24.16666603088379)" style="opacity:0;"><g><rect x="0" y="0" width="1" height="1"/></g></g></g><g aspect="0" id="stpa_4_L4" class="stpa-node stpa" transform="translate(268, 12)" style="fill:rgb(255, 255, 255);stroke:rgb(255, 40, 40);stroke-width:2px;"><g><rect x="0" y="0" width="24.72996997833252" height="24.16666603088379"/></g><text class="label sprotty-label" id="stpa_4_L4_label" transform="translate(5, 5) translate(0, 11.666666030883789)" style="cursor:default;fill:rgb(0, 0, 0);font-family:Arial, sans-serif;stroke-width:0px;">L4</text><g id="stpa_4_H4_L4_newTransition" class="pasta-hidden pasta" transform="translate(11.5, 24.16666603088379)" style="opacity:0;"><g><rect x="0" y="0" width="1" height="1"/></g></g></g><g aspect="0" id="stpa_4_L5" class="stpa-node stpa" transform="translate(216, 12)" style="fill:rgb(255, 255, 255);stroke:rgb(255, 40, 40);stroke-width:2px;"><g><rect x="0" y="0" width="32" height="24.16666603088379"/></g><text class="label sprotty-label" id="stpa_4_L5_label" transform="translate(8.63501501083374, 5) translate(0, 11.666666030883789)" style="cursor:default;fill:rgb(0, 0, 0);font-family:Arial, sans-serif;stroke-width:0px;">L5</text><g id="stpa_4_H3_L5_newTransition" class="pasta-hidden pasta" transform="translate(10, 24.16666603088379)" style="opacity:0;"><g><rect x="0" y="0" width="1" height="1"/></g></g><g id="stpa_4_H4_L5_newTransition" class="pasta-hidden pasta" transform="translate(21, 24.16666603088379)" style="opacity:0;"><g><rect x="0" y="0" width="1" height="1"/></g></g></g><g id="stpa_4_H1_L1" class="sprotty-edge stpa" style="fill:none;stroke:rgb(0, 0, 0);stroke-width:2px;"><g aspect="0" class="stpa-edge" style="stroke:rgb(255, 40, 40);"><path d="M 49,78.16666603088379 L 49,67.16666603088379 L 37,67.16666603088379 L 37,39.16666603088379"/><ellipse transform="translate(49,67.16666603088379)" cx="0" cy="0" rx="1.5" ry="1.5"/></g><path aspect="0" d="M 6,-3 L 0,0 L 6,3 Z" transform="rotate(90 37 38.16666603088379) translate(37 38.16666603088379)" class="stpa-edge-arrow" style="fill:rgb(255, 40, 40);stroke:rgb(255, 40, 40);"/></g><g id="stpa_4_H1_L2" class="sprotty-edge stpa" style="fill:none;stroke:rgb(0, 0, 0);stroke-width:2px;"><g aspect="0" class="stpa-edge" style="stroke:rgb(255, 40, 40);"><path d="M 49,78.16666603088379 L 49,67.16666603088379 L 81,67.16666603088379 L 81,39.16666603088379"/></g><path aspect="0" d="M 6,-3 L 0,0 L 6,3 Z" transform="rotate(90 81 38.16666603088379) translate(81 38.16666603088379)" class="stpa-edge-arrow" style="fill:rgb(255, 40, 40);stroke:rgb(255, 40, 40);"/></g><g aspect="0" id="stpa_4_H1" class="stpa-node stpa" transform="translate(27, 78.16666603088379)" style="fill:rgb(255, 255, 255);stroke:rgb(255, 40, 40);stroke-width:2px;"><g><rect x="0" y="0" rx="5" ry="5" width="32" height="24.16666603088379"/></g><text class="label sprotty-label" id="stpa_4_H1_label" transform="translate(7.6861982345581055, 5) translate(0, 11.666666030883789)" style="cursor:default;fill:rgb(0, 0, 0);font-family:Arial, sans-serif;stroke-width:0px;">H1</text><g id="stpa_4_H1_outPort" class="pasta-hidden pasta" transform="translate(21, -1)" style="opacity:0;"><g><rect x="0" y="0" width="1" height="1"/></g></g><g id="stpa_4_UCA48_H1_newTransition" class="pasta-hidden pasta" transform="translate(10, 24.16666603088379)" style="opacity:0;"><g><rect x="0" y="0" width="1" height="1"/></g></g><g id="stpa_4_UCA49_H1_newTransition" class="pasta-hidden pasta" transform="translate(21, 24.16666603088379)" style="opacity:0;"><g><rect x="0" y="0" width="1" height="1"/></g></g></g><g id="stpa_4_H2_L2" class="sprotty-edge stpa" style="fill:none;stroke:rgb(0, 0, 0);stroke-width:2px;"><g aspect="0" class="stpa-edge" style="stroke:rgb(255, 40, 40);"><path d="M 92,78.16666603088379 L 92,39.16666603088379"/></g><path aspect="0" d="M 6,-3 L 0,0 L 6,3 Z" transform="rotate(90 92 38.16666603088379) translate(92 38.16666603088379)" class="stpa-edge-arrow" style="fill:rgb(255, 40, 40);stroke:rgb(255, 40, 40);"/></g><g aspect="0" id="stpa_4_H2" class="stpa-node stpa" transform="translate(79, 78.16666603088379)" style="fill:rgb(255, 255, 255);stroke:rgb(255, 40, 40);stroke-width:2px;"><g><rect x="0" y="0" rx="5" ry="5" width="26.888172149658203" height="24.16666603088379"/></g><text class="label sprotty-label" id="stpa_4_H2_label" transform="translate(5, 5) translate(0, 11.666666030883789)" style="cursor:default;fill:rgb(0, 0, 0);font-family:Arial, sans-serif;stroke-width:0px;">H2</text><g id="stpa_4_H2_outPort" class="pasta-hidden pasta" transform="translate(12.5, -1)" style="opacity:0;"><g><rect x="0" y="0" width="1" height="1"/></g></g></g><g id="stpa_4_H3_L3" class="sprotty-edge stpa" style="fill:none;stroke:rgb(0, 0, 0);stroke-width:2px;"><g aspect="0" class="stpa-edge" style="stroke:rgb(255, 40, 40);"><path d="M 147.5,78.16666603088379 L 147.5,39.16666603088379"/></g><path aspect="0" d="M 6,-3 L 0,0 L 6,3 Z" transform="rotate(90 147.5 38.16666603088379) translate(147.5 38.16666603088379)" class="stpa-edge-arrow" style="fill:rgb(255, 40, 40);stroke:rgb(255, 40, 40);"/></g><g id="stpa_4_H3_L5" class="sprotty-edge stpa" style="fill:none;stroke:rgb(0, 0, 0);stroke-width:2px;"><g aspect="0" class="stpa-edge" style="stroke:rgb(255, 40, 40);"><path d="M 148,78.16666603088379 L 148,47.16666603088379 L 227,47.16666603088379 L 227,39.16666603088379"/><ellipse transform="translate(148,47.16666603088379)" cx="0" cy="0" rx="1.5" ry="1.5"/></g><path aspect="0" d="M 6,-3 L 0,0 L 6,3 Z" transform="rotate(90 227 38.16666603088379) translate(227 38.16666603088379)" class="stpa-edge-arrow" style="fill:rgb(255, 40, 40);stroke:rgb(255, 40, 40);"/></g><g aspect="0" id="stpa_4_H3" class="stpa-node stpa" transform="translate(126, 78.16666603088379)" style="fill:rgb(255, 255, 255);stroke:rgb(255, 40, 40);stroke-width:2px;"><g><rect x="0" y="0" rx="5" ry="5" width="32" height="24.16666603088379"/></g><text class="label sprotty-label" id="stpa_4_H3_label" transform="translate(7.555913925170898, 5) translate(0, 11.666666030883789)" style="cursor:default;fill:rgb(0, 0, 0);font-family:Arial, sans-serif;stroke-width:0px;">H3</text><g id="stpa_4_H3_outPort" class="pasta-hidden pasta" transform="translate(21, -1)" style="opacity:0;"><g><rect x="0" y="0" width="1" height="1"/></g></g><g id="stpa_4_UCA48_H3_newTransition" class="pasta-hidden pasta" transform="translate(10, 24.16666603088379)" style="opacity:0;"><g><rect x="0" y="0" width="1" height="1"/></g></g><g id="stpa_4_UCA49_H3_newTransition" class="pasta-hidden pasta" transform="translate(21, 24.16666603088379)" style="opacity:0;"><g><rect x="0" y="0" width="1" height="1"/></g></g></g><g id="stpa_4_H4_L3" class="sprotty-edge stpa" style="fill:none;stroke:rgb(0, 0, 0);stroke-width:2px;"><g aspect="0" class="stpa-edge" style="stroke:rgb(255, 40, 40);"><path d="M 238,78.16666603088379 L 238,67.16666603088379 L 175,67.16666603088379 L 175,39.16666603088379"/><ellipse transform="translate(238,67.16666603088379)" cx="0" cy="0" rx="1.5" ry="1.5"/></g><path aspect="0" d="M 6,-3 L 0,0 L 6,3 Z" transform="rotate(90 175 38.16666603088379) translate(175 38.16666603088379)" class="stpa-edge-arrow" style="fill:rgb(255, 40, 40);stroke:rgb(255, 40, 40);"/></g><g id="stpa_4_H4_L4" class="sprotty-edge stpa" style="fill:none;stroke:rgb(0, 0, 0);stroke-width:2px;"><g aspect="0" class="stpa-edge" style="stroke:rgb(255, 40, 40);"><path d="M 238,78.16666603088379 L 238,67.16666603088379 L 280,67.16666603088379 L 280,39.16666603088379"/></g><path aspect="0" d="M 6,-3 L 0,0 L 6,3 Z" transform="rotate(90 280 38.16666603088379) translate(280 38.16666603088379)" class="stpa-edge-arrow" style="fill:rgb(255, 40, 40);stroke:rgb(255, 40, 40);"/></g><g id="stpa_4_H4_L5" class="sprotty-edge stpa" style="fill:none;stroke:rgb(0, 0, 0);stroke-width:2px;"><g aspect="0" class="stpa-edge" style="stroke:rgb(255, 40, 40);"><path d="M 238,78.16666603088379 L 238,39.16666603088379"/></g><path aspect="0" d="M 6,-3 L 0,0 L 6,3 Z" transform="rotate(90 238 38.16666603088379) translate(238 38.16666603088379)" class="stpa-edge-arrow" style="fill:rgb(255, 40, 40);stroke:rgb(255, 40, 40);"/></g><g aspect="0" id="stpa_4_H4" class="stpa-node stpa" transform="translate(225, 78.16666603088379)" style="fill:rgb(255, 255, 255);stroke:rgb(255, 40, 40);stroke-width:2px;"><g><rect x="0" y="0" rx="5" ry="5" width="26.888172149658203" height="24.16666603088379"/></g><text class="label sprotty-label" id="stpa_4_H4_label" transform="translate(5, 5) translate(0, 11.666666030883789)" style="cursor:default;fill:rgb(0, 0, 0);font-family:Arial, sans-serif;stroke-width:0px;">H4</text><g id="stpa_4_H4_outPort" class="pasta-hidden pasta" transform="translate(12.5, -1)" style="opacity:0;"><g><rect x="0" y="0" width="1" height="1"/></g></g></g><g id="stpa_4_H5_L3" class="sprotty-edge stpa" style="fill:none;stroke:rgb(0, 0, 0);stroke-width:2px;"><g aspect="0" class="stpa-edge" style="stroke:rgb(255, 40, 40);"><path d="M 191,78.16666603088379 L 191,57.16666603088379 L 186,57.16666603088379 L 186,39.16666603088379"/></g><path aspect="0" d="M 6,-3 L 0,0 L 6,3 Z" transform="rotate(90 186 38.16666603088379) translate(186 38.16666603088379)" class="stpa-edge-arrow" style="fill:rgb(255, 40, 40);stroke:rgb(255, 40, 40);"/></g><g aspect="0" id="stpa_4_H5" class="stpa-node stpa" transform="translate(178, 78.16666603088379)" style="fill:rgb(255, 255, 255);stroke:rgb(255, 40, 40);stroke-width:2px;"><g><rect x="0" y="0" rx="5" ry="5" width="26.888172149658203" height="24.16666603088379"/></g><text class="label sprotty-label" id="stpa_4_H5_label" transform="translate(5, 5) translate(0, 11.666666030883789)" style="cursor:default;fill:rgb(0, 0, 0);font-family:Arial, sans-serif;stroke-width:0px;">H5</text><g id="stpa_4_H5_outPort" class="pasta-hidden pasta" transform="translate(12.5, -1)" style="opacity:0;"><g><rect x="0" y="0" width="1" height="1"/></g></g></g><g id="stpa_4_UCA48_H1" class="sprotty-edge stpa" style="fill:none;stroke:rgb(0, 0, 0);stroke-width:2px;"><g aspect="4" class="stpa-edge" style="stroke:rgb(102, 179, 255);"><path d="M 38,134.33333206176758 L 38,105.33333206176758"/></g><path aspect="4" d="M 6,-3 L 0,0 L 6,3 Z" transform="rotate(90 38 104.33333206176758) translate(38 104.33333206176758)" class="stpa-edge-arrow" style="fill:rgb(102, 179, 255);stroke:rgb(102, 179, 255);"/></g><g id="stpa_4_UCA48_H3" class="sprotty-edge stpa" style="fill:none;stroke:rgb(0, 0, 0);stroke-width:2px;"><g aspect="4" class="stpa-edge" style="stroke:rgb(102, 179, 255);"><path d="M 38,134.33333206176758 L 38,113.33333206176758 L 137,113.33333206176758 L 137,105.33333206176758"/><ellipse transform="translate(38,113.33333206176758)" cx="0" cy="0" rx="1.5" ry="1.5"/></g><path aspect="4" d="M 6,-3 L 0,0 L 6,3 Z" transform="rotate(90 137 104.33333206176758) translate(137 104.33333206176758)" class="stpa-edge-arrow" style="fill:rgb(102, 179, 255);stroke:rgb(102, 179, 255);"/></g><g aspect="4" id="stpa_4_UCA48" class="stpa-node stpa" transform="translate(12, 134.33333206176758)" style="fill:rgb(255, 255, 255);stroke:rgb(102, 179, 255);stroke-width:2px;"><g><rect x="0" y="0" width="52.17721176147461" height="24.16666603088379"/></g><text class="label sprotty-label" id="stpa_4_UCA48_label" transform="translate(5, 5) translate(0, 11.666666030883789)" style="cursor:default;fill:rgb(0, 0, 0);font-family:Arial, sans-serif;stroke-width:0px;">UCA48</text><g id="stpa_4_UCA48_outPort" class="pasta-hidden pasta" transform="translate(25.5, -1)" style="opacity:0;"><g><rect x="0" y="0" width="1" height="1"/></g></g></g><g id="stpa_4_UCA49_H1" class="sprotty-edge stpa" style="fill:none;stroke:rgb(0, 0, 0);stroke-width:2px;"><g aspect="4" class="stpa-edge" style="stroke:rgb(102, 179, 255);"><path d="M 111,134.33333206176758 L 111,123.33333206176758 L 49,123.33333206176758 L 49,105.33333206176758"/><ellipse transform="translate(111,123.33333206176758)" cx="0" cy="0" rx="1.5" ry="1.5"/></g><path aspect="4" d="M 6,-3 L 0,0 L 6,3 Z" transform="rotate(90 49 104.33333206176758) translate(49 104.33333206176758)" class="stpa-edge-arrow" style="fill:rgb(102, 179, 255);stroke:rgb(102, 179, 255);"/></g><g id="stpa_4_UCA49_H3" class="sprotty-edge stpa" style="fill:none;stroke:rgb(0, 0, 0);stroke-width:2px;"><g aspect="4" class="stpa-edge" style="stroke:rgb(102, 179, 255);"><path d="M 111,134.33333206176758 L 111,123.33333206176758 L 148,123.33333206176758 L 148,105.33333206176758"/></g><path aspect="4" d="M 6,-3 L 0,0 L 6,3 Z" transform="rotate(90 148 104.33333206176758) translate(148 104.33333206176758)" class="stpa-edge-arrow" style="fill:rgb(102, 179, 255);stroke:rgb(102, 179, 255);"/></g><g aspect="4" id="stpa_4_UCA49" class="stpa-node stpa" transform="translate(85, 134.33333206176758)" style="fill:rgb(255, 255, 255);stroke:rgb(102, 179, 255);stroke-width:2px;"><g><rect x="0" y="0" width="52.17721176147461" height="24.16666603088379"/></g><text class="label sprotty-label" id="stpa_4_UCA49_label" transform="translate(5, 5) translate(0, 11.666666030883789)" style="cursor:default;fill:rgb(0, 0, 0);font-family:Arial, sans-serif;stroke-width:0px;">UCA49</text><g id="stpa_4_UCA49_outPort" class="pasta-hidden pasta" transform="translate(25.5, -1)" style="opacity:0;"><g><rect x="0" y="0" width="1" height="1"/></g></g></g></g></g></svg>