<svg xmlns="http://www.w3.org/2000/svg" id="stpa_4_root" class="sprotty-graph" style="flex-basis:0%;flex-grow:1;font-family:&quot;Helvetica Neue&quot;, Helvetica, Arial, sans-serif;font-size:13px;perspective-origin:0px 75px;scrollbar-color:rgba(100, 100, 100, 0.4) rgb(255, 255, 255);transform-origin:0px 75px;-webkit-locale:&quot;en&quot;;" version="1.1" viewBox="12 12 761.40087890625 256.6666564941406" width="761.40087890625" height="256.6666564941406"><g transform="scale(1) translate(0,0)"><g id="stpa_4_relationships" class="parent" transform="translate(12, 12)"><rect x="0" y="0" width="761.4008655548096" height="256.66666412353516" class="print-node" style="fill-opacity:0;stroke:rgb(0, 0, 0);"> </rect><g aspect="0" id="stpa_4_L1" class="stpa-node stpa" transform="translate(392, 12)" style="fill:rgb(255, 255, 255);stroke:rgb(255, 40, 40);stroke-width:2px;"><g><rect x="0" y="0" width="24.466145515441895" height="24.16666603088379"/></g><text class="label sprotty-label" id="stpa_4_L1_label" transform="translate(5, 5) translate(0, 11.666666030883789)" style="cursor:default;fill:rgb(0, 0, 0);font-family:Arial, sans-serif;stroke-width:0px;">L1</text><g id="stpa_4_H1_L1_newTransition" class="pasta-hidden pasta" transform="translate(11.5, 24.16666603088379)" style="opacity:0;"><g><rect x="0" y="0" width="1" height="1"/></g></g></g><g aspect="0" id="stpa_4_L2" class="stpa-node stpa" transform="translate(437, 12)" style="fill:rgb(255, 255, 255);stroke:rgb(255, 40, 40);stroke-width:2px;"><g><rect x="0" y="0" width="32" height="24.16666603088379"/></g><text class="label sprotty-label" id="stpa_4_L2_label" transform="translate(8.63501501083374, 5) translate(0, 11.666666030883789)" style="cursor:default;fill:rgb(0, 0, 0);font-family:Arial, sans-serif;stroke-width:0px;">L2</text><g id="stpa_4_H1_L2_newTransition" class="pasta-hidden pasta" transform="translate(10, 24.16666603088379)" style="opacity:0;"><g><rect x="0" y="0" width="1" height="1"/></g></g><g id="stpa_4_H2_L2_newTransition" class="pasta-hidden pasta" transform="translate(21, 24.16666603088379)" style="opacity:0;"><g><rect x="0" y="0" width="1" height="1"/></g></g></g><g aspect="0" id="stpa_4_L3" class="stpa-node stpa" transform="translate(526, 12)" style="fill:rgb(255, 255, 255);stroke:rgb(255, 40, 40);stroke-width:2px;"><g><rect x="0" y="0" width="57" height="24.16666603088379"/></g><text class="label sprotty-label" id="stpa_4_L3_label" transform="translate(21.13501501083374, 5) translate(0, 11.666666030883789)" style="cursor:default;fill:rgb(0, 0, 0);font-family:Arial, sans-serif;stroke-width:0px;">L3</text><g id="stpa_4_H3_L3_newTransition" class="pasta-hidden pasta" transform="translate(10, 24.16666603088379)" style="opacity:0;"><g><rect x="0" y="0" width="1" height="1"/></g></g><g id="stpa_4_H4_L3_newTransition" class="pasta-hidden pasta" transform="translate(35, 24.16666603088379)" style="opacity:0;"><g><rect x="0" y="0" width="1" height="1"/></g></g><g id="stpa_4_H5_L3_newTransition" class="pasta-hidden pasta" transform="translate(46, 24.16666603088379)" style="opacity:0;"><g><rect x="0" y="0" width="1" height="1"/></g></g></g><g aspect="0" id="stpa_4_L4" class="stpa-node stpa" transform="translate(655, 12)" style="fill:rgb(255, 255, 255);stroke:rgb(255, 40, 40);stroke-width:2px;"><g><rect x="0" y="0" width="24.72996997833252" height="24.16666603088379"/></g><text class="label sprotty-label" id="stpa_4_L4_label" transform="translate(5, 5) translate(0, 11.666666030883789)" style="cursor:default;fill:rgb(0, 0, 0);font-family:Arial, sans-serif;stroke-width:0px;">L4</text><g id="stpa_4_H4_L4_newTransition" class="pasta-hidden pasta" transform="translate(11.5, 24.16666603088379)" style="opacity:0;"><g><rect x="0" y="0" width="1" height="1"/></g></g></g><g aspect="0" id="stpa_4_L5" class="stpa-node stpa" transform="translate(603, 12)" style="fill:rgb(255, 255, 255);stroke:rgb(255, 40, 40);stroke-width:2px;"><g><rect x="0" y="0" width="32" height="24.16666603088379"/></g><text class="label sprotty-label" id="stpa_4_L5_label" transform="translate(8.63501501083374, 5) translate(0, 11.666666030883789)" style="cursor:default;fill:rgb(0, 0, 0);font-family:Arial, sans-serif;stroke-width:0px;">L5</text><g id="stpa_4_H3_L5_newTransition" class="pasta-hidden pasta" transform="translate(10, 24.16666603088379)" style="opacity:0;"><g><rect x="0" y="0" width="1" height="1"/></g></g><g id="stpa_4_H4_L5_newTransition" class="pasta-hidden pasta" transform="translate(21, 24.16666603088379)" style="opacity:0;"><g><rect x="0" y="0" width="1" height="1"/></g></g></g><g id="stpa_4_H1_L1" class="sprotty-edge stpa" style="fill:none;stroke:rgb(0, 0, 0);stroke-width:2px;"><g aspect="0" class="stpa-edge" style="stroke:rgb(255, 40, 40);"><path d="M 404,78.16666603088379 L 404,39.16666603088379"/></g><path aspect="0" d="M 6,-3 L 0,0 L 6,3 Z" transform="rotate(90.73452103425483 404 38.16666603088379) translate(404 38.16666603088379)" class="stpa-edge-arrow" style="fill:rgb(255, 40, 40);stroke:rgb(255, 40, 40);"/></g><g id="stpa_4_H1_L2" class="sprotty-edge stpa" style="fill:none;stroke:rgb(0, 0, 0);stroke-width:2px;"><g aspect="0" class="stpa-edge" style="stroke:rgb(255, 40, 40);"><path d="M 404,78.16666603088379 L 404,67.16666603088379 L 448,67.16666603088379 L 448,39.16666603088379"/><ellipse transform="translate(404,67.16666603088379)" cx="0" cy="0" rx="1.5" ry="1.5"/></g><path aspect="0" d="M 6,-3 L 0,0 L 6,3 Z" transform="rotate(90 448 38.16666603088379) translate(448 38.16666603088379)" class="stpa-edge-arrow" style="fill:rgb(255, 40, 40);stroke:rgb(255, 40, 40);"/></g><g aspect="0" id="stpa_4_H1" class="stpa-node stpa" transform="translate(171, 78.16666603088379)" style="fill:rgb(255, 255, 255);stroke:rgb(255, 40, 40);stroke-width:2px;"><g><rect x="0" y="0" rx="5" ry="5" width="255" height="24.16666603088379"/></g><text class="label sprotty-label" id="stpa_4_H1_label" transform="translate(119.1861982345581, 5) translate(0, 11.666666030883789)" style="cursor:default;fill:rgb(0, 0, 0);font-family:Arial, sans-serif;stroke-width:0px;">H1</text><g id="stpa_4_H1_outPort" class="pasta-hidden pasta" transform="translate(232, -1)" style="opacity:0;"><g><rect x="0" y="0" width="1" height="1"/></g></g><g id="stpa_4_UCA18_H1_newTransition" class="pasta-hidden pasta" transform="translate(10, 24.16666603088379)" style="opacity:0;"><g><rect x="0" y="0" width="1" height="1"/></g></g><g id="stpa_4_UCA19_H1_newTransition" class="pasta-hidden pasta" transform="translate(211, 24.16666603088379)" style="opacity:0;"><g><rect x="0" y="0" width="1" height="1"/></g></g><g id="stpa_4_UCA20_H1_newTransition" class="pasta-hidden pasta" transform="translate(222, 24.16666603088379)" style="opacity:0;"><g><rect x="0" y="0" width="1" height="1"/></g></g><g id="stpa_4_UCA21_H1_newTransition" class="pasta-hidden pasta" transform="translate(233, 24.16666603088379)" style="opacity:0;"><g><rect x="0" y="0" width="1" height="1"/></g></g><g id="stpa_4_UCA22_H1_newTransition" class="pasta-hidden pasta" transform="translate(244, 24.16666603088379)" style="opacity:0;"><g><rect x="0" y="0" width="1" height="1"/></g></g></g><g id="stpa_4_H2_L2" class="sprotty-edge stpa" style="fill:none;stroke:rgb(0, 0, 0);stroke-width:2px;"><g aspect="0" class="stpa-edge" style="stroke:rgb(255, 40, 40);"><path d="M 459,78.16666603088379 L 459,39.16666603088379"/></g><path aspect="0" d="M 6,-3 L 0,0 L 6,3 Z" transform="rotate(90 459 38.16666603088379) translate(459 38.16666603088379)" class="stpa-edge-arrow" style="fill:rgb(255, 40, 40);stroke:rgb(255, 40, 40);"/></g><g aspect="0" id="stpa_4_H2" class="stpa-node stpa" transform="translate(446, 78.16666603088379)" style="fill:rgb(255, 255, 255);stroke:rgb(255, 40, 40);stroke-width:2px;"><g><rect x="0" y="0" rx="5" ry="5" width="26.888172149658203" height="24.16666603088379"/></g><text class="label sprotty-label" id="stpa_4_H2_label" transform="translate(5, 5) translate(0, 11.666666030883789)" style="cursor:default;fill:rgb(0, 0, 0);font-family:Arial, sans-serif;stroke-width:0px;">H2</text><g id="stpa_4_H2_outPort" class="pasta-hidden pasta" transform="translate(12.5, -1)" style="opacity:0;"><g><rect x="0" y="0" width="1" height="1"/></g></g></g><g id="stpa_4_H3_L3" class="sprotty-edge stpa" style="fill:none;stroke:rgb(0, 0, 0);stroke-width:2px;"><g aspect="0" class="stpa-edge" style="stroke:rgb(255, 40, 40);"><path d="M 536.5,78.16666603088379 L 536.5,39.16666603088379"/></g><path aspect="0" d="M 6,-3 L 0,0 L 6,3 Z" transform="rotate(90 536.5 38.16666603088379) translate(536.5 38.16666603088379)" class="stpa-edge-arrow" style="fill:rgb(255, 40, 40);stroke:rgb(255, 40, 40);"/></g><g id="stpa_4_H3_L5" class="sprotty-edge stpa" style="fill:none;stroke:rgb(0, 0, 0);stroke-width:2px;"><g aspect="0" class="stpa-edge" style="stroke:rgb(255, 40, 40);"><path d="M 537,78.16666603088379 L 537,47.16666603088379 L 614,47.16666603088379 L 614,39.16666603088379"/><ellipse transform="translate(537,47.16666603088379)" cx="0" cy="0" rx="1.5" ry="1.5"/></g><path aspect="0" d="M 6,-3 L 0,0 L 6,3 Z" transform="rotate(90 614 38.16666603088379) translate(614 38.16666603088379)" class="stpa-edge-arrow" style="fill:rgb(255, 40, 40);stroke:rgb(255, 40, 40);"/></g><g aspect="0" id="stpa_4_H3" class="stpa-node stpa" transform="translate(493, 78.16666603088379)" style="fill:rgb(255, 255, 255);stroke:rgb(255, 40, 40);stroke-width:2px;"><g><rect x="0" y="0" rx="5" ry="5" width="54" height="24.16666603088379"/></g><text class="label sprotty-label" id="stpa_4_H3_label" transform="translate(18.5559139251709, 5) translate(0, 11.666666030883789)" style="cursor:default;fill:rgb(0, 0, 0);font-family:Arial, sans-serif;stroke-width:0px;">H3</text><g id="stpa_4_H3_outPort" class="pasta-hidden pasta" transform="translate(43, -1)" style="opacity:0;"><g><rect x="0" y="0" width="1" height="1"/></g></g><g id="stpa_4_UCA18_H3_newTransition" class="pasta-hidden pasta" transform="translate(10, 24.16666603088379)" style="opacity:0;"><g><rect x="0" y="0" width="1" height="1"/></g></g><g id="stpa_4_UCA19_H3_newTransition" class="pasta-hidden pasta" transform="translate(21, 24.16666603088379)" style="opacity:0;"><g><rect x="0" y="0" width="1" height="1"/></g></g><g id="stpa_4_UCA20_H3_newTransition" class="pasta-hidden pasta" transform="translate(32, 24.16666603088379)" style="opacity:0;"><g><rect x="0" y="0" width="1" height="1"/></g></g><g id="stpa_4_UCA21_H3_newTransition" class="pasta-hidden pasta" transform="translate(43, 24.16666603088379)" style="opacity:0;"><g><rect x="0" y="0" width="1" height="1"/></g></g></g><g id="stpa_4_H4_L3" class="sprotty-edge stpa" style="fill:none;stroke:rgb(0, 0, 0);stroke-width:2px;"><g aspect="0" class="stpa-edge" style="stroke:rgb(255, 40, 40);"><path d="M 625,78.16666603088379 L 625,67.16666603088379 L 562,67.16666603088379 L 562,39.16666603088379"/><ellipse transform="translate(625,67.16666603088379)" cx="0" cy="0" rx="1.5" ry="1.5"/></g><path aspect="0" d="M 6,-3 L 0,0 L 6,3 Z" transform="rotate(90 562 38.16666603088379) translate(562 38.16666603088379)" class="stpa-edge-arrow" style="fill:rgb(255, 40, 40);stroke:rgb(255, 40, 40);"/></g><g id="stpa_4_H4_L4" class="sprotty-edge stpa" style="fill:none;stroke:rgb(0, 0, 0);stroke-width:2px;"><g aspect="0" class="stpa-edge" style="stroke:rgb(255, 40, 40);"><path d="M 625,78.16666603088379 L 625,67.16666603088379 L 667,67.16666603088379 L 667,39.16666603088379"/></g><path aspect="0" d="M 6,-3 L 0,0 L 6,3 Z" transform="rotate(90 667 38.16666603088379) translate(667 38.16666603088379)" class="stpa-edge-arrow" style="fill:rgb(255, 40, 40);stroke:rgb(255, 40, 40);"/></g><g id="stpa_4_H4_L5" class="sprotty-edge stpa" style="fill:none;stroke:rgb(0, 0, 0);stroke-width:2px;"><g aspect="0" class="stpa-edge" style="stroke:rgb(255, 40, 40);"><path d="M 624.5,78.16666603088379 L 624.5,39.16666603088379"/></g><path aspect="0" d="M 6,-3 L 0,0 L 6,3 Z" transform="rotate(90 624.5 38.16666603088379) translate(624.5 38.16666603088379)" class="stpa-edge-arrow" style="fill:rgb(255, 40, 40);stroke:rgb(255, 40, 40);"/></g><g aspect="0" id="stpa_4_H4" class="stpa-node stpa" transform="translate(614, 78.16666603088379)" style="fill:rgb(255, 255, 255);stroke:rgb(255, 40, 40);stroke-width:2px;"><g><rect x="0" y="0" rx="5" ry="5" width="54" height="24.16666603088379"/></g><text class="label sprotty-label" id="stpa_4_H4_label" transform="translate(18.5559139251709, 5) translate(0, 11.666666030883789)" style="cursor:default;fill:rgb(0, 0, 0);font-family:Arial, sans-serif;stroke-width:0px;">H4</text><g id="stpa_4_H4_outPort" class="pasta-hidden pasta" transform="translate(10, -1)" style="opacity:0;"><g><rect x="0" y="0" width="1" height="1"/></g></g><g id="stpa_4_UCA18_H4_newTransition" class="pasta-hidden pasta" transform="translate(10, 24.16666603088379)" style="opacity:0;"><g><rect x="0" y="0" width="1" height="1"/></g></g><g id="stpa_4_UCA19_H4_newTransition" class="pasta-hidden pasta" transform="translate(21, 24.16666603088379)" style="opacity:0;"><g><rect x="0" y="0" width="1" height="1"/></g></g><g id="stpa_4_UCA20_H4_newTransition" class="pasta-hidden pasta" transform="translate(32, 24.16666603088379)" style="opacity:0;"><g><rect x="0" y="0" width="1" height="1"/></g></g><g id="stpa_4_UCA21_H4_newTransition" class="pasta-hidden pasta" transform="translate(43, 24.16666603088379)" style="opacity:0;"><g><rect x="0" y="0" width="1" height="1"/></g></g></g><g id="stpa_4_H5_L3" class="sprotty-edge stpa" style="fill:none;stroke:rgb(0, 0, 0);stroke-width:2px;"><g aspect="0" class="stpa-edge" style="stroke:rgb(255, 40, 40);"><path d="M 580,78.16666603088379 L 580,57.16666603088379 L 573,57.16666603088379 L 573,39.16666603088379"/></g><path aspect="0" d="M 6,-3 L 0,0 L 6,3 Z" transform="rotate(90 573 38.16666603088379) translate(573 38.16666603088379)" class="stpa-edge-arrow" style="fill:rgb(255, 40, 40);stroke:rgb(255, 40, 40);"/></g><g aspect="0" id="stpa_4_H5" class="stpa-node stpa" transform="translate(567, 78.16666603088379)" style="fill:rgb(255, 255, 255);stroke:rgb(255, 40, 40);stroke-width:2px;"><g><rect x="0" y="0" rx="5" ry="5" width="26.888172149658203" height="24.16666603088379"/></g><text class="label sprotty-label" id="stpa_4_H5_label" transform="translate(5, 5) translate(0, 11.666666030883789)" style="cursor:default;fill:rgb(0, 0, 0);font-family:Arial, sans-serif;stroke-width:0px;">H5</text><g id="stpa_4_H5_outPort" class="pasta-hidden pasta" transform="translate(12.5, -1)" style="opacity:0;"><g><rect x="0" y="0" width="1" height="1"/></g></g></g><g id="stpa_4_UCA18_H1" class="sprotty-edge stpa" style="fill:none;stroke:rgb(0, 0, 0);stroke-width:2px;"><g aspect="4" class="stpa-edge" style="stroke:rgb(102, 179, 255);"><path d="M 181.5,164.33333206176758 L 181.5,105.33333206176758"/></g><path aspect="4" d="M 6,-3 L 0,0 L 6,3 Z" transform="rotate(90 181.5 104.33333206176758) translate(181.5 104.33333206176758)" class="stpa-edge-arrow" style="fill:rgb(102, 179, 255);stroke:rgb(102, 179, 255);"/></g><g id="stpa_4_UCA18_H3" class="sprotty-edge stpa" style="fill:none;stroke:rgb(0, 0, 0);stroke-width:2px;"><g aspect="4" class="stpa-edge" style="stroke:rgb(102, 179, 255);"><path d="M 182,164.33333206176758 L 182,113.33333206176758 L 504,113.33333206176758 L 504,105.33333206176758"/><ellipse transform="translate(182,113.33333206176758)" cx="0" cy="0" rx="1.5" ry="1.5"/><ellipse transform="translate(504,113.33333206176758)" cx="0" cy="0" rx="1.5" ry="1.5"/></g><path aspect="4" d="M 6,-3 L 0,0 L 6,3 Z" transform="rotate(90 504 104.33333206176758) translate(504 104.33333206176758)" class="stpa-edge-arrow" style="fill:rgb(102, 179, 255);stroke:rgb(102, 179, 255);"/></g><g id="stpa_4_UCA18_H4" class="sprotty-edge stpa" style="fill:none;stroke:rgb(0, 0, 0);stroke-width:2px;"><g aspect="4" class="stpa-edge" style="stroke:rgb(102, 179, 255);"><path d="M 182,164.33333206176758 L 182,113.33333206176758 L 625,113.33333206176758 L 625,105.33333206176758"/></g><path aspect="4" d="M 6,-3 L 0,0 L 6,3 Z" transform="rotate(90 625 104.33333206176758) translate(625 104.33333206176758)" class="stpa-edge-arrow" style="fill:rgb(102, 179, 255);stroke:rgb(102, 179, 255);"/></g><g aspect="4" id="stpa_4_UCA18" class="stpa-node stpa" transform="translate(18, 164.33333206176758)" style="fill:rgb(255, 255, 255);stroke:rgb(102, 179, 255);stroke-width:2px;"><g><rect x="0" y="0" width="174" height="24.16666603088379"/></g><text class="label sprotty-label" id="stpa_4_UCA18_label" transform="translate(65.9113941192627, 5) translate(0, 11.666666030883789)" style="cursor:default;fill:rgb(0, 0, 0);font-family:Arial, sans-serif;stroke-width:0px;">UCA18</text><g id="stpa_4_UCA18_outPort" class="pasta-hidden pasta" transform="translate(163, -1)" style="opacity:0;"><g><rect x="0" y="0" width="1" height="1"/></g></g><g id="stpa_4_S26_UCA18_newTransition" class="pasta-hidden pasta" transform="translate(10, 24.16666603088379)" style="opacity:0;"><g><rect x="0" y="0" width="1" height="1"/></g></g><g id="stpa_4_S27_UCA18_newTransition" class="pasta-hidden pasta" transform="translate(64, 24.16666603088379)" style="opacity:0;"><g><rect x="0" y="0" width="1" height="1"/></g></g></g><g id="stpa_4_UCA19_H1" class="sprotty-edge stpa" style="fill:none;stroke:rgb(0, 0, 0);stroke-width:2px;"><g aspect="4" class="stpa-edge" style="stroke:rgb(102, 179, 255);"><path d="M 515,164.33333206176758 L 515,153.33333206176758 L 383,153.33333206176758 L 383,105.33333206176758"/><ellipse transform="translate(515,153.33333206176758)" cx="0" cy="0" rx="1.5" ry="1.5"/></g><path aspect="4" d="M 6,-3 L 0,0 L 6,3 Z" transform="rotate(90 383 104.33333206176758) translate(383 104.33333206176758)" class="stpa-edge-arrow" style="fill:rgb(102, 179, 255);stroke:rgb(102, 179, 255);"/></g><g id="stpa_4_UCA19_H3" class="sprotty-edge stpa" style="fill:none;stroke:rgb(0, 0, 0);stroke-width:2px;"><g aspect="4" class="stpa-edge" style="stroke:rgb(102, 179, 255);"><path d="M 514.5,164.33333206176758 L 514.5,105.33333206176758"/></g><path aspect="4" d="M 6,-3 L 0,0 L 6,3 Z" transform="rotate(90 514.5 104.33333206176758) translate(514.5 104.33333206176758)" class="stpa-edge-arrow" style="fill:rgb(102, 179, 255);stroke:rgb(102, 179, 255);"/></g><g id="stpa_4_UCA19_H4" class="sprotty-edge stpa" style="fill:none;stroke:rgb(0, 0, 0);stroke-width:2px;"><g aspect="4" class="stpa-edge" style="stroke:rgb(102, 179, 255);"><path d="M 515,164.33333206176758 L 515,153.33333206176758 L 636,153.33333206176758 L 636,105.33333206176758"/></g><path aspect="4" d="M 6,-3 L 0,0 L 6,3 Z" transform="rotate(90 636 104.33333206176758) translate(636 104.33333206176758)" class="stpa-edge-arrow" style="fill:rgb(102, 179, 255);stroke:rgb(102, 179, 255);"/></g><g aspect="4" id="stpa_4_UCA19" class="stpa-node stpa" transform="translate(212, 164.33333206176758)" style="fill:rgb(255, 255, 255);stroke:rgb(102, 179, 255);stroke-width:2px;"><g><rect x="0" y="0" width="313" height="24.16666603088379"/></g><text class="label sprotty-label" id="stpa_4_UCA19_label" transform="translate(135.4113941192627, 5) translate(0, 11.666666030883789)" style="cursor:default;fill:rgb(0, 0, 0);font-family:Arial, sans-serif;stroke-width:0px;">UCA19</text><g id="stpa_4_UCA19_outPort" class="pasta-hidden pasta" transform="translate(302, -1)" style="opacity:0;"><g><rect x="0" y="0" width="1" height="1"/></g></g><g id="stpa_4_S28_UCA19_newTransition" class="pasta-hidden pasta" transform="translate(10, 24.16666603088379)" style="opacity:0;"><g><rect x="0" y="0" width="1" height="1"/></g></g><g id="stpa_4_S29_UCA19_newTransition" class="pasta-hidden pasta" transform="translate(21, 24.16666603088379)" style="opacity:0;"><g><rect x="0" y="0" width="1" height="1"/></g></g><g id="stpa_4_S30_UCA19_newTransition" class="pasta-hidden pasta" transform="translate(32, 24.16666603088379)" style="opacity:0;"><g><rect x="0" y="0" width="1" height="1"/></g></g><g id="stpa_4_S31_UCA19_newTransition" class="pasta-hidden pasta" transform="translate(86, 24.16666603088379)" style="opacity:0;"><g><rect x="0" y="0" width="1" height="1"/></g></g><g id="stpa_4_S32_UCA19_newTransition" class="pasta-hidden pasta" transform="translate(140, 24.16666603088379)" style="opacity:0;"><g><rect x="0" y="0" width="1" height="1"/></g></g><g id="stpa_4_S33_UCA19_newTransition" class="pasta-hidden pasta" transform="translate(194, 24.16666603088379)" style="opacity:0;"><g><rect x="0" y="0" width="1" height="1"/></g></g><g id="stpa_4_S34_UCA19_newTransition" class="pasta-hidden pasta" transform="translate(248, 24.16666603088379)" style="opacity:0;"><g><rect x="0" y="0" width="1" height="1"/></g></g><g id="stpa_4_S35_UCA19_newTransition" class="pasta-hidden pasta" transform="translate(302, 24.16666603088379)" style="opacity:0;"><g><rect x="0" y="0" width="1" height="1"/></g></g></g><g id="stpa_4_UCA20_H1" class="sprotty-edge stpa" style="fill:none;stroke:rgb(0, 0, 0);stroke-width:2px;"><g aspect="4" class="stpa-edge" style="stroke:rgb(102, 179, 255);"><path d="M 556,164.33333206176758 L 556,143.33333206176758 L 394,143.33333206176758 L 394,105.33333206176758"/><ellipse transform="translate(556,143.33333206176758)" cx="0" cy="0" rx="1.5" ry="1.5"/></g><path aspect="4" d="M 6,-3 L 0,0 L 6,3 Z" transform="rotate(90 394 104.33333206176758) translate(394 104.33333206176758)" class="stpa-edge-arrow" style="fill:rgb(102, 179, 255);stroke:rgb(102, 179, 255);"/></g><g id="stpa_4_UCA20_H3" class="sprotty-edge stpa" style="fill:none;stroke:rgb(0, 0, 0);stroke-width:2px;"><g aspect="4" class="stpa-edge" style="stroke:rgb(102, 179, 255);"><path d="M 556,164.33333206176758 L 556,143.33333206176758 L 526,143.33333206176758 L 526,105.33333206176758"/><ellipse transform="translate(526,143.33333206176758)" cx="0" cy="0" rx="1.5" ry="1.5"/></g><path aspect="4" d="M 6,-3 L 0,0 L 6,3 Z" transform="rotate(90 526 104.33333206176758) translate(526 104.33333206176758)" class="stpa-edge-arrow" style="fill:rgb(102, 179, 255);stroke:rgb(102, 179, 255);"/></g><g id="stpa_4_UCA20_H4" class="sprotty-edge stpa" style="fill:none;stroke:rgb(0, 0, 0);stroke-width:2px;"><g aspect="4" class="stpa-edge" style="stroke:rgb(102, 179, 255);"><path d="M 556,164.33333206176758 L 556,143.33333206176758 L 647,143.33333206176758 L 647,105.33333206176758"/></g><path aspect="4" d="M 6,-3 L 0,0 L 6,3 Z" transform="rotate(90 647 104.33333206176758) translate(647 104.33333206176758)" class="stpa-edge-arrow" style="fill:rgb(102, 179, 255);stroke:rgb(102, 179, 255);"/></g><g aspect="4" id="stpa_4_UCA20" class="stpa-node stpa" transform="translate(545, 164.33333206176758)" style="fill:rgb(255, 255, 255);stroke:rgb(102, 179, 255);stroke-width:2px;"><g><rect x="0" y="0" width="53" height="24.16666603088379"/></g><text class="label sprotty-label" id="stpa_4_UCA20_label" transform="translate(5.411394119262695, 5) translate(0, 11.666666030883789)" style="cursor:default;fill:rgb(0, 0, 0);font-family:Arial, sans-serif;stroke-width:0px;">UCA20</text><g id="stpa_4_UCA20_outPort" class="pasta-hidden pasta" transform="translate(10, -1)" style="opacity:0;"><g><rect x="0" y="0" width="1" height="1"/></g></g><g id="stpa_4_S36_UCA20_newTransition" class="pasta-hidden pasta" transform="translate(23, 24.16666603088379)" style="opacity:0;"><g><rect x="0" y="0" width="1" height="1"/></g></g><g id="stpa_4_S37_UCA20_newTransition" class="pasta-hidden pasta" transform="translate(42, 24.16666603088379)" style="opacity:0;"><g><rect x="0" y="0" width="1" height="1"/></g></g></g><g id="stpa_4_UCA21_H1" class="sprotty-edge stpa" style="fill:none;stroke:rgb(0, 0, 0);stroke-width:2px;"><g aspect="4" class="stpa-edge" style="stroke:rgb(102, 179, 255);"><path d="M 629,164.33333206176758 L 629,133.33333206176758 L 405,133.33333206176758 L 405,105.33333206176758"/><ellipse transform="translate(629,133.33333206176758)" cx="0" cy="0" rx="1.5" ry="1.5"/></g><path aspect="4" d="M 6,-3 L 0,0 L 6,3 Z" transform="rotate(90 405 104.33333206176758) translate(405 104.33333206176758)" class="stpa-edge-arrow" style="fill:rgb(102, 179, 255);stroke:rgb(102, 179, 255);"/></g><g id="stpa_4_UCA21_H3" class="sprotty-edge stpa" style="fill:none;stroke:rgb(0, 0, 0);stroke-width:2px;"><g aspect="4" class="stpa-edge" style="stroke:rgb(102, 179, 255);"><path d="M 629,164.33333206176758 L 629,133.33333206176758 L 537,133.33333206176758 L 537,105.33333206176758"/><ellipse transform="translate(537,133.33333206176758)" cx="0" cy="0" rx="1.5" ry="1.5"/></g><path aspect="4" d="M 6,-3 L 0,0 L 6,3 Z" transform="rotate(90 537 104.33333206176758) translate(537 104.33333206176758)" class="stpa-edge-arrow" style="fill:rgb(102, 179, 255);stroke:rgb(102, 179, 255);"/></g><g id="stpa_4_UCA21_H4" class="sprotty-edge stpa" style="fill:none;stroke:rgb(0, 0, 0);stroke-width:2px;"><g aspect="4" class="stpa-edge" style="stroke:rgb(102, 179, 255);"><path d="M 629,164.33333206176758 L 629,133.33333206176758 L 658,133.33333206176758 L 658,105.33333206176758"/></g><path aspect="4" d="M 6,-3 L 0,0 L 6,3 Z" transform="rotate(90 658 104.33333206176758) translate(658 104.33333206176758)" class="stpa-edge-arrow" style="fill:rgb(102, 179, 255);stroke:rgb(102, 179, 255);"/></g><g aspect="4" id="stpa_4_UCA21" class="stpa-node stpa" transform="translate(618, 164.33333206176758)" style="fill:rgb(255, 255, 255);stroke:rgb(102, 179, 255);stroke-width:2px;"><g><rect x="0" y="0" width="52" height="24.16666603088379"/></g><text class="label sprotty-label" id="stpa_4_UCA21_label" transform="translate(5.04296875, 5) translate(0, 11.666666030883789)" style="cursor:default;fill:rgb(0, 0, 0);font-family:Arial, sans-serif;stroke-width:0px;">UCA21</text><g id="stpa_4_UCA21_outPort" class="pasta-hidden pasta" transform="translate(10, -1)" style="opacity:0;"><g><rect x="0" y="0" width="1" height="1"/></g></g><g id="stpa_4_S38_UCA21_newTransition" class="pasta-hidden pasta" transform="translate(41, 24.16666603088379)" style="opacity:0;"><g><rect x="0" y="0" width="1" height="1"/></g></g></g><g id="stpa_4_UCA22_H1" class="sprotty-edge stpa" style="fill:none;stroke:rgb(0, 0, 0);stroke-width:2px;"><g aspect="4" class="stpa-edge" style="stroke:rgb(102, 179, 255);"><path d="M 701,164.33333206176758 L 701,123.33333206176758 L 416,123.33333206176758 L 416,105.33333206176758"/></g><path aspect="4" d="M 6,-3 L 0,0 L 6,3 Z" transform="rotate(90 416 104.33333206176758) translate(416 104.33333206176758)" class="stpa-edge-arrow" style="fill:rgb(102, 179, 255);stroke:rgb(102, 179, 255);"/></g><g aspect="4" id="stpa_4_UCA22" class="stpa-node stpa" transform="translate(690, 164.33333206176758)" style="fill:rgb(255, 255, 255);stroke:rgb(102, 179, 255);stroke-width:2px;"><g><rect x="0" y="0" width="53" height="24.16666603088379"/></g><text class="label sprotty-label" id="stpa_4_UCA22_label" transform="translate(5.411394119262695, 5) translate(0, 11.666666030883789)" style="cursor:default;fill:rgb(0, 0, 0);font-family:Arial, sans-serif;stroke-width:0px;">UCA22</text><g id="stpa_4_UCA22_outPort" class="pasta-hidden pasta" transform="translate(10, -1)" style="opacity:0;"><g><rect x="0" y="0" width="1" height="1"/></g></g><g id="stpa_4_S39_UCA22_newTransition" class="pasta-hidden pasta" transform="translate(42, 24.16666603088379)" style="opacity:0;"><g><rect x="0" y="0" width="1" height="1"/></g></g></g><g id="stpa_4_S26_UCA18" class="sprotty-edge stpa" style="fill:none;stroke:rgb(0, 0, 0);stroke-width:2px;"><g aspect="6" class="stpa-edge" style="stroke:rgb(204, 204, 0);"><path d="M 29,220.49999809265137 L 29,191.49999809265137"/></g><path aspect="6" d="M 6,-3 L 0,0 L 6,3 Z" transform="rotate(90 29 190.49999809265137) translate(29 190.49999809265137)" class="stpa-edge-arrow" style="fill:rgb(204, 204, 0);stroke:rgb(204, 204, 0);"/></g><g aspect="6" id="stpa_4_S26" class="stpa-node stpa" transform="translate(12, 220.49999809265137)" style="fill:rgb(255, 255, 255);stroke:rgb(204, 204, 0);stroke-width:2px;"><g><rect x="0" y="0" width="33.40086555480957" height="24.16666603088379"/></g><text class="label sprotty-label" id="stpa_4_S26_label" transform="translate(5, 5) translate(0, 11.666666030883789)" style="cursor:default;fill:rgb(0, 0, 0);font-family:Arial, sans-serif;stroke-width:0px;">S26</text><g id="stpa_4_S26_outPort" class="pasta-hidden pasta" transform="translate(16.5, -1)" style="opacity:0;"><g><rect x="0" y="0" width="1" height="1"/></g></g></g><g id="stpa_4_S27_UCA18" class="sprotty-edge stpa" style="fill:none;stroke:rgb(0, 0, 0);stroke-width:2px;"><g aspect="6" class="stpa-edge" style="stroke:rgb(204, 204, 0);"><path d="M 83,220.49999809265137 L 83,191.49999809265137"/></g><path aspect="6" d="M 6,-3 L 0,0 L 6,3 Z" transform="rotate(90 83 190.49999809265137) translate(83 190.49999809265137)" class="stpa-edge-arrow" style="fill:rgb(204, 204, 0);stroke:rgb(204, 204, 0);"/></g><g aspect="6" id="stpa_4_S27" class="stpa-node stpa" transform="translate(66, 220.49999809265137)" style="fill:rgb(255, 255, 255);stroke:rgb(204, 204, 0);stroke-width:2px;"><g><rect x="0" y="0" width="33.40086555480957" height="24.16666603088379"/></g><text class="label sprotty-label" id="stpa_4_S27_label" transform="translate(5, 5) translate(0, 11.666666030883789)" style="cursor:default;fill:rgb(0, 0, 0);font-family:Arial, sans-serif;stroke-width:0px;">S27</text><g id="stpa_4_S27_outPort" class="pasta-hidden pasta" transform="translate(16.5, -1)" style="opacity:0;"><g><rect x="0" y="0" width="1" height="1"/></g></g></g><g id="stpa_4_S28_UCA19" class="sprotty-edge stpa" style="fill:none;stroke:rgb(0, 0, 0);stroke-width:2px;"><g aspect="6" class="stpa-edge" style="stroke:rgb(204, 204, 0);"><path d="M 137,220.49999809265137 L 137,199.49999809265137 L 223,199.49999809265137 L 223,191.49999809265137"/></g><path aspect="6" d="M 6,-3 L 0,0 L 6,3 Z" transform="rotate(90 223 190.49999809265137) translate(223 190.49999809265137)" class="stpa-edge-arrow" style="fill:rgb(204, 204, 0);stroke:rgb(204, 204, 0);"/></g><g aspect="6" id="stpa_4_S28" class="stpa-node stpa" transform="translate(120, 220.49999809265137)" style="fill:rgb(255, 255, 255);stroke:rgb(204, 204, 0);stroke-width:2px;"><g><rect x="0" y="0" width="33.40086555480957" height="24.16666603088379"/></g><text class="label sprotty-label" id="stpa_4_S28_label" transform="translate(5, 5) translate(0, 11.666666030883789)" style="cursor:default;fill:rgb(0, 0, 0);font-family:Arial, sans-serif;stroke-width:0px;">S28</text><g id="stpa_4_S28_outPort" class="pasta-hidden pasta" transform="translate(16.5, -1)" style="opacity:0;"><g><rect x="0" y="0" width="1" height="1"/></g></g></g><g id="stpa_4_S29_UCA19" class="sprotty-edge stpa" style="fill:none;stroke:rgb(0, 0, 0);stroke-width:2px;"><g aspect="6" class="stpa-edge" style="stroke:rgb(204, 204, 0);"><path d="M 191,220.49999809265137 L 191,209.49999809265137 L 234,209.49999809265137 L 234,191.49999809265137"/></g><path aspect="6" d="M 6,-3 L 0,0 L 6,3 Z" transform="rotate(90 234 190.49999809265137) translate(234 190.49999809265137)" class="stpa-edge-arrow" style="fill:rgb(204, 204, 0);stroke:rgb(204, 204, 0);"/></g><g aspect="6" id="stpa_4_S29" class="stpa-node stpa" transform="translate(174, 220.49999809265137)" style="fill:rgb(255, 255, 255);stroke:rgb(204, 204, 0);stroke-width:2px;"><g><rect x="0" y="0" width="33.40086555480957" height="24.16666603088379"/></g><text class="label sprotty-label" id="stpa_4_S29_label" transform="translate(5, 5) translate(0, 11.666666030883789)" style="cursor:default;fill:rgb(0, 0, 0);font-family:Arial, sans-serif;stroke-width:0px;">S29</text><g id="stpa_4_S29_outPort" class="pasta-hidden pasta" transform="translate(16.5, -1)" style="opacity:0;"><g><rect x="0" y="0" width="1" height="1"/></g></g></g><g id="stpa_4_S30_UCA19" class="sprotty-edge stpa" style="fill:none;stroke:rgb(0, 0, 0);stroke-width:2px;"><g aspect="6" class="stpa-edge" style="stroke:rgb(204, 204, 0);"><path d="M 245,220.49999809265137 L 245,191.49999809265137"/></g><path aspect="6" d="M 6,-3 L 0,0 L 6,3 Z" transform="rotate(90 245 190.49999809265137) translate(245 190.49999809265137)" class="stpa-edge-arrow" style="fill:rgb(204, 204, 0);stroke:rgb(204, 204, 0);"/></g><g aspect="6" id="stpa_4_S30" class="stpa-node stpa" transform="translate(228, 220.49999809265137)" style="fill:rgb(255, 255, 255);stroke:rgb(204, 204, 0);stroke-width:2px;"><g><rect x="0" y="0" width="33.40086555480957" height="24.16666603088379"/></g><text class="label sprotty-label" id="stpa_4_S30_label" transform="translate(5, 5) translate(0, 11.666666030883789)" style="cursor:default;fill:rgb(0, 0, 0);font-family:Arial, sans-serif;stroke-width:0px;">S30</text><g id="stpa_4_S30_outPort" class="pasta-hidden pasta" transform="translate(16.5, -1)" style="opacity:0;"><g><rect x="0" y="0" width="1" height="1"/></g></g></g><g id="stpa_4_S31_UCA19" class="sprotty-edge stpa" style="fill:none;stroke:rgb(0, 0, 0);stroke-width:2px;"><g aspect="6" class="stpa-edge" style="stroke:rgb(204, 204, 0);"><path d="M 299,220.49999809265137 L 299,191.49999809265137"/></g><path aspect="6" d="M 6,-3 L 0,0 L 6,3 Z" transform="rotate(90 299 190.49999809265137) translate(299 190.49999809265137)" class="stpa-edge-arrow" style="fill:rgb(204, 204, 0);stroke:rgb(204, 204, 0);"/></g><g aspect="6" id="stpa_4_S31" class="stpa-node stpa" transform="translate(282, 220.49999809265137)" style="fill:rgb(255, 255, 255);stroke:rgb(204, 204, 0);stroke-width:2px;"><g><rect x="0" y="0" width="33.13801956176758" height="24.16666603088379"/></g><text class="label sprotty-label" id="stpa_4_S31_label" transform="translate(5, 5) translate(0, 11.666666030883789)" style="cursor:default;fill:rgb(0, 0, 0);font-family:Arial, sans-serif;stroke-width:0px;">S31</text><g id="stpa_4_S31_outPort" class="pasta-hidden pasta" transform="translate(16.5, -1)" style="opacity:0;"><g><rect x="0" y="0" width="1" height="1"/></g></g></g><g id="stpa_4_S32_UCA19" class="sprotty-edge stpa" style="fill:none;stroke:rgb(0, 0, 0);stroke-width:2px;"><g aspect="6" class="stpa-edge" style="stroke:rgb(204, 204, 0);"><path d="M 353,220.49999809265137 L 353,191.49999809265137"/></g><path aspect="6" d="M 6,-3 L 0,0 L 6,3 Z" transform="rotate(90 353 190.49999809265137) translate(353 190.49999809265137)" class="stpa-edge-arrow" style="fill:rgb(204, 204, 0);stroke:rgb(204, 204, 0);"/></g><g aspect="6" id="stpa_4_S32" class="stpa-node stpa" transform="translate(336, 220.49999809265137)" style="fill:rgb(255, 255, 255);stroke:rgb(204, 204, 0);stroke-width:2px;"><g><rect x="0" y="0" width="33.40086555480957" height="24.16666603088379"/></g><text class="label sprotty-label" id="stpa_4_S32_label" transform="translate(5, 5) translate(0, 11.666666030883789)" style="cursor:default;fill:rgb(0, 0, 0);font-family:Arial, sans-serif;stroke-width:0px;">S32</text><g id="stpa_4_S32_outPort" class="pasta-hidden pasta" transform="translate(16.5, -1)" style="opacity:0;"><g><rect x="0" y="0" width="1" height="1"/></g></g></g><g id="stpa_4_S33_UCA19" class="sprotty-edge stpa" style="fill:none;stroke:rgb(0, 0, 0);stroke-width:2px;"><g aspect="6" class="stpa-edge" style="stroke:rgb(204, 204, 0);"><path d="M 407,220.49999809265137 L 407,191.49999809265137"/></g><path aspect="6" d="M 6,-3 L 0,0 L 6,3 Z" transform="rotate(90 407 190.49999809265137) translate(407 190.49999809265137)" class="stpa-edge-arrow" style="fill:rgb(204, 204, 0);stroke:rgb(204, 204, 0);"/></g><g aspect="6" id="stpa_4_S33" class="stpa-node stpa" transform="translate(390, 220.49999809265137)" style="fill:rgb(255, 255, 255);stroke:rgb(204, 204, 0);stroke-width:2px;"><g><rect x="0" y="0" width="33.40086555480957" height="24.16666603088379"/></g><text class="label sprotty-label" id="stpa_4_S33_label" transform="translate(5, 5) translate(0, 11.666666030883789)" style="cursor:default;fill:rgb(0, 0, 0);font-family:Arial, sans-serif;stroke-width:0px;">S33</text><g id="stpa_4_S33_outPort" class="pasta-hidden pasta" transform="translate(16.5, -1)" style="opacity:0;"><g><rect x="0" y="0" width="1" height="1"/></g></g></g><g id="stpa_4_S34_UCA19" class="sprotty-edge stpa" style="fill:none;stroke:rgb(0, 0, 0);stroke-width:2px;"><g aspect="6" class="stpa-edge" style="stroke:rgb(204, 204, 0);"><path d="M 461,220.49999809265137 L 461,191.49999809265137"/></g><path aspect="6" d="M 6,-3 L 0,0 L 6,3 Z" transform="rotate(90 461 190.49999809265137) translate(461 190.49999809265137)" class="stpa-edge-arrow" style="fill:rgb(204, 204, 0);stroke:rgb(204, 204, 0);"/></g><g aspect="6" id="stpa_4_S34" class="stpa-node stpa" transform="translate(444, 220.49999809265137)" style="fill:rgb(255, 255, 255);stroke:rgb(204, 204, 0);stroke-width:2px;"><g><rect x="0" y="0" width="33.40086555480957" height="24.16666603088379"/></g><text class="label sprotty-label" id="stpa_4_S34_label" transform="translate(5, 5) translate(0, 11.666666030883789)" style="cursor:default;fill:rgb(0, 0, 0);font-family:Arial, sans-serif;stroke-width:0px;">S34</text><g id="stpa_4_S34_outPort" class="pasta-hidden pasta" transform="translate(16.5, -1)" style="opacity:0;"><g><rect x="0" y="0" width="1" height="1"/></g></g></g><g id="stpa_4_S35_UCA19" class="sprotty-edge stpa" style="fill:none;stroke:rgb(0, 0, 0);stroke-width:2px;"><g aspect="6" class="stpa-edge" style="stroke:rgb(204, 204, 0);"><path d="M 515,220.49999809265137 L 515,191.49999809265137"/></g><path aspect="6" d="M 6,-3 L 0,0 L 6,3 Z" transform="rotate(90 515 190.49999809265137) translate(515 190.49999809265137)" class="stpa-edge-arrow" style="fill:rgb(204, 204, 0);stroke:rgb(204, 204, 0);"/></g><g aspect="6" id="stpa_4_S35" class="stpa-node stpa" transform="translate(498, 220.49999809265137)" style="fill:rgb(255, 255, 255);stroke:rgb(204, 204, 0);stroke-width:2px;"><g><rect x="0" y="0" width="33.40086555480957" height="24.16666603088379"/></g><text class="label sprotty-label" id="stpa_4_S35_label" transform="translate(5, 5) translate(0, 11.666666030883789)" style="cursor:default;fill:rgb(0, 0, 0);font-family:Arial, sans-serif;stroke-width:0px;">S35</text><g id="stpa_4_S35_outPort" class="pasta-hidden pasta" transform="translate(16.5, -1)" style="opacity:0;"><g><rect x="0" y="0" width="1" height="1"/></g></g></g><g id="stpa_4_S36_UCA20" class="sprotty-edge stpa" style="fill:none;stroke:rgb(0, 0, 0);stroke-width:2px;"><g aspect="6" class="stpa-edge" style="stroke:rgb(204, 204, 0);"><path d="M 569,220.49999809265137 L 569,191.49999809265137"/></g><path aspect="6" d="M 6,-3 L 0,0 L 6,3 Z" transform="rotate(90 569 190.49999809265137) translate(569 190.49999809265137)" class="stpa-edge-arrow" style="fill:rgb(204, 204, 0);stroke:rgb(204, 204, 0);"/></g><g aspect="6" id="stpa_4_S36" class="stpa-node stpa" transform="translate(552, 220.49999809265137)" style="fill:rgb(255, 255, 255);stroke:rgb(204, 204, 0);stroke-width:2px;"><g><rect x="0" y="0" width="33.40086555480957" height="24.16666603088379"/></g><text class="label sprotty-label" id="stpa_4_S36_label" transform="translate(5, 5) translate(0, 11.666666030883789)" style="cursor:default;fill:rgb(0, 0, 0);font-family:Arial, sans-serif;stroke-width:0px;">S36</text><g id="stpa_4_S36_outPort" class="pasta-hidden pasta" transform="translate(16.5, -1)" style="opacity:0;"><g><rect x="0" y="0" width="1" height="1"/></g></g></g><g id="stpa_4_S37_UCA20" class="sprotty-edge stpa" style="fill:none;stroke:rgb(0, 0, 0);stroke-width:2px;"><g aspect="6" class="stpa-edge" style="stroke:rgb(204, 204, 0);"><path d="M 623,220.49999809265137 L 623,209.49999809265137 L 588,209.49999809265137 L 588,191.49999809265137"/></g><path aspect="6" d="M 6,-3 L 0,0 L 6,3 Z" transform="rotate(90 588 190.49999809265137) translate(588 190.49999809265137)" class="stpa-edge-arrow" style="fill:rgb(204, 204, 0);stroke:rgb(204, 204, 0);"/></g><g aspect="6" id="stpa_4_S37" class="stpa-node stpa" transform="translate(606, 220.49999809265137)" style="fill:rgb(255, 255, 255);stroke:rgb(204, 204, 0);stroke-width:2px;"><g><rect x="0" y="0" width="33.40086555480957" height="24.16666603088379"/></g><text class="label sprotty-label" id="stpa_4_S37_label" transform="translate(5, 5) translate(0, 11.666666030883789)" style="cursor:default;fill:rgb(0, 0, 0);font-family:Arial, sans-serif;stroke-width:0px;">S37</text><g id="stpa_4_S37_outPort" class="pasta-hidden pasta" transform="translate(16.5, -1)" style="opacity:0;"><g><rect x="0" y="0" width="1" height="1"/></g></g></g><g id="stpa_4_S38_UCA21" class="sprotty-edge stpa" style="fill:none;stroke:rgb(0, 0, 0);stroke-width:2px;"><g aspect="6" class="stpa-edge" style="stroke:rgb(204, 204, 0);"><path d="M 677,220.49999809265137 L 677,209.49999809265137 L 660,209.49999809265137 L 660,191.49999809265137"/></g><path aspect="6" d="M 6,-3 L 0,0 L 6,3 Z" transform="rotate(90 660 190.49999809265137) translate(660 190.49999809265137)" class="stpa-edge-arrow" style="fill:rgb(204, 204, 0);stroke:rgb(204, 204, 0);"/></g><g aspect="6" id="stpa_4_S38" class="stpa-node stpa" transform="translate(660, 220.49999809265137)" style="fill:rgb(255, 255, 255);stroke:rgb(204, 204, 0);stroke-width:2px;"><g><rect x="0" y="0" width="33.40086555480957" height="24.16666603088379"/></g><text class="label sprotty-label" id="stpa_4_S38_label" transform="translate(5, 5) translate(0, 11.666666030883789)" style="cursor:default;fill:rgb(0, 0, 0);font-family:Arial, sans-serif;stroke-width:0px;">S38</text><g id="stpa_4_S38_outPort" class="pasta-hidden pasta" transform="translate(16.5, -1)" style="opacity:0;"><g><rect x="0" y="0" width="1" height="1"/></g></g></g><g id="stpa_4_S39_UCA22" class="sprotty-edge stpa" style="fill:none;stroke:rgb(0, 0, 0);stroke-width:2px;"><g aspect="6" class="stpa-edge" style="stroke:rgb(204, 204, 0);"><path d="M 733,220.49999809265137 L 733,191.49999809265137"/></g><path aspect="6" d="M 6,-3 L 0,0 L 6,3 Z" transform="rotate(90 733 190.49999809265137) translate(733 190.49999809265137)" class="stpa-edge-arrow" style="fill:rgb(204, 204, 0);stroke:rgb(204, 204, 0);"/></g><g aspect="6" id="stpa_4_S39" class="stpa-node stpa" transform="translate(716, 220.49999809265137)" style="fill:rgb(255, 255, 255);stroke:rgb(204, 204, 0);stroke-width:2px;"><g><rect x="0" y="0" width="33.40086555480957" height="24.16666603088379"/></g><text class="label sprotty-label" id="stpa_4_S39_label" transform="translate(5, 5) translate(0, 11.666666030883789)" style="cursor:default;fill:rgb(0, 0, 0);font-family:Arial, sans-serif;stroke-width:0px;">S39</text><g id="stpa_4_S39_outPort" class="pasta-hidden pasta" transform="translate(16.5, -1)" style="opacity:0;"><g><rect x="0" y="0" width="1" height="1"/></g></g></g></g></g></svg>