<svg xmlns="http://www.w3.org/2000/svg" id="stpa_4_root" class="sprotty-graph" style="flex-basis:0%;flex-grow:1;font-family:&quot;Helvetica Neue&quot;, Helvetica, Arial, sans-serif;font-size:13px;perspective-origin:0px 75px;scrollbar-color:rgba(100, 100, 100, 0.4) rgb(255, 255, 255);transform-origin:0px 75px;-webkit-locale:&quot;en&quot;;" version="1.1" viewBox="12 12 341.72998046875 180.5" width="341.72998046875" height="180.5"><g transform="scale(1) translate(0,0)"><g id="stpa_4_relationships" class="parent" transform="translate(12, 12)"><rect x="0" y="0" width="341.7299699783325" height="180.49999809265137" class="print-node" style="fill-opacity:0;stroke:rgb(0, 0, 0);"> </rect><g aspect="0" id="stpa_4_L1" class="stpa-node stpa" transform="translate(64, 12)" style="fill:rgb(255, 255, 255);stroke:rgb(255, 40, 40);stroke-width:2px;"><g><rect x="0" y="0" width="24.466145515441895" height="24.16666603088379"/></g><text class="label sprotty-label" id="stpa_4_L1_label" transform="translate(5, 5) translate(0, 11.666666030883789)" style="cursor:default;fill:rgb(0, 0, 0);font-family:Arial, sans-serif;stroke-width:0px;">L1</text><g id="stpa_4_H1_L1_newTransition" class="pasta-hidden pasta" transform="translate(11.5, 24.16666603088379)" style="opacity:0;"><g><rect x="0" y="0" width="1" height="1"/></g></g></g><g aspect="0" id="stpa_4_L2" class="stpa-node stpa" transform="translate(109, 12)" style="fill:rgb(255, 255, 255);stroke:rgb(255, 40, 40);stroke-width:2px;"><g><rect x="0" y="0" width="32" height="24.16666603088379"/></g><text class="label sprotty-label" id="stpa_4_L2_label" transform="translate(8.63501501083374, 5) translate(0, 11.666666030883789)" style="cursor:default;fill:rgb(0, 0, 0);font-family:Arial, sans-serif;stroke-width:0px;">L2</text><g id="stpa_4_H1_L2_newTransition" class="pasta-hidden pasta" transform="translate(10, 24.16666603088379)" style="opacity:0;"><g><rect x="0" y="0" width="1" height="1"/></g></g><g id="stpa_4_H2_L2_newTransition" class="pasta-hidden pasta" transform="translate(21, 24.16666603088379)" style="opacity:0;"><g><rect x="0" y="0" width="1" height="1"/></g></g></g><g aspect="0" id="stpa_4_L3" class="stpa-node stpa" transform="translate(167, 12)" style="fill:rgb(255, 255, 255);stroke:rgb(255, 40, 40);stroke-width:2px;"><g><rect x="0" y="0" width="66" height="24.16666603088379"/></g><text class="label sprotty-label" id="stpa_4_L3_label" transform="translate(25.63501501083374, 5) translate(0, 11.666666030883789)" style="cursor:default;fill:rgb(0, 0, 0);font-family:Arial, sans-serif;stroke-width:0px;">L3</text><g id="stpa_4_H3_L3_newTransition" class="pasta-hidden pasta" transform="translate(10, 24.16666603088379)" style="opacity:0;"><g><rect x="0" y="0" width="1" height="1"/></g></g><g id="stpa_4_H4_L3_newTransition" class="pasta-hidden pasta" transform="translate(44, 24.16666603088379)" style="opacity:0;"><g><rect x="0" y="0" width="1" height="1"/></g></g><g id="stpa_4_H5_L3_newTransition" class="pasta-hidden pasta" transform="translate(55, 24.16666603088379)" style="opacity:0;"><g><rect x="0" y="0" width="1" height="1"/></g></g></g><g aspect="0" id="stpa_4_L4" class="stpa-node stpa" transform="translate(305, 12)" style="fill:rgb(255, 255, 255);stroke:rgb(255, 40, 40);stroke-width:2px;"><g><rect x="0" y="0" width="24.72996997833252" height="24.16666603088379"/></g><text class="label sprotty-label" id="stpa_4_L4_label" transform="translate(5, 5) translate(0, 11.666666030883789)" style="cursor:default;fill:rgb(0, 0, 0);font-family:Arial, sans-serif;stroke-width:0px;">L4</text><g id="stpa_4_H4_L4_newTransition" class="pasta-hidden pasta" transform="translate(11.5, 24.16666603088379)" style="opacity:0;"><g><rect x="0" y="0" width="1" height="1"/></g></g></g><g aspect="0" id="stpa_4_L5" class="stpa-node stpa" transform="translate(253, 12)" style="fill:rgb(255, 255, 255);stroke:rgb(255, 40, 40);stroke-width:2px;"><g><rect x="0" y="0" width="32" height="24.16666603088379"/></g><text class="label sprotty-label" id="stpa_4_L5_label" transform="translate(8.63501501083374, 5) translate(0, 11.666666030883789)" style="cursor:default;fill:rgb(0, 0, 0);font-family:Arial, sans-serif;stroke-width:0px;">L5</text><g id="stpa_4_H3_L5_newTransition" class="pasta-hidden pasta" transform="translate(10, 24.16666603088379)" style="opacity:0;"><g><rect x="0" y="0" width="1" height="1"/></g></g><g id="stpa_4_H4_L5_newTransition" class="pasta-hidden pasta" transform="translate(21, 24.16666603088379)" style="opacity:0;"><g><rect x="0" y="0" width="1" height="1"/></g></g></g><g id="stpa_4_H1_L1" class="sprotty-edge stpa" style="fill:none;stroke:rgb(0, 0, 0);stroke-width:2px;"><g aspect="0" class="stpa-edge" style="stroke:rgb(255, 40, 40);"><path d="M 76,68.16666603088379 L 76,39.16666603088379"/></g><path aspect="0" d="M 6,-3 L 0,0 L 6,3 Z" transform="rotate(90.98776039963982 76 38.16666603088379) translate(76 38.16666603088379)" class="stpa-edge-arrow" style="fill:rgb(255, 40, 40);stroke:rgb(255, 40, 40);"/></g><g id="stpa_4_H1_L2" class="sprotty-edge stpa" style="fill:none;stroke:rgb(0, 0, 0);stroke-width:2px;"><g aspect="0" class="stpa-edge" style="stroke:rgb(255, 40, 40);"><path d="M 76,68.16666603088379 L 76,57.16666603088379 L 120,57.16666603088379 L 120,39.16666603088379"/><ellipse transform="translate(76,57.16666603088379)" cx="0" cy="0" rx="1.5" ry="1.5"/></g><path aspect="0" d="M 6,-3 L 0,0 L 6,3 Z" transform="rotate(90 120 38.16666603088379) translate(120 38.16666603088379)" class="stpa-edge-arrow" style="fill:rgb(255, 40, 40);stroke:rgb(255, 40, 40);"/></g><g aspect="0" id="stpa_4_H1" class="stpa-node stpa" transform="translate(27, 68.16666603088379)" style="fill:rgb(255, 255, 255);stroke:rgb(255, 40, 40);stroke-width:2px;"><g><rect x="0" y="0" rx="5" ry="5" width="71" height="24.16666603088379"/></g><text class="label sprotty-label" id="stpa_4_H1_label" transform="translate(27.186198234558105, 5) translate(0, 11.666666030883789)" style="cursor:default;fill:rgb(0, 0, 0);font-family:Arial, sans-serif;stroke-width:0px;">H1</text><g id="stpa_4_H1_outPort" class="pasta-hidden pasta" transform="translate(48, -1)" style="opacity:0;"><g><rect x="0" y="0" width="1" height="1"/></g></g><g id="stpa_4_UCA30_H1_newTransition" class="pasta-hidden pasta" transform="translate(10, 24.16666603088379)" style="opacity:0;"><g><rect x="0" y="0" width="1" height="1"/></g></g><g id="stpa_4_UCA31_H1_newTransition" class="pasta-hidden pasta" transform="translate(38, 24.16666603088379)" style="opacity:0;"><g><rect x="0" y="0" width="1" height="1"/></g></g><g id="stpa_4_UCA32_H1_newTransition" class="pasta-hidden pasta" transform="translate(49, 24.16666603088379)" style="opacity:0;"><g><rect x="0" y="0" width="1" height="1"/></g></g><g id="stpa_4_UCA33_H1_newTransition" class="pasta-hidden pasta" transform="translate(60, 24.16666603088379)" style="opacity:0;"><g><rect x="0" y="0" width="1" height="1"/></g></g></g><g id="stpa_4_H2_L2" class="sprotty-edge stpa" style="fill:none;stroke:rgb(0, 0, 0);stroke-width:2px;"><g aspect="0" class="stpa-edge" style="stroke:rgb(255, 40, 40);"><path d="M 131,68.16666603088379 L 131,39.16666603088379"/></g><path aspect="0" d="M 6,-3 L 0,0 L 6,3 Z" transform="rotate(90 131 38.16666603088379) translate(131 38.16666603088379)" class="stpa-edge-arrow" style="fill:rgb(255, 40, 40);stroke:rgb(255, 40, 40);"/></g><g aspect="0" id="stpa_4_H2" class="stpa-node stpa" transform="translate(118, 68.16666603088379)" style="fill:rgb(255, 255, 255);stroke:rgb(255, 40, 40);stroke-width:2px;"><g><rect x="0" y="0" rx="5" ry="5" width="26.888172149658203" height="24.16666603088379"/></g><text class="label sprotty-label" id="stpa_4_H2_label" transform="translate(5, 5) translate(0, 11.666666030883789)" style="cursor:default;fill:rgb(0, 0, 0);font-family:Arial, sans-serif;stroke-width:0px;">H2</text><g id="stpa_4_H2_outPort" class="pasta-hidden pasta" transform="translate(12.5, -1)" style="opacity:0;"><g><rect x="0" y="0" width="1" height="1"/></g></g></g><g id="stpa_4_H3_L3" class="sprotty-edge stpa" style="fill:none;stroke:rgb(0, 0, 0);stroke-width:2px;"><g aspect="0" class="stpa-edge" style="stroke:rgb(255, 40, 40);"><path d="M 178,68.16666603088379 L 178,39.16666603088379"/></g><path aspect="0" d="M 6,-3 L 0,0 L 6,3 Z" transform="rotate(90 178 38.16666603088379) translate(178 38.16666603088379)" class="stpa-edge-arrow" style="fill:rgb(255, 40, 40);stroke:rgb(255, 40, 40);"/></g><g id="stpa_4_H3_L5" class="sprotty-edge stpa" style="fill:none;stroke:rgb(0, 0, 0);stroke-width:2px;"><g aspect="0" class="stpa-edge" style="stroke:rgb(255, 40, 40);"><path d="M 178,68.16666603088379 L 178,47.16666603088379 L 264,47.16666603088379 L 264,39.16666603088379"/><ellipse transform="translate(178,47.16666603088379)" cx="0" cy="0" rx="1.5" ry="1.5"/></g><path aspect="0" d="M 6,-3 L 0,0 L 6,3 Z" transform="rotate(90 264 38.16666603088379) translate(264 38.16666603088379)" class="stpa-edge-arrow" style="fill:rgb(255, 40, 40);stroke:rgb(255, 40, 40);"/></g><g aspect="0" id="stpa_4_H3" class="stpa-node stpa" transform="translate(165, 68.16666603088379)" style="fill:rgb(255, 255, 255);stroke:rgb(255, 40, 40);stroke-width:2px;"><g><rect x="0" y="0" rx="5" ry="5" width="26.888172149658203" height="24.16666603088379"/></g><text class="label sprotty-label" id="stpa_4_H3_label" transform="translate(5, 5) translate(0, 11.666666030883789)" style="cursor:default;fill:rgb(0, 0, 0);font-family:Arial, sans-serif;stroke-width:0px;">H3</text><g id="stpa_4_H3_outPort" class="pasta-hidden pasta" transform="translate(12.5, -1)" style="opacity:0;"><g><rect x="0" y="0" width="1" height="1"/></g></g></g><g id="stpa_4_H4_L3" class="sprotty-edge stpa" style="fill:none;stroke:rgb(0, 0, 0);stroke-width:2px;"><g aspect="0" class="stpa-edge" style="stroke:rgb(255, 40, 40);"><path d="M 299,68.16666603088379 L 299,57.16666603088379 L 212,57.16666603088379 L 212,39.16666603088379"/><ellipse transform="translate(299,57.16666603088379)" cx="0" cy="0" rx="1.5" ry="1.5"/></g><path aspect="0" d="M 6,-3 L 0,0 L 6,3 Z" transform="rotate(90 212 38.16666603088379) translate(212 38.16666603088379)" class="stpa-edge-arrow" style="fill:rgb(255, 40, 40);stroke:rgb(255, 40, 40);"/></g><g id="stpa_4_H4_L4" class="sprotty-edge stpa" style="fill:none;stroke:rgb(0, 0, 0);stroke-width:2px;"><g aspect="0" class="stpa-edge" style="stroke:rgb(255, 40, 40);"><path d="M 299,68.16666603088379 L 299,57.16666603088379 L 317,57.16666603088379 L 317,39.16666603088379"/></g><path aspect="0" d="M 6,-3 L 0,0 L 6,3 Z" transform="rotate(90 317 38.16666603088379) translate(317 38.16666603088379)" class="stpa-edge-arrow" style="fill:rgb(255, 40, 40);stroke:rgb(255, 40, 40);"/></g><g id="stpa_4_H4_L5" class="sprotty-edge stpa" style="fill:none;stroke:rgb(0, 0, 0);stroke-width:2px;"><g aspect="0" class="stpa-edge" style="stroke:rgb(255, 40, 40);"><path d="M 299,68.16666603088379 L 299,57.16666603088379 L 275,57.16666603088379 L 275,39.16666603088379"/><ellipse transform="translate(275,57.16666603088379)" cx="0" cy="0" rx="1.5" ry="1.5"/></g><path aspect="0" d="M 6,-3 L 0,0 L 6,3 Z" transform="rotate(90 275 38.16666603088379) translate(275 38.16666603088379)" class="stpa-edge-arrow" style="fill:rgb(255, 40, 40);stroke:rgb(255, 40, 40);"/></g><g aspect="0" id="stpa_4_H4" class="stpa-node stpa" transform="translate(286, 68.16666603088379)" style="fill:rgb(255, 255, 255);stroke:rgb(255, 40, 40);stroke-width:2px;"><g><rect x="0" y="0" rx="5" ry="5" width="26.888172149658203" height="24.16666603088379"/></g><text class="label sprotty-label" id="stpa_4_H4_label" transform="translate(5, 5) translate(0, 11.666666030883789)" style="cursor:default;fill:rgb(0, 0, 0);font-family:Arial, sans-serif;stroke-width:0px;">H4</text><g id="stpa_4_H4_outPort" class="pasta-hidden pasta" transform="translate(12.5, -1)" style="opacity:0;"><g><rect x="0" y="0" width="1" height="1"/></g></g></g><g id="stpa_4_H5_L3" class="sprotty-edge stpa" style="fill:none;stroke:rgb(0, 0, 0);stroke-width:2px;"><g aspect="0" class="stpa-edge" style="stroke:rgb(255, 40, 40);"><path d="M 222.5,68.16666603088379 L 222.5,39.16666603088379"/></g><path aspect="0" d="M 6,-3 L 0,0 L 6,3 Z" transform="rotate(90 222.5 38.16666603088379) translate(222.5 38.16666603088379)" class="stpa-edge-arrow" style="fill:rgb(255, 40, 40);stroke:rgb(255, 40, 40);"/></g><g aspect="0" id="stpa_4_H5" class="stpa-node stpa" transform="translate(212, 68.16666603088379)" style="fill:rgb(255, 255, 255);stroke:rgb(255, 40, 40);stroke-width:2px;"><g><rect x="0" y="0" rx="5" ry="5" width="54" height="24.16666603088379"/></g><text class="label sprotty-label" id="stpa_4_H5_label" transform="translate(18.5559139251709, 5) translate(0, 11.666666030883789)" style="cursor:default;fill:rgb(0, 0, 0);font-family:Arial, sans-serif;stroke-width:0px;">H5</text><g id="stpa_4_H5_outPort" class="pasta-hidden pasta" transform="translate(10, -1)" style="opacity:0;"><g><rect x="0" y="0" width="1" height="1"/></g></g><g id="stpa_4_UCA30_H5_newTransition" class="pasta-hidden pasta" transform="translate(10, 24.16666603088379)" style="opacity:0;"><g><rect x="0" y="0" width="1" height="1"/></g></g><g id="stpa_4_UCA31_H5_newTransition" class="pasta-hidden pasta" transform="translate(21, 24.16666603088379)" style="opacity:0;"><g><rect x="0" y="0" width="1" height="1"/></g></g><g id="stpa_4_UCA32_H5_newTransition" class="pasta-hidden pasta" transform="translate(32, 24.16666603088379)" style="opacity:0;"><g><rect x="0" y="0" width="1" height="1"/></g></g><g id="stpa_4_UCA33_H5_newTransition" class="pasta-hidden pasta" transform="translate(43, 24.16666603088379)" style="opacity:0;"><g><rect x="0" y="0" width="1" height="1"/></g></g></g><g id="stpa_4_UCA30_H1" class="sprotty-edge stpa" style="fill:none;stroke:rgb(0, 0, 0);stroke-width:2px;"><g aspect="4" class="stpa-edge" style="stroke:rgb(102, 179, 255);"><path d="M 38,144.33333206176758 L 38,95.33333206176758"/></g><path aspect="4" d="M 6,-3 L 0,0 L 6,3 Z" transform="rotate(90 38 94.33333206176758) translate(38 94.33333206176758)" class="stpa-edge-arrow" style="fill:rgb(102, 179, 255);stroke:rgb(102, 179, 255);"/></g><g id="stpa_4_UCA30_H5" class="sprotty-edge stpa" style="fill:none;stroke:rgb(0, 0, 0);stroke-width:2px;"><g aspect="4" class="stpa-edge" style="stroke:rgb(102, 179, 255);"><path d="M 38,144.33333206176758 L 38,103.33333206176758 L 223,103.33333206176758 L 223,95.33333206176758"/><ellipse transform="translate(38,103.33333206176758)" cx="0" cy="0" rx="1.5" ry="1.5"/></g><path aspect="4" d="M 6,-3 L 0,0 L 6,3 Z" transform="rotate(90 223 94.33333206176758) translate(223 94.33333206176758)" class="stpa-edge-arrow" style="fill:rgb(102, 179, 255);stroke:rgb(102, 179, 255);"/></g><g aspect="4" id="stpa_4_UCA30" class="stpa-node stpa" transform="translate(12, 144.33333206176758)" style="fill:rgb(255, 255, 255);stroke:rgb(102, 179, 255);stroke-width:2px;"><g><rect x="0" y="0" width="52.17721176147461" height="24.16666603088379"/></g><text class="label sprotty-label" id="stpa_4_UCA30_label" transform="translate(5, 5) translate(0, 11.666666030883789)" style="cursor:default;fill:rgb(0, 0, 0);font-family:Arial, sans-serif;stroke-width:0px;">UCA30</text><g id="stpa_4_UCA30_outPort" class="pasta-hidden pasta" transform="translate(25.5, -1)" style="opacity:0;"><g><rect x="0" y="0" width="1" height="1"/></g></g></g><g id="stpa_4_UCA31_H1" class="sprotty-edge stpa" style="fill:none;stroke:rgb(0, 0, 0);stroke-width:2px;"><g aspect="4" class="stpa-edge" style="stroke:rgb(102, 179, 255);"><path d="M 111,144.33333206176758 L 111,133.33333206176758 L 66,133.33333206176758 L 66,95.33333206176758"/><ellipse transform="translate(111,133.33333206176758)" cx="0" cy="0" rx="1.5" ry="1.5"/></g><path aspect="4" d="M 6,-3 L 0,0 L 6,3 Z" transform="rotate(90 66 94.33333206176758) translate(66 94.33333206176758)" class="stpa-edge-arrow" style="fill:rgb(102, 179, 255);stroke:rgb(102, 179, 255);"/></g><g id="stpa_4_UCA31_H5" class="sprotty-edge stpa" style="fill:none;stroke:rgb(0, 0, 0);stroke-width:2px;"><g aspect="4" class="stpa-edge" style="stroke:rgb(102, 179, 255);"><path d="M 111,144.33333206176758 L 111,133.33333206176758 L 234,133.33333206176758 L 234,95.33333206176758"/></g><path aspect="4" d="M 6,-3 L 0,0 L 6,3 Z" transform="rotate(90 234 94.33333206176758) translate(234 94.33333206176758)" class="stpa-edge-arrow" style="fill:rgb(102, 179, 255);stroke:rgb(102, 179, 255);"/></g><g aspect="4" id="stpa_4_UCA31" class="stpa-node stpa" transform="translate(85, 144.33333206176758)" style="fill:rgb(255, 255, 255);stroke:rgb(102, 179, 255);stroke-width:2px;"><g><rect x="0" y="0" width="51.9140625" height="24.16666603088379"/></g><text class="label sprotty-label" id="stpa_4_UCA31_label" transform="translate(5, 5) translate(0, 11.666666030883789)" style="cursor:default;fill:rgb(0, 0, 0);font-family:Arial, sans-serif;stroke-width:0px;">UCA31</text><g id="stpa_4_UCA31_outPort" class="pasta-hidden pasta" transform="translate(25.5, -1)" style="opacity:0;"><g><rect x="0" y="0" width="1" height="1"/></g></g></g><g id="stpa_4_UCA32_H1" class="sprotty-edge stpa" style="fill:none;stroke:rgb(0, 0, 0);stroke-width:2px;"><g aspect="4" class="stpa-edge" style="stroke:rgb(102, 179, 255);"><path d="M 183,144.33333206176758 L 183,123.33333206176758 L 77,123.33333206176758 L 77,95.33333206176758"/><ellipse transform="translate(183,123.33333206176758)" cx="0" cy="0" rx="1.5" ry="1.5"/></g><path aspect="4" d="M 6,-3 L 0,0 L 6,3 Z" transform="rotate(90 77 94.33333206176758) translate(77 94.33333206176758)" class="stpa-edge-arrow" style="fill:rgb(102, 179, 255);stroke:rgb(102, 179, 255);"/></g><g id="stpa_4_UCA32_H5" class="sprotty-edge stpa" style="fill:none;stroke:rgb(0, 0, 0);stroke-width:2px;"><g aspect="4" class="stpa-edge" style="stroke:rgb(102, 179, 255);"><path d="M 183,144.33333206176758 L 183,123.33333206176758 L 245,123.33333206176758 L 245,95.33333206176758"/></g><path aspect="4" d="M 6,-3 L 0,0 L 6,3 Z" transform="rotate(90 245 94.33333206176758) translate(245 94.33333206176758)" class="stpa-edge-arrow" style="fill:rgb(102, 179, 255);stroke:rgb(102, 179, 255);"/></g><g aspect="4" id="stpa_4_UCA32" class="stpa-node stpa" transform="translate(157, 144.33333206176758)" style="fill:rgb(255, 255, 255);stroke:rgb(102, 179, 255);stroke-width:2px;"><g><rect x="0" y="0" width="52.17721176147461" height="24.16666603088379"/></g><text class="label sprotty-label" id="stpa_4_UCA32_label" transform="translate(5, 5) translate(0, 11.666666030883789)" style="cursor:default;fill:rgb(0, 0, 0);font-family:Arial, sans-serif;stroke-width:0px;">UCA32</text><g id="stpa_4_UCA32_outPort" class="pasta-hidden pasta" transform="translate(25.5, -1)" style="opacity:0;"><g><rect x="0" y="0" width="1" height="1"/></g></g></g><g id="stpa_4_UCA33_H1" class="sprotty-edge stpa" style="fill:none;stroke:rgb(0, 0, 0);stroke-width:2px;"><g aspect="4" class="stpa-edge" style="stroke:rgb(102, 179, 255);"><path d="M 256,144.33333206176758 L 256,113.33333206176758 L 88,113.33333206176758 L 88,95.33333206176758"/><ellipse transform="translate(256,113.33333206176758)" cx="0" cy="0" rx="1.5" ry="1.5"/></g><path aspect="4" d="M 6,-3 L 0,0 L 6,3 Z" transform="rotate(90 88 94.33333206176758) translate(88 94.33333206176758)" class="stpa-edge-arrow" style="fill:rgb(102, 179, 255);stroke:rgb(102, 179, 255);"/></g><g id="stpa_4_UCA33_H5" class="sprotty-edge stpa" style="fill:none;stroke:rgb(0, 0, 0);stroke-width:2px;"><g aspect="4" class="stpa-edge" style="stroke:rgb(102, 179, 255);"><path d="M 256,144.33333206176758 L 256,95.33333206176758"/></g><path aspect="4" d="M 6,-3 L 0,0 L 6,3 Z" transform="rotate(90 256 94.33333206176758) translate(256 94.33333206176758)" class="stpa-edge-arrow" style="fill:rgb(102, 179, 255);stroke:rgb(102, 179, 255);"/></g><g aspect="4" id="stpa_4_UCA33" class="stpa-node stpa" transform="translate(230, 144.33333206176758)" style="fill:rgb(255, 255, 255);stroke:rgb(102, 179, 255);stroke-width:2px;"><g><rect x="0" y="0" width="52.17721176147461" height="24.16666603088379"/></g><text class="label sprotty-label" id="stpa_4_UCA33_label" transform="translate(5, 5) translate(0, 11.666666030883789)" style="cursor:default;fill:rgb(0, 0, 0);font-family:Arial, sans-serif;stroke-width:0px;">UCA33</text><g id="stpa_4_UCA33_outPort" class="pasta-hidden pasta" transform="translate(25.5, -1)" style="opacity:0;"><g><rect x="0" y="0" width="1" height="1"/></g></g></g></g></g></svg>