<svg xmlns="http://www.w3.org/2000/svg" id="stpa_4_root" class="sprotty-graph" style="flex-basis:0%;flex-grow:1;font-family:&quot;Helvetica Neue&quot;, Helvetica, Arial, sans-serif;font-size:13px;perspective-origin:0px 75px;scrollbar-color:rgba(100, 100, 100, 0.4) rgb(255, 255, 255);transform-origin:0px 75px;-webkit-locale:&quot;en&quot;;" version="1.1" viewBox="12 12 330.1772155761719 160.5" width="330.1772155761719" height="160.5"><g transform="scale(1) translate(0,0)"><g id="stpa_4_relationships" class="parent" transform="translate(12, 12)"><rect x="0" y="0" width="330.1772117614746" height="160.49999809265137" class="print-node" style="fill-opacity:0;stroke:rgb(0, 0, 0);"> </rect><g aspect="0" id="stpa_4_L1" class="stpa-node stpa" transform="translate(13, 12)" style="fill:rgb(255, 255, 255);stroke:rgb(255, 40, 40);stroke-width:2px;"><g><rect x="0" y="0" width="24.466145515441895" height="24.16666603088379"/></g><text class="label sprotty-label" id="stpa_4_L1_label" transform="translate(5, 5) translate(0, 11.666666030883789)" style="cursor:default;fill:rgb(0, 0, 0);font-family:Arial, sans-serif;stroke-width:0px;">L1</text><g id="stpa_4_H1_L1_newTransition" class="pasta-hidden pasta" transform="translate(11.5, 24.16666603088379)" style="opacity:0;"><g><rect x="0" y="0" width="1" height="1"/></g></g></g><g aspect="0" id="stpa_4_L2" class="stpa-node stpa" transform="translate(58, 12)" style="fill:rgb(255, 255, 255);stroke:rgb(255, 40, 40);stroke-width:2px;"><g><rect x="0" y="0" width="32" height="24.16666603088379"/></g><text class="label sprotty-label" id="stpa_4_L2_label" transform="translate(8.63501501083374, 5) translate(0, 11.666666030883789)" style="cursor:default;fill:rgb(0, 0, 0);font-family:Arial, sans-serif;stroke-width:0px;">L2</text><g id="stpa_4_H1_L2_newTransition" class="pasta-hidden pasta" transform="translate(10, 24.16666603088379)" style="opacity:0;"><g><rect x="0" y="0" width="1" height="1"/></g></g><g id="stpa_4_H2_L2_newTransition" class="pasta-hidden pasta" transform="translate(21, 24.16666603088379)" style="opacity:0;"><g><rect x="0" y="0" width="1" height="1"/></g></g></g><g aspect="0" id="stpa_4_L3" class="stpa-node stpa" transform="translate(120, 12)" style="fill:rgb(255, 255, 255);stroke:rgb(255, 40, 40);stroke-width:2px;"><g><rect x="0" y="0" width="57" height="24.16666603088379"/></g><text class="label sprotty-label" id="stpa_4_L3_label" transform="translate(21.13501501083374, 5) translate(0, 11.666666030883789)" style="cursor:default;fill:rgb(0, 0, 0);font-family:Arial, sans-serif;stroke-width:0px;">L3</text><g id="stpa_4_H3_L3_newTransition" class="pasta-hidden pasta" transform="translate(10, 24.16666603088379)" style="opacity:0;"><g><rect x="0" y="0" width="1" height="1"/></g></g><g id="stpa_4_H4_L3_newTransition" class="pasta-hidden pasta" transform="translate(35, 24.16666603088379)" style="opacity:0;"><g><rect x="0" y="0" width="1" height="1"/></g></g><g id="stpa_4_H5_L3_newTransition" class="pasta-hidden pasta" transform="translate(46, 24.16666603088379)" style="opacity:0;"><g><rect x="0" y="0" width="1" height="1"/></g></g></g><g aspect="0" id="stpa_4_L4" class="stpa-node stpa" transform="translate(249, 12)" style="fill:rgb(255, 255, 255);stroke:rgb(255, 40, 40);stroke-width:2px;"><g><rect x="0" y="0" width="24.72996997833252" height="24.16666603088379"/></g><text class="label sprotty-label" id="stpa_4_L4_label" transform="translate(5, 5) translate(0, 11.666666030883789)" style="cursor:default;fill:rgb(0, 0, 0);font-family:Arial, sans-serif;stroke-width:0px;">L4</text><g id="stpa_4_H4_L4_newTransition" class="pasta-hidden pasta" transform="translate(11.5, 24.16666603088379)" style="opacity:0;"><g><rect x="0" y="0" width="1" height="1"/></g></g></g><g aspect="0" id="stpa_4_L5" class="stpa-node stpa" transform="translate(197, 12)" style="fill:rgb(255, 255, 255);stroke:rgb(255, 40, 40);stroke-width:2px;"><g><rect x="0" y="0" width="32" height="24.16666603088379"/></g><text class="label sprotty-label" id="stpa_4_L5_label" transform="translate(8.63501501083374, 5) translate(0, 11.666666030883789)" style="cursor:default;fill:rgb(0, 0, 0);font-family:Arial, sans-serif;stroke-width:0px;">L5</text><g id="stpa_4_H3_L5_newTransition" class="pasta-hidden pasta" transform="translate(10, 24.16666603088379)" style="opacity:0;"><g><rect x="0" y="0" width="1" height="1"/></g></g><g id="stpa_4_H4_L5_newTransition" class="pasta-hidden pasta" transform="translate(21, 24.16666603088379)" style="opacity:0;"><g><rect x="0" y="0" width="1" height="1"/></g></g></g><g id="stpa_4_H1_L1" class="sprotty-edge stpa" style="fill:none;stroke:rgb(0, 0, 0);stroke-width:2px;"><g aspect="0" class="stpa-edge" style="stroke:rgb(255, 40, 40);"><path d="M 25,78.16666603088379 L 25,39.16666603088379"/></g><path aspect="0" d="M 6,-3 L 0,0 L 6,3 Z" transform="rotate(90 25 38.16666603088379) translate(25 38.16666603088379)" class="stpa-edge-arrow" style="fill:rgb(255, 40, 40);stroke:rgb(255, 40, 40);"/></g><g id="stpa_4_H1_L2" class="sprotty-edge stpa" style="fill:none;stroke:rgb(0, 0, 0);stroke-width:2px;"><g aspect="0" class="stpa-edge" style="stroke:rgb(255, 40, 40);"><path d="M 25,78.16666603088379 L 25,67.16666603088379 L 69,67.16666603088379 L 69,39.16666603088379"/><ellipse transform="translate(25,67.16666603088379)" cx="0" cy="0" rx="1.5" ry="1.5"/></g><path aspect="0" d="M 6,-3 L 0,0 L 6,3 Z" transform="rotate(90 69 38.16666603088379) translate(69 38.16666603088379)" class="stpa-edge-arrow" style="fill:rgb(255, 40, 40);stroke:rgb(255, 40, 40);"/></g><g aspect="0" id="stpa_4_H1" class="stpa-node stpa" transform="translate(12, 78.16666603088379)" style="fill:rgb(255, 255, 255);stroke:rgb(255, 40, 40);stroke-width:2px;"><g><rect x="0" y="0" rx="5" ry="5" width="26.62760353088379" height="24.16666603088379"/></g><text class="label sprotty-label" id="stpa_4_H1_label" transform="translate(5, 5) translate(0, 11.666666030883789)" style="cursor:default;fill:rgb(0, 0, 0);font-family:Arial, sans-serif;stroke-width:0px;">H1</text><g id="stpa_4_H1_outPort" class="pasta-hidden pasta" transform="translate(12.5, -1)" style="opacity:0;"><g><rect x="0" y="0" width="1" height="1"/></g></g></g><g id="stpa_4_H2_L2" class="sprotty-edge stpa" style="fill:none;stroke:rgb(0, 0, 0);stroke-width:2px;"><g aspect="0" class="stpa-edge" style="stroke:rgb(255, 40, 40);"><path d="M 80,78.16666603088379 L 80,39.16666603088379"/></g><path aspect="0" d="M 6,-3 L 0,0 L 6,3 Z" transform="rotate(90 80 38.16666603088379) translate(80 38.16666603088379)" class="stpa-edge-arrow" style="fill:rgb(255, 40, 40);stroke:rgb(255, 40, 40);"/></g><g aspect="0" id="stpa_4_H2" class="stpa-node stpa" transform="translate(67, 78.16666603088379)" style="fill:rgb(255, 255, 255);stroke:rgb(255, 40, 40);stroke-width:2px;"><g><rect x="0" y="0" rx="5" ry="5" width="26.888172149658203" height="24.16666603088379"/></g><text class="label sprotty-label" id="stpa_4_H2_label" transform="translate(5, 5) translate(0, 11.666666030883789)" style="cursor:default;fill:rgb(0, 0, 0);font-family:Arial, sans-serif;stroke-width:0px;">H2</text><g id="stpa_4_H2_outPort" class="pasta-hidden pasta" transform="translate(12.5, -1)" style="opacity:0;"><g><rect x="0" y="0" width="1" height="1"/></g></g></g><g id="stpa_4_H3_L3" class="sprotty-edge stpa" style="fill:none;stroke:rgb(0, 0, 0);stroke-width:2px;"><g aspect="0" class="stpa-edge" style="stroke:rgb(255, 40, 40);"><path d="M 130.5,78.16666603088379 L 130.5,39.16666603088379"/></g><path aspect="0" d="M 6,-3 L 0,0 L 6,3 Z" transform="rotate(90 130.5 38.16666603088379) translate(130.5 38.16666603088379)" class="stpa-edge-arrow" style="fill:rgb(255, 40, 40);stroke:rgb(255, 40, 40);"/></g><g id="stpa_4_H3_L5" class="sprotty-edge stpa" style="fill:none;stroke:rgb(0, 0, 0);stroke-width:2px;"><g aspect="0" class="stpa-edge" style="stroke:rgb(255, 40, 40);"><path d="M 131,78.16666603088379 L 131,47.16666603088379 L 208,47.16666603088379 L 208,39.16666603088379"/><ellipse transform="translate(131,47.16666603088379)" cx="0" cy="0" rx="1.5" ry="1.5"/></g><path aspect="0" d="M 6,-3 L 0,0 L 6,3 Z" transform="rotate(90 208 38.16666603088379) translate(208 38.16666603088379)" class="stpa-edge-arrow" style="fill:rgb(255, 40, 40);stroke:rgb(255, 40, 40);"/></g><g aspect="0" id="stpa_4_H3" class="stpa-node stpa" transform="translate(114, 78.16666603088379)" style="fill:rgb(255, 255, 255);stroke:rgb(255, 40, 40);stroke-width:2px;"><g><rect x="0" y="0" rx="5" ry="5" width="27" height="24.16666603088379"/></g><text class="label sprotty-label" id="stpa_4_H3_label" transform="translate(5.055913925170898, 5) translate(0, 11.666666030883789)" style="cursor:default;fill:rgb(0, 0, 0);font-family:Arial, sans-serif;stroke-width:0px;">H3</text><g id="stpa_4_H3_outPort" class="pasta-hidden pasta" transform="translate(16, -1)" style="opacity:0;"><g><rect x="0" y="0" width="1" height="1"/></g></g><g id="stpa_4_UCA85_H3_newTransition" class="pasta-hidden pasta" transform="translate(16, 24.16666603088379)" style="opacity:0;"><g><rect x="0" y="0" width="1" height="1"/></g></g></g><g id="stpa_4_H4_L3" class="sprotty-edge stpa" style="fill:none;stroke:rgb(0, 0, 0);stroke-width:2px;"><g aspect="0" class="stpa-edge" style="stroke:rgb(255, 40, 40);"><path d="M 219,78.16666603088379 L 219,67.16666603088379 L 156,67.16666603088379 L 156,39.16666603088379"/><ellipse transform="translate(219,67.16666603088379)" cx="0" cy="0" rx="1.5" ry="1.5"/></g><path aspect="0" d="M 6,-3 L 0,0 L 6,3 Z" transform="rotate(90 156 38.16666603088379) translate(156 38.16666603088379)" class="stpa-edge-arrow" style="fill:rgb(255, 40, 40);stroke:rgb(255, 40, 40);"/></g><g id="stpa_4_H4_L4" class="sprotty-edge stpa" style="fill:none;stroke:rgb(0, 0, 0);stroke-width:2px;"><g aspect="0" class="stpa-edge" style="stroke:rgb(255, 40, 40);"><path d="M 219,78.16666603088379 L 219,67.16666603088379 L 261,67.16666603088379 L 261,39.16666603088379"/></g><path aspect="0" d="M 6,-3 L 0,0 L 6,3 Z" transform="rotate(90 261 38.16666603088379) translate(261 38.16666603088379)" class="stpa-edge-arrow" style="fill:rgb(255, 40, 40);stroke:rgb(255, 40, 40);"/></g><g id="stpa_4_H4_L5" class="sprotty-edge stpa" style="fill:none;stroke:rgb(0, 0, 0);stroke-width:2px;"><g aspect="0" class="stpa-edge" style="stroke:rgb(255, 40, 40);"><path d="M 218.5,78.16666603088379 L 218.5,39.16666603088379"/></g><path aspect="0" d="M 6,-3 L 0,0 L 6,3 Z" transform="rotate(90 218.5 38.16666603088379) translate(218.5 38.16666603088379)" class="stpa-edge-arrow" style="fill:rgb(255, 40, 40);stroke:rgb(255, 40, 40);"/></g><g aspect="0" id="stpa_4_H4" class="stpa-node stpa" transform="translate(208, 78.16666603088379)" style="fill:rgb(255, 255, 255);stroke:rgb(255, 40, 40);stroke-width:2px;"><g><rect x="0" y="0" rx="5" ry="5" width="94" height="24.16666603088379"/></g><text class="label sprotty-label" id="stpa_4_H4_label" transform="translate(38.5559139251709, 5) translate(0, 11.666666030883789)" style="cursor:default;fill:rgb(0, 0, 0);font-family:Arial, sans-serif;stroke-width:0px;">H4</text><g id="stpa_4_H4_outPort" class="pasta-hidden pasta" transform="translate(10, -1)" style="opacity:0;"><g><rect x="0" y="0" width="1" height="1"/></g></g><g id="stpa_4_UCA86_H4_newTransition" class="pasta-hidden pasta" transform="translate(10, 24.16666603088379)" style="opacity:0;"><g><rect x="0" y="0" width="1" height="1"/></g></g><g id="stpa_4_UCA87_H4_newTransition" class="pasta-hidden pasta" transform="translate(83, 24.16666603088379)" style="opacity:0;"><g><rect x="0" y="0" width="1" height="1"/></g></g></g><g id="stpa_4_H5_L3" class="sprotty-edge stpa" style="fill:none;stroke:rgb(0, 0, 0);stroke-width:2px;"><g aspect="0" class="stpa-edge" style="stroke:rgb(255, 40, 40);"><path d="M 172,78.16666603088379 L 172,57.16666603088379 L 167,57.16666603088379 L 167,39.16666603088379"/></g><path aspect="0" d="M 6,-3 L 0,0 L 6,3 Z" transform="rotate(90 167 38.16666603088379) translate(167 38.16666603088379)" class="stpa-edge-arrow" style="fill:rgb(255, 40, 40);stroke:rgb(255, 40, 40);"/></g><g aspect="0" id="stpa_4_H5" class="stpa-node stpa" transform="translate(161, 78.16666603088379)" style="fill:rgb(255, 255, 255);stroke:rgb(255, 40, 40);stroke-width:2px;"><g><rect x="0" y="0" rx="5" ry="5" width="27" height="24.16666603088379"/></g><text class="label sprotty-label" id="stpa_4_H5_label" transform="translate(5.055913925170898, 5) translate(0, 11.666666030883789)" style="cursor:default;fill:rgb(0, 0, 0);font-family:Arial, sans-serif;stroke-width:0px;">H5</text><g id="stpa_4_H5_outPort" class="pasta-hidden pasta" transform="translate(10, -1)" style="opacity:0;"><g><rect x="0" y="0" width="1" height="1"/></g></g><g id="stpa_4_UCA85_H5_newTransition" class="pasta-hidden pasta" transform="translate(10, 24.16666603088379)" style="opacity:0;"><g><rect x="0" y="0" width="1" height="1"/></g></g></g><g id="stpa_4_UCA85_H3" class="sprotty-edge stpa" style="fill:none;stroke:rgb(0, 0, 0);stroke-width:2px;"><g aspect="4" class="stpa-edge" style="stroke:rgb(102, 179, 255);"><path d="M 146,124.33333206176758 L 146,113.33333206176758 L 131,113.33333206176758 L 131,105.33333206176758"/><ellipse transform="translate(146,113.33333206176758)" cx="0" cy="0" rx="1.5" ry="1.5"/></g><path aspect="4" d="M 6,-3 L 0,0 L 6,3 Z" transform="rotate(90 131 104.33333206176758) translate(131 104.33333206176758)" class="stpa-edge-arrow" style="fill:rgb(102, 179, 255);stroke:rgb(102, 179, 255);"/></g><g id="stpa_4_UCA85_H5" class="sprotty-edge stpa" style="fill:none;stroke:rgb(0, 0, 0);stroke-width:2px;"><g aspect="4" class="stpa-edge" style="stroke:rgb(102, 179, 255);"><path d="M 146,124.33333206176758 L 146,113.33333206176758 L 172,113.33333206176758 L 172,105.33333206176758"/></g><path aspect="4" d="M 6,-3 L 0,0 L 6,3 Z" transform="rotate(90 172 104.33333206176758) translate(172 104.33333206176758)" class="stpa-edge-arrow" style="fill:rgb(102, 179, 255);stroke:rgb(102, 179, 255);"/></g><g aspect="4" id="stpa_4_UCA85" class="stpa-node stpa" transform="translate(120, 124.33333206176758)" style="fill:rgb(255, 255, 255);stroke:rgb(102, 179, 255);stroke-width:2px;"><g><rect x="0" y="0" width="52.17721176147461" height="24.16666603088379"/></g><text class="label sprotty-label" id="stpa_4_UCA85_label" transform="translate(5, 5) translate(0, 11.666666030883789)" style="cursor:default;fill:rgb(0, 0, 0);font-family:Arial, sans-serif;stroke-width:0px;">UCA85</text><g id="stpa_4_UCA85_outPort" class="pasta-hidden pasta" transform="translate(25.5, -1)" style="opacity:0;"><g><rect x="0" y="0" width="1" height="1"/></g></g></g><g id="stpa_4_UCA86_H4" class="sprotty-edge stpa" style="fill:none;stroke:rgb(0, 0, 0);stroke-width:2px;"><g aspect="4" class="stpa-edge" style="stroke:rgb(102, 179, 255);"><path d="M 219,124.33333206176758 L 219,105.33333206176758"/></g><path aspect="4" d="M 6,-3 L 0,0 L 6,3 Z" transform="rotate(90 219 104.33333206176758) translate(219 104.33333206176758)" class="stpa-edge-arrow" style="fill:rgb(102, 179, 255);stroke:rgb(102, 179, 255);"/></g><g aspect="4" id="stpa_4_UCA86" class="stpa-node stpa" transform="translate(193, 124.33333206176758)" style="fill:rgb(255, 255, 255);stroke:rgb(102, 179, 255);stroke-width:2px;"><g><rect x="0" y="0" width="52.17721176147461" height="24.16666603088379"/></g><text class="label sprotty-label" id="stpa_4_UCA86_label" transform="translate(5, 5) translate(0, 11.666666030883789)" style="cursor:default;fill:rgb(0, 0, 0);font-family:Arial, sans-serif;stroke-width:0px;">UCA86</text><g id="stpa_4_UCA86_outPort" class="pasta-hidden pasta" transform="translate(25.5, -1)" style="opacity:0;"><g><rect x="0" y="0" width="1" height="1"/></g></g></g><g id="stpa_4_UCA87_H4" class="sprotty-edge stpa" style="fill:none;stroke:rgb(0, 0, 0);stroke-width:2px;"><g aspect="4" class="stpa-edge" style="stroke:rgb(102, 179, 255);"><path d="M 292,124.33333206176758 L 292,105.33333206176758"/></g><path aspect="4" d="M 6,-3 L 0,0 L 6,3 Z" transform="rotate(90 292 104.33333206176758) translate(292 104.33333206176758)" class="stpa-edge-arrow" style="fill:rgb(102, 179, 255);stroke:rgb(102, 179, 255);"/></g><g aspect="4" id="stpa_4_UCA87" class="stpa-node stpa" transform="translate(266, 124.33333206176758)" style="fill:rgb(255, 255, 255);stroke:rgb(102, 179, 255);stroke-width:2px;"><g><rect x="0" y="0" width="52.17721176147461" height="24.16666603088379"/></g><text class="label sprotty-label" id="stpa_4_UCA87_label" transform="translate(5, 5) translate(0, 11.666666030883789)" style="cursor:default;fill:rgb(0, 0, 0);font-family:Arial, sans-serif;stroke-width:0px;">UCA87</text><g id="stpa_4_UCA87_outPort" class="pasta-hidden pasta" transform="translate(25.5, -1)" style="opacity:0;"><g><rect x="0" y="0" width="1" height="1"/></g></g></g></g></g></svg>