<svg xmlns="http://www.w3.org/2000/svg" id="stpa_0_root" class="sprotty-graph" style="border-block-end-color:rgb(59, 59, 59);border-block-start-color:rgb(59, 59, 59);border-bottom-color:rgb(59, 59, 59);border-inline-end-color:rgb(59, 59, 59);border-inline-start-color:rgb(59, 59, 59);border-left-color:rgb(59, 59, 59);border-right-color:rgb(59, 59, 59);border-top-color:rgb(59, 59, 59);caret-color:rgb(59, 59, 59);color:rgb(59, 59, 59);column-rule-color:rgb(59, 59, 59);flex-basis:0%;flex-grow:1;font-family:&quot;Helvetica Neue&quot;, Helvetica, Arial, sans-serif;font-size:13px;inline-size:0px;outline-color:rgb(59, 59, 59);perspective-origin:0px 75px;scrollbar-color:rgba(100, 100, 100, 0.4) rgb(255, 255, 255);text-decoration:none solid rgb(59, 59, 59);text-decoration-color:rgb(59, 59, 59);text-emphasis-color:rgb(59, 59, 59);transform-origin:0px 75px;-webkit-locale:&quot;en&quot;;-webkit-text-fill-color:rgb(59, 59, 59);-webkit-text-stroke-color:rgb(59, 59, 59);" version="1.1" viewBox="12 12 915 260.7777786254883"><g transform="scale(1) translate(0,0)"><g id="stpa_0_relationships" class="parent" transform="translate(12, 12)"><rect x="0" y="0" width="915" height="260.7777786254883" class="print-node" style="fill:rgb(255, 255, 255);stroke:rgb(0, 0, 0);"> </rect><g aspect="0" id="stpa_0_L1" class="stpa-node stpa" transform="translate(12, 12)" style="fill:rgb(255, 255, 255);stroke:rgb(255, 40, 40);stroke-width:2px;"><g><rect x="0" y="0" width="150" height="24.44444465637207"/></g><text class="label sprotty-label" id="stpa_0_L1_label" transform="translate(67.76909685134888, 5) translate(0, 11.666666984558105)" style="cursor:default;fill:rgb(0, 0, 0);font-family:Arial, sans-serif;stroke-width:0px;">L1</text><g id="stpa_0_H1_L1_newTransition1" class="pasta" transform="translate(10, 24.44444465637207)"/><g id="stpa_0_H2_L1_newTransition1" class="pasta" transform="translate(60, 24.44444465637207)"/><g id="stpa_0_H3_L1_newTransition1" class="pasta" transform="translate(100, 24.44444465637207)"/><g id="stpa_0_H4_L1_newTransition1" class="pasta" transform="translate(110, 24.44444465637207)"/><g id="stpa_0_H5_L1_newTransition1" class="pasta" transform="translate(120, 24.44444465637207)"/><g id="stpa_0_H6_L1_newTransition1" class="pasta" transform="translate(130, 24.44444465637207)"/><g id="stpa_0_H7_L1_newTransition1" class="pasta" transform="translate(140, 24.44444465637207)"/></g><g aspect="0" id="stpa_0_L2" class="stpa-node stpa" transform="translate(182, 12)" style="fill:rgb(255, 255, 255);stroke:rgb(255, 40, 40);stroke-width:2px;"><g><rect x="0" y="0" width="160" height="24.44444465637207"/></g><text class="label sprotty-label" id="stpa_0_L2_label" transform="translate(72.76909685134888, 5) translate(0, 11.666666984558105)" style="cursor:default;fill:rgb(0, 0, 0);font-family:Arial, sans-serif;stroke-width:0px;">L2</text><g id="stpa_0_H1_L2_newTransition1" class="pasta" transform="translate(10, 24.44444465637207)"/><g id="stpa_0_H2_L2_newTransition1" class="pasta" transform="translate(20, 24.44444465637207)"/><g id="stpa_0_H3_L2_newTransition1" class="pasta" transform="translate(30, 24.44444465637207)"/><g id="stpa_0_H4_L2_newTransition1" class="pasta" transform="translate(40, 24.44444465637207)"/><g id="stpa_0_H5_L2_newTransition1" class="pasta" transform="translate(50, 24.44444465637207)"/><g id="stpa_0_H6_L2_newTransition1" class="pasta" transform="translate(100, 24.44444465637207)"/><g id="stpa_0_H7_L2_newTransition1" class="pasta" transform="translate(150, 24.44444465637207)"/></g><g id="stpa_0_H1_L1" class="sprotty-edge stpa" style="fill:none;stroke:rgb(0, 0, 0);stroke-width:2px;"><path aspect="0" d="M 22,158.1666669845581 L 22,36.44444465637207" class="stpa-edge" style="stroke:rgb(255, 40, 40);"/><path aspect="0" d="M 6,-3 L 0,0 L 6,3 Z" transform="rotate(90 22 36.44444465637207) translate(22 36.44444465637207)" class="stpa-edge-arrow" style="fill:rgb(255, 40, 40);stroke:rgb(255, 40, 40);"/></g><g id="stpa_0_H1_L2" class="sprotty-edge stpa" style="fill:none;stroke:rgb(0, 0, 0);stroke-width:2px;"><path aspect="0" d="M 32,158.1666669845581 L 32,46.44444465637207 L 192,46.44444465637207 L 192,36.44444465637207" class="stpa-edge" style="stroke:rgb(255, 40, 40);"/><path aspect="0" d="M 6,-3 L 0,0 L 6,3 Z" transform="rotate(90 192 36.44444465637207) translate(192 36.44444465637207)" class="stpa-edge-arrow" style="fill:rgb(255, 40, 40);stroke:rgb(255, 40, 40);"/></g><g aspect="0" id="stpa_0_H1" class="stpa-node stpa" transform="translate(12, 158.1666669845581)" style="fill:rgb(255, 255, 255);stroke:rgb(255, 40, 40);stroke-width:2px;"><g><rect x="0" y="0" rx="5" ry="5" width="30" height="24.44444465637207"/></g><text class="label sprotty-label" id="stpa_0_H1_label" transform="translate(6.68836784362793, 5) translate(0, 11.666666984558105)" style="cursor:default;fill:rgb(0, 0, 0);font-family:Arial, sans-serif;stroke-width:0px;">H1</text><g id="stpa_0_H1_L1_newTransition" class="pasta" transform="translate(10, 0)"/><g id="stpa_0_H1_L2_newTransition" class="pasta" transform="translate(20, 0)"/></g><g id="stpa_0_H2_L1" class="sprotty-edge stpa" style="fill:none;stroke:rgb(0, 0, 0);stroke-width:2px;"><path aspect="0" d="M 72,158.1666669845581 L 72,36.44444465637207" class="stpa-edge" style="stroke:rgb(255, 40, 40);"/><path aspect="0" d="M 6,-3 L 0,0 L 6,3 Z" transform="rotate(90 72 36.44444465637207) translate(72 36.44444465637207)" class="stpa-edge-arrow" style="fill:rgb(255, 40, 40);stroke:rgb(255, 40, 40);"/></g><g id="stpa_0_H2_L2" class="sprotty-edge stpa" style="fill:none;stroke:rgb(0, 0, 0);stroke-width:2px;"><path aspect="0" d="M 82,158.1666669845581 L 82,66.44444465637207 L 202,66.44444465637207 L 202,36.44444465637207" class="stpa-edge" style="stroke:rgb(255, 40, 40);"/><path aspect="0" d="M 6,-3 L 0,0 L 6,3 Z" transform="rotate(90 202 36.44444465637207) translate(202 36.44444465637207)" class="stpa-edge-arrow" style="fill:rgb(255, 40, 40);stroke:rgb(255, 40, 40);"/></g><g aspect="0" id="stpa_0_H2" class="stpa-node stpa" transform="translate(62, 158.1666669845581)" style="fill:rgb(255, 255, 255);stroke:rgb(255, 40, 40);stroke-width:2px;"><g><rect x="0" y="0" rx="5" ry="5" width="30" height="24.44444465637207"/></g><text class="label sprotty-label" id="stpa_0_H2_label" transform="translate(6.68836784362793, 5) translate(0, 11.666666984558105)" style="cursor:default;fill:rgb(0, 0, 0);font-family:Arial, sans-serif;stroke-width:0px;">H2</text><g id="stpa_0_H2_L1_newTransition" class="pasta" transform="translate(10, 0)"/><g id="stpa_0_H2_L2_newTransition" class="pasta" transform="translate(20, 0)"/><g id="stpa_0_UCA14_H2_newTransition1" class="pasta" transform="translate(10, 24.44444465637207)"/></g><g id="stpa_0_H3_L1" class="sprotty-edge stpa" style="fill:none;stroke:rgb(0, 0, 0);stroke-width:2px;"><path aspect="0" d="M 122,158.1666669845581 L 122,126.44444465637207 L 112,126.44444465637207 L 112,36.44444465637207" class="stpa-edge" style="stroke:rgb(255, 40, 40);"/><path aspect="0" d="M 6,-3 L 0,0 L 6,3 Z" transform="rotate(90 112 36.44444465637207) translate(112 36.44444465637207)" class="stpa-edge-arrow" style="fill:rgb(255, 40, 40);stroke:rgb(255, 40, 40);"/></g><g id="stpa_0_H3_L2" class="sprotty-edge stpa" style="fill:none;stroke:rgb(0, 0, 0);stroke-width:2px;"><path aspect="0" d="M 132,158.1666669845581 L 132,106.44444465637207 L 212,106.44444465637207 L 212,36.44444465637207" class="stpa-edge" style="stroke:rgb(255, 40, 40);"/><path aspect="0" d="M 6,-3 L 0,0 L 6,3 Z" transform="rotate(90 212 36.44444465637207) translate(212 36.44444465637207)" class="stpa-edge-arrow" style="fill:rgb(255, 40, 40);stroke:rgb(255, 40, 40);"/></g><g aspect="0" id="stpa_0_H3" class="stpa-node stpa" transform="translate(112, 158.1666669845581)" style="fill:rgb(255, 255, 255);stroke:rgb(255, 40, 40);stroke-width:2px;"><g><rect x="0" y="0" rx="5" ry="5" width="30" height="24.44444465637207"/></g><text class="label sprotty-label" id="stpa_0_H3_label" transform="translate(6.68836784362793, 5) translate(0, 11.666666984558105)" style="cursor:default;fill:rgb(0, 0, 0);font-family:Arial, sans-serif;stroke-width:0px;">H3</text><g id="stpa_0_H3_L1_newTransition" class="pasta" transform="translate(10, 0)"/><g id="stpa_0_H3_L2_newTransition" class="pasta" transform="translate(20, 0)"/><g id="stpa_0_UCA13_H3_newTransition1" class="pasta" transform="translate(20, 24.44444465637207)"/></g><g id="stpa_0_H4_L1" class="sprotty-edge stpa" style="fill:none;stroke:rgb(0, 0, 0);stroke-width:2px;"><path aspect="0" d="M 172,158.1666669845581 L 172,116.44444465637207 L 122,116.44444465637207 L 122,36.44444465637207" class="stpa-edge" style="stroke:rgb(255, 40, 40);"/><path aspect="0" d="M 6,-3 L 0,0 L 6,3 Z" transform="rotate(90 122 36.44444465637207) translate(122 36.44444465637207)" class="stpa-edge-arrow" style="fill:rgb(255, 40, 40);stroke:rgb(255, 40, 40);"/></g><g id="stpa_0_H4_L2" class="sprotty-edge stpa" style="fill:none;stroke:rgb(0, 0, 0);stroke-width:2px;"><path aspect="0" d="M 182,158.1666669845581 L 182,86.44444465637207 L 222,86.44444465637207 L 222,36.44444465637207" class="stpa-edge" style="stroke:rgb(255, 40, 40);"/><path aspect="0" d="M 6,-3 L 0,0 L 6,3 Z" transform="rotate(90 222 36.44444465637207) translate(222 36.44444465637207)" class="stpa-edge-arrow" style="fill:rgb(255, 40, 40);stroke:rgb(255, 40, 40);"/></g><g aspect="0" id="stpa_0_H4" class="stpa-node stpa" transform="translate(162, 158.1666669845581)" style="fill:rgb(255, 255, 255);stroke:rgb(255, 40, 40);stroke-width:2px;"><g><rect x="0" y="0" rx="5" ry="5" width="30" height="24.44444465637207"/></g><text class="label sprotty-label" id="stpa_0_H4_label" transform="translate(6.68836784362793, 5) translate(0, 11.666666984558105)" style="cursor:default;fill:rgb(0, 0, 0);font-family:Arial, sans-serif;stroke-width:0px;">H4</text><g id="stpa_0_H4_L1_newTransition" class="pasta" transform="translate(10, 0)"/><g id="stpa_0_H4_L2_newTransition" class="pasta" transform="translate(20, 0)"/></g><g id="stpa_0_H5_L1" class="sprotty-edge stpa" style="fill:none;stroke:rgb(0, 0, 0);stroke-width:2px;"><path aspect="0" d="M 222,158.1666669845581 L 222,96.44444465637207 L 132,96.44444465637207 L 132,36.44444465637207" class="stpa-edge" style="stroke:rgb(255, 40, 40);"/><path aspect="0" d="M 6,-3 L 0,0 L 6,3 Z" transform="rotate(90 132 36.44444465637207) translate(132 36.44444465637207)" class="stpa-edge-arrow" style="fill:rgb(255, 40, 40);stroke:rgb(255, 40, 40);"/></g><g id="stpa_0_H5_L2" class="sprotty-edge stpa" style="fill:none;stroke:rgb(0, 0, 0);stroke-width:2px;"><path aspect="0" d="M 232,158.1666669845581 L 232,36.44444465637207" class="stpa-edge" style="stroke:rgb(255, 40, 40);"/><path aspect="0" d="M 6,-3 L 0,0 L 6,3 Z" transform="rotate(90 232 36.44444465637207) translate(232 36.44444465637207)" class="stpa-edge-arrow" style="fill:rgb(255, 40, 40);stroke:rgb(255, 40, 40);"/></g><g aspect="0" id="stpa_0_H5" class="stpa-node stpa" transform="translate(212, 158.1666669845581)" style="fill:rgb(255, 255, 255);stroke:rgb(255, 40, 40);stroke-width:2px;"><g><rect x="0" y="0" rx="5" ry="5" width="30" height="24.44444465637207"/></g><text class="label sprotty-label" id="stpa_0_H5_label" transform="translate(6.68836784362793, 5) translate(0, 11.666666984558105)" style="cursor:default;fill:rgb(0, 0, 0);font-family:Arial, sans-serif;stroke-width:0px;">H5</text><g id="stpa_0_H5_L1_newTransition" class="pasta" transform="translate(10, 0)"/><g id="stpa_0_H5_L2_newTransition" class="pasta" transform="translate(20, 0)"/></g><g id="stpa_0_H6_L1" class="sprotty-edge stpa" style="fill:none;stroke:rgb(0, 0, 0);stroke-width:2px;"><path aspect="0" d="M 272,158.1666669845581 L 272,76.44444465637207 L 142,76.44444465637207 L 142,36.44444465637207" class="stpa-edge" style="stroke:rgb(255, 40, 40);"/><path aspect="0" d="M 6,-3 L 0,0 L 6,3 Z" transform="rotate(90 142 36.44444465637207) translate(142 36.44444465637207)" class="stpa-edge-arrow" style="fill:rgb(255, 40, 40);stroke:rgb(255, 40, 40);"/></g><g id="stpa_0_H6_L2" class="sprotty-edge stpa" style="fill:none;stroke:rgb(0, 0, 0);stroke-width:2px;"><path aspect="0" d="M 282,158.1666669845581 L 282,36.44444465637207" class="stpa-edge" style="stroke:rgb(255, 40, 40);"/><path aspect="0" d="M 6,-3 L 0,0 L 6,3 Z" transform="rotate(90 282 36.44444465637207) translate(282 36.44444465637207)" class="stpa-edge-arrow" style="fill:rgb(255, 40, 40);stroke:rgb(255, 40, 40);"/></g><g aspect="0" id="stpa_0_H6" class="stpa-node stpa" transform="translate(262, 158.1666669845581)" style="fill:rgb(255, 255, 255);stroke:rgb(255, 40, 40);stroke-width:2px;"><g><rect x="0" y="0" rx="5" ry="5" width="30" height="24.44444465637207"/></g><text class="label sprotty-label" id="stpa_0_H6_label" transform="translate(6.68836784362793, 5) translate(0, 11.666666984558105)" style="cursor:default;fill:rgb(0, 0, 0);font-family:Arial, sans-serif;stroke-width:0px;">H6</text><g id="stpa_0_H6_L1_newTransition" class="pasta" transform="translate(10, 0)"/><g id="stpa_0_H6_L2_newTransition" class="pasta" transform="translate(20, 0)"/></g><g id="stpa_0_H7_L1" class="sprotty-edge stpa" style="fill:none;stroke:rgb(0, 0, 0);stroke-width:2px;"><path aspect="0" d="M 322,136.44444465637207 L 322,56.44444465637207 L 152,56.44444465637207 L 152,36.44444465637207" class="stpa-edge" style="stroke:rgb(255, 40, 40);"/><path aspect="0" d="M 6,-3 L 0,0 L 6,3 Z" transform="rotate(90 152 36.44444465637207) translate(152 36.44444465637207)" class="stpa-edge-arrow" style="fill:rgb(255, 40, 40);stroke:rgb(255, 40, 40);"/></g><g id="stpa_0_H7_L2" class="sprotty-edge stpa" style="fill:none;stroke:rgb(0, 0, 0);stroke-width:2px;"><path aspect="0" d="M 332,136.44444465637207 L 332,36.44444465637207" class="stpa-edge" style="stroke:rgb(255, 40, 40);"/><path aspect="0" d="M 6,-3 L 0,0 L 6,3 Z" transform="rotate(90 332 36.44444465637207) translate(332 36.44444465637207)" class="stpa-edge-arrow" style="fill:rgb(255, 40, 40);stroke:rgb(255, 40, 40);"/></g><g aspect="0" id="stpa_0_H7" class="stpa-node stpa" transform="translate(312, 136.44444465637207)" style="fill:rgb(255, 255, 255);stroke:rgb(255, 40, 40);stroke-width:2px;"><g><rect x="0" y="0" rx="5" ry="5" width="591" height="67.88888931274414"/></g><text class="label sprotty-label" id="stpa_0_H7_label" transform="translate(287.18836784362793, 5) translate(0, 11.666666984558105)" style="cursor:default;fill:rgb(0, 0, 0);font-family:Arial, sans-serif;stroke-width:0px;">H7</text><g aspect="0" id="stpa_0_H7_1" class="stpa-node stpa" transform="translate(12, 31.44444465637207)"><g><rect x="0" y="0" rx="5" ry="5" width="37.46527862548828" height="24.44444465637207"/></g><text class="label sprotty-label" id="stpa_0_H7_1_label" transform="translate(5, 5) translate(0, 11.666666984558105)" style="cursor:default;fill:rgb(0, 0, 0);font-family:Arial, sans-serif;stroke-width:0px;">H7.1</text></g><g aspect="0" id="stpa_0_H7_2" class="stpa-node stpa" transform="translate(70, 31.44444465637207)"><g><rect x="0" y="0" rx="5" ry="5" width="37.46527862548828" height="24.44444465637207"/></g><text class="label sprotty-label" id="stpa_0_H7_2_label" transform="translate(5, 5) translate(0, 11.666666984558105)" style="cursor:default;fill:rgb(0, 0, 0);font-family:Arial, sans-serif;stroke-width:0px;">H7.2</text></g><g aspect="0" id="stpa_0_H7_3" class="stpa-node stpa" transform="translate(128, 31.44444465637207)"><g><rect x="0" y="0" rx="5" ry="5" width="37.46527862548828" height="24.44444465637207"/></g><text class="label sprotty-label" id="stpa_0_H7_3_label" transform="translate(5, 5) translate(0, 11.666666984558105)" style="cursor:default;fill:rgb(0, 0, 0);font-family:Arial, sans-serif;stroke-width:0px;">H7.3</text></g><g aspect="0" id="stpa_0_H7_4" class="stpa-node stpa" transform="translate(186, 31.44444465637207)"><g><rect x="0" y="0" rx="5" ry="5" width="37.46527862548828" height="24.44444465637207"/></g><text class="label sprotty-label" id="stpa_0_H7_4_label" transform="translate(5, 5) translate(0, 11.666666984558105)" style="cursor:default;fill:rgb(0, 0, 0);font-family:Arial, sans-serif;stroke-width:0px;">H7.4</text></g><g aspect="0" id="stpa_0_H7_5" class="stpa-node stpa" transform="translate(244, 31.44444465637207)"><g><rect x="0" y="0" rx="5" ry="5" width="37.46527862548828" height="24.44444465637207"/></g><text class="label sprotty-label" id="stpa_0_H7_5_label" transform="translate(5, 5) translate(0, 11.666666984558105)" style="cursor:default;fill:rgb(0, 0, 0);font-family:Arial, sans-serif;stroke-width:0px;">H7.5</text></g><g aspect="0" id="stpa_0_H7_6" class="stpa-node stpa" transform="translate(302, 31.44444465637207)"><g><rect x="0" y="0" rx="5" ry="5" width="37.46527862548828" height="24.44444465637207"/></g><text class="label sprotty-label" id="stpa_0_H7_6_label" transform="translate(5, 5) translate(0, 11.666666984558105)" style="cursor:default;fill:rgb(0, 0, 0);font-family:Arial, sans-serif;stroke-width:0px;">H7.6</text></g><g aspect="0" id="stpa_0_H7_7" class="stpa-node stpa" transform="translate(360, 31.44444465637207)"><g><rect x="0" y="0" rx="5" ry="5" width="37.46527862548828" height="24.44444465637207"/></g><text class="label sprotty-label" id="stpa_0_H7_7_label" transform="translate(5, 5) translate(0, 11.666666984558105)" style="cursor:default;fill:rgb(0, 0, 0);font-family:Arial, sans-serif;stroke-width:0px;">H7.7</text></g><g aspect="0" id="stpa_0_H7_8" class="stpa-node stpa" transform="translate(418, 31.44444465637207)"><g><rect x="0" y="0" rx="5" ry="5" width="37.46527862548828" height="24.44444465637207"/></g><text class="label sprotty-label" id="stpa_0_H7_8_label" transform="translate(5, 5) translate(0, 11.666666984558105)" style="cursor:default;fill:rgb(0, 0, 0);font-family:Arial, sans-serif;stroke-width:0px;">H7.8</text></g><g aspect="0" id="stpa_0_H7_9" class="stpa-node stpa" transform="translate(476, 31.44444465637207)"><g><rect x="0" y="0" rx="5" ry="5" width="37.46527862548828" height="24.44444465637207"/></g><text class="label sprotty-label" id="stpa_0_H7_9_label" transform="translate(5, 5) translate(0, 11.666666984558105)" style="cursor:default;fill:rgb(0, 0, 0);font-family:Arial, sans-serif;stroke-width:0px;">H7.9</text></g><g aspect="0" id="stpa_0_H7_10" class="stpa-node stpa" transform="translate(534, 31.44444465637207)"><g><rect x="0" y="0" rx="5" ry="5" width="44.69618225097656" height="24.44444465637207"/></g><text class="label sprotty-label" id="stpa_0_H7_10_label" transform="translate(5, 5) translate(0, 11.666666984558105)" style="cursor:default;fill:rgb(0, 0, 0);font-family:Arial, sans-serif;stroke-width:0px;">H7.10</text></g><g id="stpa_0_H7_L1_newTransition" class="pasta" transform="translate(10, 0)"/><g id="stpa_0_H7_L2_newTransition" class="pasta" transform="translate(20, 0)"/></g><g id="stpa_0_UCA13_H3" class="sprotty-edge stpa" style="fill:none;stroke:rgb(0, 0, 0);stroke-width:2px;"><path aspect="4" d="M 144,224.3333339691162 L 144,214.3333339691162 L 132,214.3333339691162 L 132,182.61111164093018" class="stpa-edge" style="stroke:rgb(102, 179, 255);"/><path aspect="4" d="M 6,-3 L 0,0 L 6,3 Z" transform="rotate(90 132 182.61111164093018) translate(132 182.61111164093018)" class="stpa-edge-arrow" style="fill:rgb(102, 179, 255);stroke:rgb(102, 179, 255);"/></g><g aspect="4" id="stpa_0_UCA13" class="stpa-node stpa" transform="translate(118, 224.3333339691162)" style="fill:rgb(255, 255, 255);stroke:rgb(102, 179, 255);stroke-width:2px;"><g><rect x="0" y="0" width="51.909725189208984" height="24.44444465637207"/></g><text class="label sprotty-label" id="stpa_0_UCA13_label" transform="translate(5, 5) translate(0, 11.666666984558105)" style="cursor:default;fill:rgb(0, 0, 0);font-family:Arial, sans-serif;stroke-width:0px;">UCA13</text><g id="stpa_0_UCA13_H3_newTransition" class="pasta" transform="translate(26, 0)"/></g><g id="stpa_0_UCA14_H2" class="sprotty-edge stpa" style="fill:none;stroke:rgb(0, 0, 0);stroke-width:2px;"><path aspect="4" d="M 72,224.3333339691162 L 72,182.61111164093018" class="stpa-edge" style="stroke:rgb(102, 179, 255);"/><path aspect="4" d="M 6,-3 L 0,0 L 6,3 Z" transform="rotate(90 72 182.61111164093018) translate(72 182.61111164093018)" class="stpa-edge-arrow" style="fill:rgb(102, 179, 255);stroke:rgb(102, 179, 255);"/></g><g aspect="4" id="stpa_0_UCA14" class="stpa-node stpa" transform="translate(46, 224.3333339691162)" style="fill:rgb(255, 255, 255);stroke:rgb(102, 179, 255);stroke-width:2px;"><g><rect x="0" y="0" width="51.909725189208984" height="24.44444465637207"/></g><text class="label sprotty-label" id="stpa_0_UCA14_label" transform="translate(5, 5) translate(0, 11.666666984558105)" style="cursor:default;fill:rgb(0, 0, 0);font-family:Arial, sans-serif;stroke-width:0px;">UCA14</text><g id="stpa_0_UCA14_H2_newTransition" class="pasta" transform="translate(26, 0)"/></g></g></g></svg>